<svg width="21" height="21" viewBox="0 0 21 21" fill="none" xmlns="http://www.w3.org/2000/svg">
<path d="M3 2.99996C3 1.34313 4.34313 0 5.99998 0C7.65682 0 8.99995 1.34313 8.99995 2.99996C8.99995 3.96708 8.54231 4.82732 7.83176 5.37592C7.81039 5.39169 7.78915 5.40765 7.76806 5.42377C7.27225 5.78606 6.66108 5.99992 5.99998 5.99992C4.34313 5.99992 3 4.65679 3 2.99996Z" fill="white"/>
<path d="M13.1682 5.37592C13.1896 5.39169 13.2108 5.40765 13.2319 5.42379C13.7277 5.78608 14.3389 5.99992 15 5.99992C16.6569 5.99992 18 4.65679 18 2.99996C18 1.34313 16.6569 0 15 0C13.3431 0 12 1.34313 12 2.99996C12 3.96708 12.4576 4.82732 13.1682 5.37592Z" fill="white"/>
<path d="M7.90134 7.49998C8.42005 6.60329 9.38957 6 10.5 6C11.6104 6 12.5799 6.60329 13.0986 7.49998C13.3539 7.94123 13.5 8.45353 13.5 8.99996C13.5 10.6568 12.1568 11.9999 10.5 11.9999C8.84313 11.9999 7.5 10.6568 7.5 8.99996C7.5 8.45353 7.64608 7.94123 7.90134 7.49998Z" fill="white"/>
<path d="M2.24995 7.49902H6.25601C6.09018 7.96819 5.99995 8.47305 5.99995 8.999C5.99995 10.1515 6.43322 11.2028 7.14578 11.999H6.74992C5.12222 11.999 3.73677 13.036 3.21818 14.4853C2.70824 14.2779 2.23645 14.0068 1.81821 13.6711C0.68845 12.7644 0 11.4231 0 9.74899C0 8.50642 1.00733 7.49902 2.24995 7.49902Z" fill="white"/>
<path d="M14.2503 11.999C15.878 11.999 17.2635 13.036 17.7821 14.4853C18.2921 14.2779 18.7638 14.0068 19.1821 13.6711C20.3118 12.7644 21.0003 11.4231 21.0003 9.74899C21.0003 8.50636 19.9929 7.49902 18.7503 7.49902H14.7443C14.91 7.96819 15.0003 8.47305 15.0003 8.999C15.0003 10.1515 14.567 11.2028 13.8545 11.999H14.2503Z" fill="white"/>
<path d="M16.3306 14.892C16.4396 15.1564 16.4999 15.4462 16.4999 15.75C16.4999 17.4241 15.8114 18.7654 14.6818 19.6721C13.5698 20.5646 12.0796 20.9999 10.5 20.9999C8.92034 20.9999 7.43011 20.5646 6.31821 19.6721C5.18845 18.7654 4.5 17.4241 4.5 15.75C4.5 15.4462 4.56022 15.1564 4.66938 14.892C5.00667 14.0749 5.81115 13.5 6.74995 13.5H14.2499C15.1888 13.5 15.9932 14.0749 16.3306 14.892Z" fill="white"/>
</svg>
