<svg width="21" height="21" viewBox="0 0 21 21" fill="none" xmlns="http://www.w3.org/2000/svg">
<path d="M3 2.99996C3 1.34313 4.34313 0 5.99998 0C7.65682 0 8.99995 1.34313 8.99995 2.99996C8.99995 3.96708 8.54231 4.82732 7.83176 5.37592C7.81039 5.39169 7.78915 5.40765 7.76806 5.42377C7.27225 5.78606 6.66108 5.99992 5.99998 5.99992C4.34313 5.99992 3 4.65679 3 2.99996Z" fill="white"/>
<path d="M13.1682 5.37592C13.1896 5.39169 13.2108 5.40765 13.2319 5.42379C13.7277 5.78608 14.3389 5.99992 15 5.99992C16.6569 5.99992 18 4.65679 18 2.99996C18 1.34313 16.6569 0 15 0C13.3431 0 12 1.34313 12 2.99996C12 3.96708 12.4576 4.82732 13.1682 5.37592Z" fill="white"/>
<path d="M7.90134 7.49998C8.42005 6.60329 9.38957 6 10.5 6C11.6104 6 12.5799 6.60329 13.0986 7.49998C13.3539 7.94123 13.5 8.45353 13.5 8.99996C13.5 10.6568 12.1568 11.9999 10.5 11.9999C8.84313 11.9999 7.5 10.6568 7.5 8.99996C7.5 8.45353 7.64608 7.94123 7.90134 7.49998Z" fill="white"/>
<path d="M2.24995 7.49951H6.25601C6.09018 7.96868 5.99995 8.47354 5.99995 8.99949C5.99995 10.152 6.43322 11.2033 7.14578 11.9994H6.74992C5.12222 11.9994 3.73677 13.0365 3.21818 14.4858C2.70824 14.2784 2.23645 14.0073 1.81821 13.6716C0.68845 12.7648 0 11.4236 0 9.74948C0 8.50691 1.00733 7.49951 2.24995 7.49951Z" fill="white"/>
<path d="M14.2503 11.9994C15.878 11.9994 17.2635 13.0365 17.7821 14.4858C18.2921 14.2784 18.7638 14.0073 19.1821 13.6716C20.3118 12.7648 21.0003 11.4236 21.0003 9.74948C21.0003 8.50685 19.9929 7.49951 18.7503 7.49951H14.7443C14.91 7.96868 15.0003 8.47354 15.0003 8.99949C15.0003 10.152 14.567 11.2033 13.8545 11.9994H14.2503Z" fill="white"/>
<path d="M16.3306 14.8925C16.4396 15.1569 16.4999 15.4467 16.4999 15.7505C16.4999 17.4246 15.8114 18.7659 14.6818 19.6726C13.5698 20.5651 12.0796 21.0004 10.5 21.0004C8.92034 21.0004 7.43011 20.5651 6.31821 19.6726C5.18845 18.7659 4.5 17.4246 4.5 15.7505C4.5 15.4467 4.56022 15.1569 4.66938 14.8925C5.00667 14.0754 5.81115 13.5005 6.74995 13.5005H14.2499C15.1888 13.5005 15.9932 14.0754 16.3306 14.8925Z" fill="white"/>
</svg>
