<svg width="28" height="28" viewBox="0 0 28 28" fill="none" xmlns="http://www.w3.org/2000/svg">
<mask id="mask0_292_2910" style="mask-type:alpha" maskUnits="userSpaceOnUse" x="0" y="0" width="28" height="28">
<rect width="28" height="28" fill="#D9D9D9"/>
</mask>
<g mask="url(#mask0_292_2910)">
<path d="M12.834 19.8337H15.1673V15.1671H19.834V12.8337H15.1673V8.16707H12.834V12.8337H8.16732V15.1671H12.834V19.8337ZM14.0007 25.6671C12.3868 25.6671 10.8701 25.3608 9.45065 24.7483C8.03121 24.1358 6.79648 23.3046 5.74648 22.2546C4.69648 21.2046 3.86523 19.9699 3.25273 18.5504C2.64023 17.131 2.33398 15.6143 2.33398 14.0004C2.33398 12.3865 2.64023 10.8699 3.25273 9.45041C3.86523 8.03096 4.69648 6.79624 5.74648 5.74624C6.79648 4.69624 8.03121 3.86499 9.45065 3.25249C10.8701 2.63999 12.3868 2.33374 14.0007 2.33374C15.6145 2.33374 17.1312 2.63999 18.5507 3.25249C19.9701 3.86499 21.2048 4.69624 22.2548 5.74624C23.3048 6.79624 24.1361 8.03096 24.7486 9.45041C25.3611 10.8699 25.6673 12.3865 25.6673 14.0004C25.6673 15.6143 25.3611 17.131 24.7486 18.5504C24.1361 19.9699 23.3048 21.2046 22.2548 22.2546C21.2048 23.3046 19.9701 24.1358 18.5507 24.7483C17.1312 25.3608 15.6145 25.6671 14.0007 25.6671ZM14.0007 23.3337C16.6062 23.3337 18.8132 22.4296 20.6215 20.6212C22.4298 18.8129 23.334 16.606 23.334 14.0004C23.334 11.3949 22.4298 9.18791 20.6215 7.37957C18.8132 5.57124 16.6062 4.66707 14.0007 4.66707C11.3951 4.66707 9.18815 5.57124 7.37982 7.37957C5.57148 9.18791 4.66732 11.3949 4.66732 14.0004C4.66732 16.606 5.57148 18.8129 7.37982 20.6212C9.18815 22.4296 11.3951 23.3337 14.0007 23.3337Z" fill="white"/>
</g>
</svg>
