<svg width="30" height="30" viewBox="0 0 30 30" fill="none" xmlns="http://www.w3.org/2000/svg">
<mask id="mask0_297_5694" style="mask-type:alpha" maskUnits="userSpaceOnUse" x="0" y="0" width="30" height="30">
<rect width="30" height="30" fill="#D9D9D9"/>
</mask>
<g mask="url(#mask0_297_5694)">
<path d="M3.74902 23.751C3.06152 23.751 2.47298 23.5062 1.9834 23.0166C1.49382 22.527 1.24902 21.9385 1.24902 21.251V8.75098C1.24902 8.06348 1.49382 7.47493 1.9834 6.98535C2.47298 6.49577 3.06152 6.25098 3.74902 6.25098H16.249C16.9365 6.25098 17.5251 6.49577 18.0146 6.98535C18.5042 7.47493 18.749 8.06348 18.749 8.75098V21.251C18.749 21.9385 18.5042 22.527 18.0146 23.0166C17.5251 23.5062 16.9365 23.751 16.249 23.751H3.74902ZM3.74902 21.251H16.249V8.75098H3.74902V21.251ZM4.99902 18.751H14.999L11.749 14.376L9.37402 17.501L7.62402 15.1885L4.99902 18.751ZM21.249 23.751V6.25098H23.749V23.751H21.249ZM26.249 23.751V6.25098H28.749V23.751H26.249Z" fill="white"/>
</g>
</svg>
