<svg width="28" height="28" viewBox="0 0 28 28" fill="none" xmlns="http://www.w3.org/2000/svg">
<mask id="mask0_292_2913" style="mask-type:alpha" maskUnits="userSpaceOnUse" x="0" y="0" width="28" height="28">
<rect width="28" height="28" fill="#D9D9D9"/>
</mask>
<g mask="url(#mask0_292_2913)">
<path d="M3.49935 22.1671C2.85768 22.1671 2.30838 21.9386 1.85143 21.4817C1.39449 21.0247 1.16602 20.4754 1.16602 19.8337V8.16707C1.16602 7.52541 1.39449 6.9761 1.85143 6.51916C2.30838 6.06221 2.85768 5.83374 3.49935 5.83374H15.166C15.8077 5.83374 16.357 6.06221 16.8139 6.51916C17.2709 6.9761 17.4993 7.52541 17.4993 8.16707V19.8337C17.4993 20.4754 17.2709 21.0247 16.8139 21.4817C16.357 21.9386 15.8077 22.1671 15.166 22.1671H3.49935ZM3.49935 19.8337H15.166V8.16707H3.49935V19.8337ZM4.66602 17.5004H13.9993L10.966 13.4171L8.74935 16.3337L7.11601 14.1754L4.66602 17.5004ZM19.8327 22.1671V5.83374H22.166V22.1671H19.8327ZM24.4993 22.1671V5.83374H26.8327V22.1671H24.4993Z" fill="white"/>
</g>
</svg>
