<svg width="30" height="30" viewBox="0 0 30 30" fill="none" xmlns="http://www.w3.org/2000/svg">
<mask id="mask0_307_906" style="mask-type:alpha" maskUnits="userSpaceOnUse" x="0" y="0" width="30" height="30">
<rect width="30" height="30" fill="#D9D9D9"/>
</mask>
<g mask="url(#mask0_307_906)">
<path d="M9.96973 21.251L15.001 18.9697L20.0322 21.251L20.501 20.7822L15.001 7.50098L9.50098 20.7822L9.96973 21.251ZM15.001 27.501C13.2718 27.501 11.6468 27.1729 10.126 26.5166C8.60514 25.8604 7.28223 24.9697 6.15723 23.8447C5.03223 22.7197 4.1416 21.3968 3.48535 19.876C2.8291 18.3551 2.50098 16.7301 2.50098 15.001C2.50098 13.2718 2.8291 11.6468 3.48535 10.126C4.1416 8.60514 5.03223 7.28223 6.15723 6.15723C7.28223 5.03223 8.60514 4.1416 10.126 3.48535C11.6468 2.8291 13.2718 2.50098 15.001 2.50098C16.7301 2.50098 18.3551 2.8291 19.876 3.48535C21.3968 4.1416 22.7197 5.03223 23.8447 6.15723C24.9697 7.28223 25.8604 8.60514 26.5166 10.126C27.1729 11.6468 27.501 13.2718 27.501 15.001C27.501 16.7301 27.1729 18.3551 26.5166 19.876C25.8604 21.3968 24.9697 22.7197 23.8447 23.8447C22.7197 24.9697 21.3968 25.8604 19.876 26.5166C18.3551 27.1729 16.7301 27.501 15.001 27.501ZM15.001 25.001C17.7926 25.001 20.1572 24.0322 22.0947 22.0947C24.0322 20.1572 25.001 17.7926 25.001 15.001C25.001 12.2093 24.0322 9.84473 22.0947 7.90723C20.1572 5.96973 17.7926 5.00098 15.001 5.00098C12.2093 5.00098 9.84473 5.96973 7.90723 7.90723C5.96973 9.84473 5.00098 12.2093 5.00098 15.001C5.00098 17.7926 5.96973 20.1572 7.90723 22.0947C9.84473 24.0322 12.2093 25.001 15.001 25.001Z" fill="white"/>
</g>
</svg>
