<svg width="30" height="30" viewBox="0 0 30 30" fill="none" xmlns="http://www.w3.org/2000/svg">
<mask id="mask0_292_2870" style="mask-type:alpha" maskUnits="userSpaceOnUse" x="0" y="0" width="30" height="30">
<rect width="30" height="30" fill="#D9D9D9"/>
</mask>
<g mask="url(#mask0_292_2870)">
<path d="M9.96973 21.2507L15.001 18.9695L20.0322 21.2507L20.501 20.782L15.001 7.50073L9.50098 20.782L9.96973 21.2507ZM15.001 27.5007C13.2718 27.5007 11.6468 27.1726 10.126 26.5164C8.60514 25.8601 7.28223 24.9695 6.15723 23.8445C5.03223 22.7195 4.1416 21.3966 3.48535 19.8757C2.8291 18.3549 2.50098 16.7299 2.50098 15.0007C2.50098 13.2716 2.8291 11.6466 3.48535 10.1257C4.1416 8.6049 5.03223 7.28198 6.15723 6.15698C7.28223 5.03198 8.60514 4.14136 10.126 3.48511C11.6468 2.82886 13.2718 2.50073 15.001 2.50073C16.7301 2.50073 18.3551 2.82886 19.876 3.48511C21.3968 4.14136 22.7197 5.03198 23.8447 6.15698C24.9697 7.28198 25.8604 8.6049 26.5166 10.1257C27.1729 11.6466 27.501 13.2716 27.501 15.0007C27.501 16.7299 27.1729 18.3549 26.5166 19.8757C25.8604 21.3966 24.9697 22.7195 23.8447 23.8445C22.7197 24.9695 21.3968 25.8601 19.876 26.5164C18.3551 27.1726 16.7301 27.5007 15.001 27.5007ZM15.001 25.0007C17.7926 25.0007 20.1572 24.032 22.0947 22.0945C24.0322 20.157 25.001 17.7924 25.001 15.0007C25.001 12.2091 24.0322 9.84448 22.0947 7.90698C20.1572 5.96948 17.7926 5.00073 15.001 5.00073C12.2093 5.00073 9.84473 5.96948 7.90723 7.90698C5.96973 9.84448 5.00098 12.2091 5.00098 15.0007C5.00098 17.7924 5.96973 20.157 7.90723 22.0945C9.84473 24.032 12.2093 25.0007 15.001 25.0007Z" fill="white" fill-opacity="0.5"/>
</g>
</svg>
