<svg width="30" height="30" viewBox="0 0 30 30" fill="none" xmlns="http://www.w3.org/2000/svg">
<mask id="mask0_297_5706" style="mask-type:alpha" maskUnits="userSpaceOnUse" x="0" y="0" width="30" height="30">
<rect width="30" height="30" fill="#D9D9D9"/>
</mask>
<g mask="url(#mask0_297_5706)">
<path d="M13.4365 23.751C14.2282 23.751 14.8949 23.4801 15.4365 22.9385C15.9782 22.3968 16.249 21.7301 16.249 20.9385V16.251H19.999V13.751H14.999V18.5947C14.7699 18.4281 14.5251 18.3083 14.2646 18.2354C14.0042 18.1624 13.7282 18.126 13.4365 18.126C12.6449 18.126 11.9782 18.3968 11.4365 18.9385C10.8949 19.4801 10.624 20.1468 10.624 20.9385C10.624 21.7301 10.8949 22.3968 11.4365 22.9385C11.9782 23.4801 12.6449 23.751 13.4365 23.751ZM7.49902 27.501C6.81152 27.501 6.22298 27.2562 5.7334 26.7666C5.24382 26.277 4.99902 25.6885 4.99902 25.001V5.00098C4.99902 4.31348 5.24382 3.72494 5.7334 3.23535C6.22298 2.74577 6.81152 2.50098 7.49902 2.50098H17.499L24.999 10.001V25.001C24.999 25.6885 24.7542 26.277 24.2646 26.7666C23.7751 27.2562 23.1865 27.501 22.499 27.501H7.49902ZM16.249 11.251V5.00098H7.49902V25.001H22.499V11.251H16.249Z" fill="white"/>
</g>
</svg>
