<svg width="30" height="30" viewBox="0 0 30 30" fill="none" xmlns="http://www.w3.org/2000/svg">
<mask id="mask0_292_2876" style="mask-type:alpha" maskUnits="userSpaceOnUse" x="0" y="0" width="30" height="30">
<rect width="30" height="30" fill="#D9D9D9"/>
</mask>
<g mask="url(#mask0_292_2876)">
<path d="M8.12402 24.9988C6.22819 24.9988 4.6084 24.3425 3.26465 23.03C1.9209 21.7175 1.24902 20.1134 1.24902 18.2175C1.24902 16.5925 1.73861 15.1446 2.71777 13.8738C3.69694 12.6029 4.97819 11.7904 6.56152 11.4363C7.08236 9.51961 8.12402 7.96753 9.68652 6.78003C11.249 5.59253 13.0199 4.99878 14.999 4.99878C17.4365 4.99878 19.5042 5.84774 21.2021 7.54565C22.9001 9.24357 23.749 11.3113 23.749 13.7488C25.1865 13.9154 26.3792 14.5352 27.3271 15.6082C28.2751 16.6811 28.749 17.9363 28.749 19.3738C28.749 20.9363 28.2021 22.2644 27.1084 23.3582C26.0146 24.4519 24.6865 24.9988 23.124 24.9988H16.249C15.5615 24.9988 14.973 24.754 14.4834 24.2644C13.9938 23.7748 13.749 23.1863 13.749 22.4988V16.0613L11.749 17.9988L9.99902 16.2488L14.999 11.2488L19.999 16.2488L18.249 17.9988L16.249 16.0613V22.4988H23.124C23.999 22.4988 24.7386 22.1967 25.3428 21.5925C25.9469 20.9884 26.249 20.2488 26.249 19.3738C26.249 18.4988 25.9469 17.7592 25.3428 17.155C24.7386 16.5509 23.999 16.2488 23.124 16.2488H21.249V13.7488C21.249 12.0196 20.6396 10.5457 19.4209 9.3269C18.2021 8.10815 16.7282 7.49878 14.999 7.49878C13.2699 7.49878 11.7959 8.10815 10.5771 9.3269C9.3584 10.5457 8.74902 12.0196 8.74902 13.7488H8.12402C6.91569 13.7488 5.88444 14.1759 5.03027 15.03C4.17611 15.8842 3.74902 16.9154 3.74902 18.1238C3.74902 19.3321 4.17611 20.3634 5.03027 21.2175C5.88444 22.0717 6.91569 22.4988 8.12402 22.4988H11.249V24.9988H8.12402Z" fill="white" fill-opacity="0.5"/>
</g>
</svg>
