<svg width="30" height="30" viewBox="0 0 30 30" fill="none" xmlns="http://www.w3.org/2000/svg">
<mask id="mask0_297_4736" style="mask-type:alpha" maskUnits="userSpaceOnUse" x="0" y="0" width="30" height="30">
<rect width="30" height="30" fill="#D9D9D9"/>
</mask>
<g mask="url(#mask0_297_4736)">
<path d="M8.12402 24.999C6.22819 24.999 4.6084 24.3428 3.26465 23.0303C1.9209 21.7178 1.24902 20.1136 1.24902 18.2178C1.24902 16.5928 1.73861 15.1449 2.71777 13.874C3.69694 12.6032 4.97819 11.7907 6.56152 11.4365C7.08236 9.51986 8.12402 7.96777 9.68652 6.78027C11.249 5.59277 13.0199 4.99902 14.999 4.99902C17.4365 4.99902 19.5042 5.84798 21.2021 7.5459C22.9001 9.24381 23.749 11.3115 23.749 13.749C25.1865 13.9157 26.3792 14.5355 27.3271 15.6084C28.2751 16.6813 28.749 17.9365 28.749 19.374C28.749 20.9365 28.2021 22.2646 27.1084 23.3584C26.0146 24.4521 24.6865 24.999 23.124 24.999H16.249C15.5615 24.999 14.973 24.7542 14.4834 24.2646C13.9938 23.7751 13.749 23.1865 13.749 22.499V16.0615L11.749 17.999L9.99902 16.249L14.999 11.249L19.999 16.249L18.249 17.999L16.249 16.0615V22.499H23.124C23.999 22.499 24.7386 22.1969 25.3428 21.5928C25.9469 20.9886 26.249 20.249 26.249 19.374C26.249 18.499 25.9469 17.7594 25.3428 17.1553C24.7386 16.5511 23.999 16.249 23.124 16.249H21.249V13.749C21.249 12.0199 20.6396 10.5459 19.4209 9.32715C18.2021 8.1084 16.7282 7.49902 14.999 7.49902C13.2699 7.49902 11.7959 8.1084 10.5771 9.32715C9.3584 10.5459 8.74902 12.0199 8.74902 13.749H8.12402C6.91569 13.749 5.88444 14.1761 5.03027 15.0303C4.17611 15.8844 3.74902 16.9157 3.74902 18.124C3.74902 19.3324 4.17611 20.3636 5.03027 21.2178C5.88444 22.0719 6.91569 22.499 8.12402 22.499H11.249V24.999H8.12402Z" fill="white" fill-opacity="0.5"/>
</g>
</svg>
