<svg width="30" height="30" viewBox="0 0 30 30" fill="none" xmlns="http://www.w3.org/2000/svg">
<mask id="mask0_292_3099" style="mask-type:alpha" maskUnits="userSpaceOnUse" x="0" y="0" width="30" height="30">
<rect width="30" height="30" fill="#D9D9D9"/>
</mask>
<g mask="url(#mask0_292_3099)">
<path d="M2.50098 30.0007V25.0007H27.501V30.0007H2.50098ZM7.50098 20.0007H9.25098L19.001 10.282L17.2197 8.50073L7.50098 18.2507V20.0007ZM5.00098 22.5007V17.1882L19.001 3.21948C19.2301 2.99032 19.4958 2.81323 19.7979 2.68823C20.0999 2.56323 20.4176 2.50073 20.751 2.50073C21.0843 2.50073 21.4072 2.56323 21.7197 2.68823C22.0322 2.81323 22.3135 3.00073 22.5635 3.25073L24.2822 5.00073C24.5322 5.2299 24.7145 5.50073 24.8291 5.81323C24.9437 6.12573 25.001 6.44865 25.001 6.78198C25.001 7.09448 24.9437 7.40177 24.8291 7.70386C24.7145 8.00594 24.5322 8.28198 24.2822 8.53198L10.3135 22.5007H5.00098Z" fill="white"/>
</g>
</svg>
