<svg width="29" height="29" viewBox="0 0 29 29" fill="none" xmlns="http://www.w3.org/2000/svg">
<mask id="mask0_292_3146" style="mask-type:alpha" maskUnits="userSpaceOnUse" x="0" y="0" width="29" height="29">
<rect width="29" height="29" fill="#D9D9D9"/>
</mask>
<g mask="url(#mask0_292_3146)">
<path d="M3.625 15.7083V6.04167C3.625 5.37708 3.86163 4.80816 4.3349 4.3349C4.80816 3.86163 5.37708 3.625 6.04167 3.625H13.2917V15.7083H3.625ZM15.7083 3.625H22.9583C23.6229 3.625 24.1918 3.86163 24.6651 4.3349C25.1384 4.80816 25.375 5.37708 25.375 6.04167V10.875H15.7083V3.625ZM15.7083 25.375V13.2917H25.375V22.9583C25.375 23.6229 25.1384 24.1918 24.6651 24.6651C24.1918 25.1384 23.6229 25.375 22.9583 25.375H15.7083ZM3.625 18.125H13.2917V25.375H6.04167C5.37708 25.375 4.80816 25.1384 4.3349 24.6651C3.86163 24.1918 3.625 23.6229 3.625 22.9583V18.125ZM6.04167 13.2917H10.875V6.04167H6.04167V13.2917ZM18.125 8.45833H22.9583V6.04167H18.125V8.45833ZM18.125 15.7083V22.9583H22.9583V15.7083H18.125ZM6.04167 20.5417V22.9583H10.875V20.5417H6.04167Z" fill="white"/>
</g>
</svg>
