<svg width="20" height="20" viewBox="0 0 20 20" fill="none" xmlns="http://www.w3.org/2000/svg">
<mask id="mask0_292_3035" style="mask-type:alpha" maskUnits="userSpaceOnUse" x="0" y="0" width="20" height="20">
<rect width="20" height="20" fill="#D9D9D9"/>
</mask>
<g mask="url(#mask0_292_3035)">
<path d="M10 2.5C11.0278 2.5 11.9965 2.69792 12.9062 3.09375C13.816 3.48958 14.6111 4.02778 15.2917 4.70833C15.9722 5.38889 16.5104 6.18403 16.9062 7.09375C17.3021 8.00347 17.5 8.97222 17.5 10C17.5 11.0278 17.3021 11.9965 16.9062 12.9062C16.5104 13.816 15.9722 14.6111 15.2917 15.2917C14.6111 15.9722 13.816 16.5104 12.9062 16.9062C11.9965 17.3021 11.0278 17.5 10 17.5C9.43056 17.5 8.88194 17.4375 8.35417 17.3125C7.82639 17.1875 7.29861 17.0069 6.77083 16.7708L8.04167 15.5C8.36111 15.6111 8.68403 15.6944 9.01042 15.75C9.33681 15.8056 9.66667 15.8333 10 15.8333C11.6111 15.8333 12.9861 15.2639 14.125 14.125C15.2639 12.9861 15.8333 11.6111 15.8333 10C15.8333 8.38889 15.2639 7.01389 14.125 5.875C12.9861 4.73611 11.6111 4.16667 10 4.16667C8.38889 4.16667 7.01389 4.73611 5.875 5.875C4.73611 7.01389 4.16667 8.38889 4.16667 10C4.16667 10.3333 4.19444 10.6632 4.25 10.9896C4.30556 11.316 4.38889 11.6389 4.5 11.9583L3.25 13.2083C3 12.7083 2.8125 12.191 2.6875 11.6562C2.5625 11.1215 2.5 10.5694 2.5 10C2.5 8.97222 2.69792 8.00347 3.09375 7.09375C3.48958 6.18403 4.02778 5.38889 4.70833 4.70833C5.38889 4.02778 6.18403 3.48958 7.09375 3.09375C8.00347 2.69792 8.97222 2.5 10 2.5ZM10.8333 13.3333V10.3333L3.66667 17.5L2.5 16.3333L9.66667 9.16667H6.66667V7.5H12.5V13.3333H10.8333Z" fill="#929292"/>
</g>
</svg>
