<svg width="28" height="28" viewBox="0 0 28 28" fill="none" xmlns="http://www.w3.org/2000/svg">
<mask id="mask0_292_2907" style="mask-type:alpha" maskUnits="userSpaceOnUse" x="0" y="0" width="28" height="28">
<rect width="28" height="28" fill="#D9D9D9"/>
</mask>
<g mask="url(#mask0_292_2907)">
<path d="M5.83333 19.8333C5.19167 19.8333 4.64236 19.6049 4.18542 19.1479C3.72847 18.691 3.5 18.1417 3.5 17.5V10.5C3.5 9.85833 3.72847 9.30903 4.18542 8.85208C4.64236 8.39514 5.19167 8.16667 5.83333 8.16667H22.1667C22.8083 8.16667 23.3576 8.39514 23.8146 8.85208C24.2715 9.30903 24.5 9.85833 24.5 10.5V17.5C24.5 18.1417 24.2715 18.691 23.8146 19.1479C23.3576 19.6049 22.8083 19.8333 22.1667 19.8333H5.83333ZM5.83333 17.5H22.1667V10.5H5.83333V17.5ZM3.5 5.83333V3.5H24.5V5.83333H3.5ZM3.5 24.5V22.1667H24.5V24.5H3.5Z" fill="white"/>
</g>
</svg>
