<svg width="30" height="30" viewBox="0 0 30 30" fill="none" xmlns="http://www.w3.org/2000/svg">
<mask id="mask0_292_3102" style="mask-type:alpha" maskUnits="userSpaceOnUse" x="0" y="0" width="30" height="30">
<rect width="30" height="30" fill="#D9D9D9"/>
</mask>
<g mask="url(#mask0_292_3102)">
<path d="M6.25 10.0007H23.75V7.50073H6.25V10.0007ZM6.25 27.5007C5.5625 27.5007 4.97396 27.2559 4.48438 26.7664C3.99479 26.2768 3.75 25.6882 3.75 25.0007V7.50073C3.75 6.81323 3.99479 6.22469 4.48438 5.73511C4.97396 5.24552 5.5625 5.00073 6.25 5.00073H7.5V2.50073H10V5.00073H20V2.50073H22.5V5.00073H23.75C24.4375 5.00073 25.026 5.24552 25.5156 5.73511C26.0052 6.22469 26.25 6.81323 26.25 7.50073V14.5945C25.8542 14.407 25.4479 14.2507 25.0313 14.1257C24.6146 14.0007 24.1875 13.907 23.75 13.8445V12.5007H6.25V25.0007H14.125C14.2708 25.4591 14.4427 25.8966 14.6406 26.3132C14.8385 26.7299 15.0729 27.1257 15.3438 27.5007H6.25ZM22.5 28.7507C20.7708 28.7507 19.2969 28.1414 18.0781 26.9226C16.8594 25.7039 16.25 24.2299 16.25 22.5007C16.25 20.7716 16.8594 19.2976 18.0781 18.0789C19.2969 16.8601 20.7708 16.2507 22.5 16.2507C24.2292 16.2507 25.7031 16.8601 26.9219 18.0789C28.1406 19.2976 28.75 20.7716 28.75 22.5007C28.75 24.2299 28.1406 25.7039 26.9219 26.9226C25.7031 28.1414 24.2292 28.7507 22.5 28.7507ZM24.5938 25.4695L25.4688 24.5945L23.125 22.2507V18.7507H21.875V22.7507L24.5938 25.4695Z" fill="white"/>
</g>
</svg>
