<svg width="30" height="30" viewBox="0 0 30 30" fill="none" xmlns="http://www.w3.org/2000/svg">
<mask id="mask0_292_2861" style="mask-type:alpha" maskUnits="userSpaceOnUse" x="0" y="0" width="30" height="30">
<rect width="30" height="30" fill="#D9D9D9"/>
</mask>
<g mask="url(#mask0_292_2861)">
<path d="M14.251 11.2507H24.251C23.6885 9.81323 22.8291 8.57886 21.6729 7.54761C20.5166 6.51636 19.1885 5.7924 17.6885 5.37573L14.251 11.2507ZM11.376 13.7507L16.376 5.12573C16.1468 5.08407 15.9176 5.05282 15.6885 5.03198C15.4593 5.01115 15.2301 5.00073 15.001 5.00073C13.626 5.00073 12.3447 5.26115 11.1572 5.78198C9.96973 6.30282 8.91764 7.00073 8.00098 7.87573L11.376 13.7507ZM5.31348 17.5007H12.126L7.12598 8.87573C6.45931 9.7299 5.93848 10.6726 5.56348 11.7039C5.18848 12.7351 5.00098 13.8341 5.00098 15.0007C5.00098 15.4382 5.02702 15.8601 5.0791 16.2664C5.13119 16.6726 5.20931 17.0841 5.31348 17.5007ZM12.3135 24.6257L15.6885 18.7507H5.75098C6.31348 20.1882 7.17285 21.4226 8.3291 22.4539C9.48535 23.4851 10.8135 24.2091 12.3135 24.6257ZM15.001 25.0007C16.376 25.0007 17.6572 24.7403 18.8447 24.2195C20.0322 23.6987 21.0843 23.0007 22.001 22.1257L18.626 16.2507L13.626 24.8757C13.8551 24.9174 14.0791 24.9487 14.2979 24.9695C14.5166 24.9903 14.751 25.0007 15.001 25.0007ZM22.876 21.1257C23.5426 20.2716 24.0635 19.3289 24.4385 18.2976C24.8135 17.2664 25.001 16.1674 25.001 15.0007C25.001 14.5632 24.9749 14.1414 24.9229 13.7351C24.8708 13.3289 24.7926 12.9174 24.6885 12.5007H17.876L22.876 21.1257ZM15.001 27.5007C13.2926 27.5007 11.6781 27.1726 10.1572 26.5164C8.63639 25.8601 7.30827 24.9643 6.17285 23.8289C5.03744 22.6934 4.1416 21.3653 3.48535 19.8445C2.8291 18.3237 2.50098 16.7091 2.50098 15.0007C2.50098 13.2716 2.8291 11.6518 3.48535 10.1414C4.1416 8.63094 5.03744 7.30802 6.17285 6.17261C7.30827 5.03719 8.63639 4.14136 10.1572 3.48511C11.6781 2.82886 13.2926 2.50073 15.001 2.50073C16.7301 2.50073 18.3499 2.82886 19.8604 3.48511C21.3708 4.14136 22.6937 5.03719 23.8291 6.17261C24.9645 7.30802 25.8604 8.63094 26.5166 10.1414C27.1729 11.6518 27.501 13.2716 27.501 15.0007C27.501 16.7091 27.1729 18.3237 26.5166 19.8445C25.8604 21.3653 24.9645 22.6934 23.8291 23.8289C22.6937 24.9643 21.3708 25.8601 19.8604 26.5164C18.3499 27.1726 16.7301 27.5007 15.001 27.5007Z" fill="white" fill-opacity="0.5"/>
</g>
</svg>
