<svg width="30" height="30" viewBox="0 0 30 30" fill="none" xmlns="http://www.w3.org/2000/svg">
<mask id="mask0_297_5379" style="mask-type:alpha" maskUnits="userSpaceOnUse" x="0" y="0" width="30" height="30">
<rect width="30" height="30" fill="#D9D9D9"/>
</mask>
<g mask="url(#mask0_297_5379)">
<path d="M14.251 11.251H24.251C23.6885 9.81348 22.8291 8.5791 21.6729 7.54785C20.5166 6.5166 19.1885 5.79264 17.6885 5.37598L14.251 11.251ZM11.376 13.751L16.376 5.12598C16.1468 5.08431 15.9176 5.05306 15.6885 5.03223C15.4593 5.01139 15.2301 5.00098 15.001 5.00098C13.626 5.00098 12.3447 5.26139 11.1572 5.78223C9.96973 6.30306 8.91764 7.00098 8.00098 7.87598L11.376 13.751ZM5.31348 17.501H12.126L7.12598 8.87598C6.45931 9.73014 5.93848 10.6729 5.56348 11.7041C5.18848 12.7354 5.00098 13.8343 5.00098 15.001C5.00098 15.4385 5.02702 15.8604 5.0791 16.2666C5.13119 16.6729 5.20931 17.0843 5.31348 17.501ZM12.3135 24.626L15.6885 18.751H5.75098C6.31348 20.1885 7.17285 21.4229 8.3291 22.4541C9.48535 23.4854 10.8135 24.2093 12.3135 24.626ZM15.001 25.001C16.376 25.001 17.6572 24.7406 18.8447 24.2197C20.0322 23.6989 21.0843 23.001 22.001 22.126L18.626 16.251L13.626 24.876C13.8551 24.9176 14.0791 24.9489 14.2979 24.9697C14.5166 24.9906 14.751 25.001 15.001 25.001ZM22.876 21.126C23.5426 20.2718 24.0635 19.3291 24.4385 18.2979C24.8135 17.2666 25.001 16.1676 25.001 15.001C25.001 14.5635 24.9749 14.1416 24.9229 13.7354C24.8708 13.3291 24.7926 12.9176 24.6885 12.501H17.876L22.876 21.126ZM15.001 27.501C13.2926 27.501 11.6781 27.1729 10.1572 26.5166C8.63639 25.8604 7.30827 24.9645 6.17285 23.8291C5.03744 22.6937 4.1416 21.3656 3.48535 19.8447C2.8291 18.3239 2.50098 16.7093 2.50098 15.001C2.50098 13.2718 2.8291 11.652 3.48535 10.1416C4.1416 8.63119 5.03744 7.30827 6.17285 6.17285C7.30827 5.03744 8.63639 4.1416 10.1572 3.48535C11.6781 2.8291 13.2926 2.50098 15.001 2.50098C16.7301 2.50098 18.3499 2.8291 19.8604 3.48535C21.3708 4.1416 22.6937 5.03744 23.8291 6.17285C24.9645 7.30827 25.8604 8.63119 26.5166 10.1416C27.1729 11.652 27.501 13.2718 27.501 15.001C27.501 16.7093 27.1729 18.3239 26.5166 19.8447C25.8604 21.3656 24.9645 22.6937 23.8291 23.8291C22.6937 24.9645 21.3708 25.8604 19.8604 26.5166C18.3499 27.1729 16.7301 27.501 15.001 27.501Z" fill="white"/>
</g>
</svg>
