<svg width="30" height="30" viewBox="0 0 30 30" fill="none" xmlns="http://www.w3.org/2000/svg">
<mask id="mask0_297_5236" style="mask-type:alpha" maskUnits="userSpaceOnUse" x="0" y="0" width="30" height="30">
<rect width="30" height="30" fill="#D9D9D9"/>
</mask>
<g mask="url(#mask0_297_5236)">
<path d="M10 21.25C9.3125 21.25 8.72396 21.0052 8.23438 20.5156C7.74479 20.026 7.5 19.4375 7.5 18.75V11.25C7.5 10.5625 7.74479 9.97396 8.23438 9.48438C8.72396 8.99479 9.3125 8.75 10 8.75H11.25L12.5 7.5H17.5L18.75 8.75H20C20.6875 8.75 21.276 8.99479 21.7656 9.48438C22.2552 9.97396 22.5 10.5625 22.5 11.25V18.75C22.5 19.4375 22.2552 20.026 21.7656 20.5156C21.276 21.0052 20.6875 21.25 20 21.25H10ZM10 18.75H20V11.25H10V18.75ZM15 17.5C15.6875 17.5 16.276 17.2552 16.7656 16.7656C17.2552 16.276 17.5 15.6875 17.5 15C17.5 14.3125 17.2552 13.724 16.7656 13.2344C16.276 12.7448 15.6875 12.5 15 12.5C14.3125 12.5 13.724 12.7448 13.2344 13.2344C12.7448 13.724 12.5 14.3125 12.5 15C12.5 15.6875 12.7448 16.276 13.2344 16.7656C13.724 17.2552 14.3125 17.5 15 17.5ZM10.6875 0.625C11.3958 0.395833 12.1094 0.234375 12.8281 0.140625C13.5469 0.046875 14.2708 0 15 0C16.9583 0 18.8073 0.348958 20.5469 1.04688C22.2865 1.74479 23.8281 2.71354 25.1719 3.95313C26.5156 5.19271 27.6146 6.65104 28.4688 8.32812C29.3229 10.0052 29.8333 11.8125 30 13.75H27.5C27.3542 12.25 26.9583 10.849 26.3125 9.54688C25.6667 8.24479 24.8385 7.09896 23.8281 6.10938C22.8177 5.11979 21.6562 4.3125 20.3438 3.6875C19.0312 3.0625 17.625 2.6875 16.125 2.5625L18.0625 4.5L16.3125 6.25L10.6875 0.625ZM19.3125 29.375C18.6042 29.6042 17.8906 29.7656 17.1719 29.8594C16.4531 29.9531 15.7292 30 15 30C13.0417 30 11.1927 29.651 9.45312 28.9531C7.71354 28.2552 6.17188 27.2865 4.82812 26.0469C3.48438 24.8073 2.38542 23.349 1.53125 21.6719C0.677083 19.9948 0.166667 18.1875 0 16.25H2.5C2.66667 17.75 3.06771 19.151 3.70312 20.4531C4.33854 21.7552 5.16146 22.901 6.17188 23.8906C7.18229 24.8802 8.34375 25.6875 9.65625 26.3125C10.9688 26.9375 12.375 27.3125 13.875 27.4375L11.9375 25.5L13.6875 23.75L19.3125 29.375Z" fill="white"/>
</g>
</svg>
