<svg width="29" height="29" viewBox="0 0 29 29" fill="none" xmlns="http://www.w3.org/2000/svg">
<mask id="mask0_292_2734" style="mask-type:alpha" maskUnits="userSpaceOnUse" x="0" y="0" width="29" height="29">
<rect width="29" height="29" fill="#D9D9D9"/>
</mask>
<g mask="url(#mask0_292_2734)">
<path d="M4.83171 24.1661C4.16712 24.1661 3.5982 23.9295 3.12494 23.4562C2.65167 22.9829 2.41504 22.414 2.41504 21.7494V7.24943C2.41504 6.58485 2.65167 6.01592 3.12494 5.54266C3.5982 5.0694 4.16712 4.83276 4.83171 4.83276H24.165C24.8296 4.83276 25.3986 5.0694 25.8718 5.54266C26.3451 6.01592 26.5817 6.58485 26.5817 7.24943V21.7494C26.5817 22.414 26.3451 22.9829 25.8718 23.4562C25.3986 23.9295 24.8296 24.1661 24.165 24.1661H4.83171ZM4.83171 21.7494H24.165V7.24943H4.83171V21.7494ZM7.24837 19.3328H21.7484V9.6661H7.24837V19.3328Z" fill="#868788"/>
</g>
</svg>
