<svg width="30" height="30" viewBox="0 0 30 30" fill="none" xmlns="http://www.w3.org/2000/svg">
<mask id="mask0_292_3206" style="mask-type:alpha" maskUnits="userSpaceOnUse" x="0" y="0" width="30" height="30">
<rect width="30" height="30" fill="#D9D9D9"/>
</mask>
<g mask="url(#mask0_292_3206)">
<path d="M7.5 14.375V7.5H14.375V14.375H7.5ZM7.5 22.5V15.625H14.375V22.5H7.5ZM15.625 14.375V7.5H22.5V14.375H15.625ZM15.625 22.5V15.625H22.5V22.5H15.625ZM10 11.875H11.875V10H10V11.875ZM18.125 11.875H20V10H18.125V11.875ZM10 20H11.875V18.125H10V20ZM18.125 20H20V18.125H18.125V20ZM6.25 26.25C5.5625 26.25 4.97396 26.0052 4.48438 25.5156C3.99479 25.026 3.75 24.4375 3.75 23.75V6.25C3.75 5.5625 3.99479 4.97396 4.48438 4.48438C4.97396 3.99479 5.5625 3.75 6.25 3.75H23.75C24.4375 3.75 25.026 3.99479 25.5156 4.48438C26.0052 4.97396 26.25 5.5625 26.25 6.25V23.75C26.25 24.4375 26.0052 25.026 25.5156 25.5156C25.026 26.0052 24.4375 26.25 23.75 26.25H6.25ZM6.25 23.75H23.75V6.25H6.25V23.75Z" fill="white"/>
</g>
</svg>
