<svg width="21" height="21" viewBox="0 0 21 21" fill="none" xmlns="http://www.w3.org/2000/svg">
<mask id="mask0_292_3031" style="mask-type:alpha" maskUnits="userSpaceOnUse" x="0" y="0" width="21" height="21">
<rect width="21" height="21" fill="#D9D9D9"/>
</mask>
<g mask="url(#mask0_292_3031)">
<path d="M5.6875 17.4999C4.36042 17.4999 3.22656 17.0405 2.28594 16.1218C1.34531 15.203 0.875 14.0801 0.875 12.753C0.875 11.6155 1.21771 10.602 1.90313 9.7124C2.58854 8.82282 3.48542 8.25407 4.59375 8.00615C4.84167 6.95615 5.46146 5.95719 6.45313 5.00928C7.44479 4.06136 8.50208 3.5874 9.625 3.5874C10.1063 3.5874 10.5182 3.75876 10.8609 4.10146C11.2036 4.44417 11.375 4.85615 11.375 5.3374V10.6312L12.775 9.2749L14 10.4999L10.5 13.9999L7 10.4999L8.225 9.2749L9.625 10.6312V5.3374C8.51667 5.54157 7.65625 6.07751 7.04375 6.94521C6.43125 7.81292 6.125 8.70615 6.125 9.6249H5.6875C4.84167 9.6249 4.11979 9.92386 3.52188 10.5218C2.92396 11.1197 2.625 11.8416 2.625 12.6874C2.625 13.5332 2.92396 14.2551 3.52188 14.853C4.11979 15.4509 4.84167 15.7499 5.6875 15.7499H16.1875C16.8 15.7499 17.3177 15.5384 17.7406 15.1155C18.1635 14.6926 18.375 14.1749 18.375 13.5624C18.375 12.9499 18.1635 12.4322 17.7406 12.0093C17.3177 11.5864 16.8 11.3749 16.1875 11.3749H14.875V9.6249C14.875 8.9249 14.7146 8.2723 14.3938 7.66709C14.0729 7.06188 13.65 6.54782 13.125 6.1249V4.09053C14.2042 4.60094 15.0573 5.35563 15.6844 6.35459C16.3115 7.35355 16.625 8.44365 16.625 9.6249C17.6313 9.74157 18.4661 10.1754 19.1297 10.9265C19.7932 11.6775 20.125 12.5562 20.125 13.5624C20.125 14.6562 19.7422 15.5858 18.9766 16.3515C18.2109 17.1171 17.2813 17.4999 16.1875 17.4999H5.6875Z" fill="#929292"/>
</g>
</svg>
