<svg width="21" height="21" viewBox="0 0 21 21" fill="none" xmlns="http://www.w3.org/2000/svg">
<mask id="mask0_311_2181" style="mask-type:alpha" maskUnits="userSpaceOnUse" x="0" y="0" width="21" height="21">
<rect width="21" height="21" fill="#D9D9D9"/>
</mask>
<g mask="url(#mask0_311_2181)">
<path d="M5.6875 17.5004C4.36042 17.5004 3.22656 17.041 2.28594 16.1223C1.34531 15.2035 0.875 14.0806 0.875 12.7535C0.875 11.616 1.21771 10.6025 1.90313 9.71289C2.58854 8.82331 3.48542 8.25456 4.59375 8.00664C4.84167 6.95664 5.46146 5.95768 6.45313 5.00977C7.44479 4.06185 8.50208 3.58789 9.625 3.58789C10.1063 3.58789 10.5182 3.75924 10.8609 4.10195C11.2036 4.44466 11.375 4.85664 11.375 5.33789V10.6316L12.775 9.27539L14 10.5004L10.5 14.0004L7 10.5004L8.225 9.27539L9.625 10.6316V5.33789C8.51667 5.54206 7.65625 6.07799 7.04375 6.9457C6.43125 7.81341 6.125 8.70664 6.125 9.62539H5.6875C4.84167 9.62539 4.11979 9.92435 3.52188 10.5223C2.92396 11.1202 2.625 11.8421 2.625 12.6879C2.625 13.5337 2.92396 14.2556 3.52188 14.8535C4.11979 15.4514 4.84167 15.7504 5.6875 15.7504H16.1875C16.8 15.7504 17.3177 15.5389 17.7406 15.116C18.1635 14.6931 18.375 14.1754 18.375 13.5629C18.375 12.9504 18.1635 12.4327 17.7406 12.0098C17.3177 11.5868 16.8 11.3754 16.1875 11.3754H14.875V9.62539C14.875 8.92539 14.7146 8.27279 14.3938 7.66758C14.0729 7.06237 13.65 6.54831 13.125 6.12539V4.09102C14.2042 4.60143 15.0573 5.35612 15.6844 6.35508C16.3115 7.35404 16.625 8.44414 16.625 9.62539C17.6313 9.74206 18.4661 10.1759 19.1297 10.927C19.7932 11.678 20.125 12.5566 20.125 13.5629C20.125 14.6566 19.7422 15.5863 18.9766 16.352C18.2109 17.1176 17.2813 17.5004 16.1875 17.5004H5.6875Z" fill="#929292"/>
</g>
</svg>
