<svg width="30" height="30" viewBox="0 0 30 30" fill="none" xmlns="http://www.w3.org/2000/svg">
<mask id="mask0_307_21" style="mask-type:alpha" maskUnits="userSpaceOnUse" x="0" y="0" width="30" height="30">
<rect width="30" height="30" fill="#D9D9D9"/>
</mask>
<g mask="url(#mask0_307_21)">
<path d="M12.5 28.7515V26.2515H6.25C5.5625 26.2515 4.97396 26.0067 4.48438 25.5171C3.99479 25.0275 3.75 24.439 3.75 23.7515V6.25146C3.75 5.56396 3.99479 4.97542 4.48438 4.48584C4.97396 3.99626 5.5625 3.75146 6.25 3.75146H12.5V1.25146H15V28.7515H12.5ZM6.25 22.5015H12.5V15.0015L6.25 22.5015ZM17.5 26.2515V15.0015L23.75 22.5015V6.25146H17.5V3.75146H23.75C24.4375 3.75146 25.026 3.99626 25.5156 4.48584C26.0052 4.97542 26.25 5.56396 26.25 6.25146V23.7515C26.25 24.439 26.0052 25.0275 25.5156 25.5171C25.026 26.0067 24.4375 26.2515 23.75 26.2515H17.5Z" fill="white"/>
</g>
</svg>
