<svg width="30" height="30" viewBox="0 0 30 30" fill="none" xmlns="http://www.w3.org/2000/svg">
<mask id="mask0_292_2873" style="mask-type:alpha" maskUnits="userSpaceOnUse" x="0" y="0" width="30" height="30">
<rect width="30" height="30" fill="#D9D9D9"/>
</mask>
<g mask="url(#mask0_292_2873)">
<path d="M20 27.5V24.6875C18.8333 24.3125 17.8542 23.6458 17.0625 22.6875C16.2708 21.7292 15.8125 20.625 15.6875 19.375H18.1875C18.3542 20.2708 18.776 21.0156 19.4531 21.6094C20.1302 22.2031 20.9375 22.5 21.875 22.5H25.625C26.1458 22.5 26.5885 22.6823 26.9531 23.0469C27.3177 23.4115 27.5 23.8542 27.5 24.375V27.5H20ZM23.75 21.25C23.0625 21.25 22.474 21.0052 21.9844 20.5156C21.4948 20.026 21.25 19.4375 21.25 18.75C21.25 18.0625 21.4948 17.474 21.9844 16.9844C22.474 16.4948 23.0625 16.25 23.75 16.25C24.4375 16.25 25.026 16.4948 25.5156 16.9844C26.0052 17.474 26.25 18.0625 26.25 18.75C26.25 19.4375 26.0052 20.026 25.5156 20.5156C25.026 21.0052 24.4375 21.25 23.75 21.25ZM11.25 17.5C11.25 14.375 12.3438 11.7188 14.5312 9.53125C16.7188 7.34375 19.375 6.25 22.5 6.25V8.75C20.0625 8.75 17.9948 9.59896 16.2969 11.2969C14.599 12.9948 13.75 15.0625 13.75 17.5H11.25ZM16.25 17.5C16.25 15.7708 16.8594 14.2969 18.0781 13.0781C19.2969 11.8594 20.7708 11.25 22.5 11.25V13.75C21.4583 13.75 20.5729 14.1146 19.8438 14.8438C19.1146 15.5729 18.75 16.4583 18.75 17.5H16.25ZM2.5 13.75V10.625C2.5 10.1042 2.68229 9.66146 3.04688 9.29688C3.41146 8.93229 3.85417 8.75 4.375 8.75H8.125C9.0625 8.75 9.86979 8.45312 10.5469 7.85938C11.224 7.26562 11.6458 6.52083 11.8125 5.625H14.3125C14.1875 6.875 13.7292 7.97917 12.9375 8.9375C12.1458 9.89583 11.1667 10.5625 10 10.9375V13.75H2.5ZM6.25 7.5C5.5625 7.5 4.97396 7.25521 4.48438 6.76562C3.99479 6.27604 3.75 5.6875 3.75 5C3.75 4.3125 3.99479 3.72396 4.48438 3.23438C4.97396 2.74479 5.5625 2.5 6.25 2.5C6.9375 2.5 7.52604 2.74479 8.01562 3.23438C8.50521 3.72396 8.75 4.3125 8.75 5C8.75 5.6875 8.50521 6.27604 8.01562 6.76562C7.52604 7.25521 6.9375 7.5 6.25 7.5Z" fill="white" fill-opacity="0.5"/>
</g>
</svg>
