<svg width="20" height="20" viewBox="0 0 20 20" fill="none" xmlns="http://www.w3.org/2000/svg">
<mask id="mask0_312_2309" style="mask-type:alpha" maskUnits="userSpaceOnUse" x="0" y="0" width="20" height="20">
<rect width="20" height="20" fill="#D9D9D9"/>
</mask>
<g mask="url(#mask0_312_2309)">
<path d="M10.0003 18.3333C8.84755 18.3333 7.76421 18.1146 6.75033 17.6771C5.73644 17.2396 4.85449 16.6458 4.10449 15.8958C3.35449 15.1458 2.76074 14.2639 2.32324 13.25C1.88574 12.2361 1.66699 11.1528 1.66699 10C1.66699 8.41667 2.08019 6.95486 2.90658 5.61458C3.73296 4.27431 4.85449 3.25 6.27116 2.54167C6.28505 2.80556 6.31283 3.07292 6.35449 3.34375C6.39616 3.61458 6.4656 3.93056 6.56283 4.29167C5.56283 4.90278 4.77463 5.71181 4.19824 6.71875C3.62185 7.72569 3.33366 8.81944 3.33366 10C3.33366 11.8611 3.97949 13.4375 5.27116 14.7292C6.56283 16.0208 8.13921 16.6667 10.0003 16.6667C11.8614 16.6667 13.4378 16.0208 14.7295 14.7292C16.0212 13.4375 16.667 11.8611 16.667 10C16.667 8.81944 16.3788 7.72222 15.8024 6.70833C15.226 5.69444 14.4309 4.88194 13.417 4.27083C13.5142 3.90972 13.5837 3.59375 13.6253 3.32292C13.667 3.05208 13.7017 2.79167 13.7295 2.54167C15.1462 3.25 16.2677 4.27083 17.0941 5.60417C17.9205 6.9375 18.3337 8.40278 18.3337 10C18.3337 11.1528 18.1149 12.2361 17.6774 13.25C17.2399 14.2639 16.6462 15.1458 15.8962 15.8958C15.1462 16.6458 14.2642 17.2396 13.2503 17.6771C12.2364 18.1146 11.1531 18.3333 10.0003 18.3333ZM10.0003 15C8.61144 15 7.43088 14.5139 6.45866 13.5417C5.48644 12.5694 5.00033 11.3889 5.00033 10C5.00033 9.19444 5.17741 8.4375 5.53158 7.72917C5.88574 7.02083 6.38921 6.43056 7.04199 5.95833C7.11144 6.16667 7.18783 6.40625 7.27116 6.67708C7.35449 6.94792 7.4656 7.28472 7.60449 7.6875C7.29894 8.00695 7.0663 8.36111 6.90658 8.75C6.74685 9.13889 6.66699 9.55556 6.66699 10C6.66699 10.9167 6.99338 11.7014 7.64616 12.3542C8.29894 13.0069 9.08366 13.3333 10.0003 13.3333C10.917 13.3333 11.7017 13.0069 12.3545 12.3542C13.0073 11.7014 13.3337 10.9167 13.3337 10C13.3337 9.55556 13.2538 9.13889 13.0941 8.75C12.9344 8.36111 12.7017 8.00695 12.3962 7.6875C12.5073 7.35417 12.608 7.04514 12.6982 6.76042C12.7885 6.47569 12.8684 6.20833 12.9378 5.95833C13.5906 6.43056 14.0975 7.02083 14.4587 7.72917C14.8198 8.4375 15.0003 9.19444 15.0003 10C15.0003 11.3889 14.5142 12.5694 13.542 13.5417C12.5698 14.5139 11.3892 15 10.0003 15ZM9.16699 7.08333C8.6531 5.52778 8.3163 4.43403 8.15658 3.80208C7.99685 3.17014 7.91699 2.59722 7.91699 2.08333C7.91699 1.5 8.11838 1.00694 8.52116 0.604167C8.92394 0.201389 9.41699 0 10.0003 0C10.5837 0 11.0767 0.201389 11.4795 0.604167C11.8823 1.00694 12.0837 1.5 12.0837 2.08333C12.0837 2.59722 12.0038 3.17014 11.8441 3.80208C11.6844 4.43403 11.3475 5.52778 10.8337 7.08333H9.16699ZM10.0003 11.6667C9.54199 11.6667 9.14963 11.5035 8.82324 11.1771C8.49685 10.8507 8.33366 10.4583 8.33366 10C8.33366 9.54167 8.49685 9.14931 8.82324 8.82292C9.14963 8.49653 9.54199 8.33333 10.0003 8.33333C10.4587 8.33333 10.851 8.49653 11.1774 8.82292C11.5038 9.14931 11.667 9.54167 11.667 10C11.667 10.4583 11.5038 10.8507 11.1774 11.1771C10.851 11.5035 10.4587 11.6667 10.0003 11.6667Z" fill="white"/>
</g>
</svg>
