<svg width="30" height="30" viewBox="0 0 30 30" fill="none" xmlns="http://www.w3.org/2000/svg">
<mask id="mask0_292_3084" style="mask-type:alpha" maskUnits="userSpaceOnUse" x="0" y="0" width="30" height="30">
<rect width="30" height="30" fill="#D9D9D9"/>
</mask>
<g mask="url(#mask0_292_3084)">
<path d="M9.375 7.5C8.85417 7.5 8.41146 7.68229 8.04688 8.04687C7.68229 8.41146 7.5 8.85417 7.5 9.375C7.5 9.89583 7.68229 10.3385 8.04688 10.7031C8.41146 11.0677 8.85417 11.25 9.375 11.25C9.89583 11.25 10.3385 11.0677 10.7031 10.7031C11.0677 10.3385 11.25 9.89583 11.25 9.375C11.25 8.85417 11.0677 8.41146 10.7031 8.04687C10.3385 7.68229 9.89583 7.5 9.375 7.5ZM9.375 20C8.85417 20 8.41146 20.1823 8.04688 20.5469C7.68229 20.9115 7.5 21.3542 7.5 21.875C7.5 22.3958 7.68229 22.8385 8.04688 23.2031C8.41146 23.5677 8.85417 23.75 9.375 23.75C9.89583 23.75 10.3385 23.5677 10.7031 23.2031C11.0677 22.8385 11.25 22.3958 11.25 21.875C11.25 21.3542 11.0677 20.9115 10.7031 20.5469C10.3385 20.1823 9.89583 20 9.375 20ZM5 3.75H25C25.3542 3.75 25.651 3.86979 25.8906 4.10937C26.1302 4.34896 26.25 4.64583 26.25 5V13.75C26.25 14.1042 26.1302 14.401 25.8906 14.6406C25.651 14.8802 25.3542 15 25 15H5C4.64583 15 4.34896 14.8802 4.10938 14.6406C3.86979 14.401 3.75 14.1042 3.75 13.75V5C3.75 4.64583 3.86979 4.34896 4.10938 4.10937C4.34896 3.86979 4.64583 3.75 5 3.75ZM6.25 6.25V12.5H23.75V6.25H6.25ZM5 16.25H25C25.3542 16.25 25.651 16.3698 25.8906 16.6094C26.1302 16.849 26.25 17.1458 26.25 17.5V26.25C26.25 26.6042 26.1302 26.901 25.8906 27.1406C25.651 27.3802 25.3542 27.5 25 27.5H5C4.64583 27.5 4.34896 27.3802 4.10938 27.1406C3.86979 26.901 3.75 26.6042 3.75 26.25V17.5C3.75 17.1458 3.86979 16.849 4.10938 16.6094C4.34896 16.3698 4.64583 16.25 5 16.25ZM6.25 18.75V25H23.75V18.75H6.25Z" fill="white"/>
</g>
</svg>
