<svg width="28" height="28" viewBox="0 0 28 28" fill="none" xmlns="http://www.w3.org/2000/svg">
<mask id="mask0_292_2901" style="mask-type:alpha" maskUnits="userSpaceOnUse" x="0" y="0" width="28" height="28">
<rect width="28" height="28" fill="#D9D9D9"/>
</mask>
<g mask="url(#mask0_292_2901)">
<path d="M12.8623 25.6083C9.86786 25.3166 7.36925 24.0624 5.36647 21.8458C3.36369 19.6291 2.3623 17.0138 2.3623 13.9999C2.3623 10.986 3.36369 8.37077 5.36647 6.1541C7.36925 3.93744 9.86786 2.68327 12.8623 2.3916V5.8916C10.8401 6.16382 9.16786 7.06799 7.84564 8.6041C6.52342 10.1402 5.8623 11.9388 5.8623 13.9999C5.8623 16.061 6.52342 17.8597 7.84564 19.3958C9.16786 20.9319 10.8401 21.836 12.8623 22.1083V25.6083ZM15.1956 25.6083V22.1083C17.0234 21.8749 18.5692 21.1166 19.8331 19.8333C21.097 18.5499 21.8651 16.9944 22.1373 15.1666H25.6373C25.3651 17.9472 24.2519 20.3145 22.2977 22.2687C20.3436 24.2229 17.9762 25.336 15.1956 25.6083ZM22.1373 12.8333C21.8651 11.0055 21.097 9.44993 19.8331 8.1666C18.5692 6.88327 17.0234 6.12493 15.1956 5.8916V2.3916C17.9762 2.66382 20.3436 3.77702 22.2977 5.73118C24.2519 7.68535 25.3651 10.0527 25.6373 12.8333H22.1373Z" fill="white"/>
</g>
</svg>
