<svg width="25" height="25" viewBox="0 0 25 25" fill="none" xmlns="http://www.w3.org/2000/svg">
<path d="M12.5 25C10.7708 25 9.14583 24.6719 7.625 24.0156C6.10417 23.3594 4.78125 22.4688 3.65625 21.3438C2.53125 20.2188 1.64063 18.8958 0.984375 17.375C0.328125 15.8542 0 14.2292 0 12.5C0 10.7708 0.328125 9.14583 0.984375 7.625C1.64063 6.10417 2.53125 4.78125 3.65625 3.65625C4.78125 2.53125 6.10417 1.64063 7.625 0.984375C9.14583 0.328125 10.7708 0 12.5 0H22.5C23.1875 0 23.776 0.244792 24.2656 0.734375C24.7552 1.22396 25 1.8125 25 2.5V12.5C25 14.2292 24.6719 15.8542 24.0156 17.375C23.3594 18.8958 22.4688 20.2188 21.3438 21.3438C20.2188 22.4688 18.8958 23.3594 17.375 24.0156C15.8542 24.6719 14.2292 25 12.5 25ZM12.5 22.5C15.2917 22.5 17.6563 21.5313 19.5938 19.5938C21.5313 17.6563 22.5 15.2917 22.5 12.5V2.5H12.5C9.70833 2.5 7.34375 3.46875 5.40625 5.40625C3.46875 7.34375 2.5 9.70833 2.5 12.5C2.5 15.2917 3.46875 17.6563 5.40625 19.5938C7.34375 21.5313 9.70833 22.5 12.5 22.5ZM6.25 16.25H15V13.75L18.75 16.25V8.75L15 11.25V8.75H6.25V16.25Z" fill="white"/>
</svg>
