<svg width="20" height="20" viewBox="0 0 20 20" fill="none" xmlns="http://www.w3.org/2000/svg">
<mask id="mask0_312_2297" style="mask-type:alpha" maskUnits="userSpaceOnUse" x="0" y="0" width="20" height="20">
<rect width="20" height="20" fill="#D9D9D9"/>
</mask>
<g mask="url(#mask0_312_2297)">
<path d="M1.66699 11.667V5.83366H3.33366V11.667H1.66699ZM16.667 14.167V8.33366H18.3337V14.167H16.667ZM6.66699 18.3337C6.20866 18.3337 5.8163 18.1705 5.48991 17.8441C5.16352 17.5177 5.00033 17.1253 5.00033 16.667V3.33366C5.00033 2.87533 5.16352 2.48296 5.48991 2.15658C5.8163 1.83019 6.20866 1.66699 6.66699 1.66699H13.3337C13.792 1.66699 14.1844 1.83019 14.5107 2.15658C14.8371 2.48296 15.0003 2.87533 15.0003 3.33366V16.667C15.0003 17.1253 14.8371 17.5177 14.5107 17.8441C14.1844 18.1705 13.792 18.3337 13.3337 18.3337H6.66699ZM13.3337 15.8337H6.66699V16.667H13.3337V15.8337ZM6.66699 4.16699H13.3337V3.33366H6.66699V4.16699ZM6.66699 14.167H13.3337V5.83366H6.66699V14.167Z" fill="white"/>
</g>
</svg>
