<svg width="29" height="29" viewBox="0 0 29 29" fill="none" xmlns="http://www.w3.org/2000/svg">
<mask id="mask0_292_2722" style="mask-type:alpha" maskUnits="userSpaceOnUse" x="0" y="0" width="29" height="29">
<rect width="29" height="29" fill="#D9D9D9"/>
</mask>
<g mask="url(#mask0_292_2722)">
<path d="M19.3317 25.375C18.6671 25.375 18.0982 25.1384 17.6249 24.6651C17.1517 24.1918 16.915 23.6229 16.915 22.9583V18.125C16.915 17.4604 17.1517 16.8915 17.6249 16.4182C18.0982 15.945 18.6671 15.7083 19.3317 15.7083H24.165C24.8296 15.7083 25.3986 15.945 25.8718 16.4182C26.3451 16.8915 26.5817 17.4604 26.5817 18.125V22.9583C26.5817 23.6229 26.3451 24.1918 25.8718 24.6651C25.3986 25.1384 24.8296 25.375 24.165 25.375H19.3317ZM19.3317 22.9583H24.165V18.125H19.3317V22.9583ZM2.41504 21.75V19.3333H13.29V21.75H2.41504ZM19.3317 13.2917C18.6671 13.2917 18.0982 13.055 17.6249 12.5818C17.1517 12.1085 16.915 11.5396 16.915 10.875V6.04167C16.915 5.37708 17.1517 4.80816 17.6249 4.3349C18.0982 3.86163 18.6671 3.625 19.3317 3.625H24.165C24.8296 3.625 25.3986 3.86163 25.8718 4.3349C26.3451 4.80816 26.5817 5.37708 26.5817 6.04167V10.875C26.5817 11.5396 26.3451 12.1085 25.8718 12.5818C25.3986 13.055 24.8296 13.2917 24.165 13.2917H19.3317ZM19.3317 10.875H24.165V6.04167H19.3317V10.875ZM2.41504 9.66667V7.25H13.29V9.66667H2.41504Z" fill="#868788"/>
</g>
</svg>
