<svg width="48" height="19" viewBox="0 0 48 19" fill="none" xmlns="http://www.w3.org/2000/svg">
<path fill-rule="evenodd" clip-rule="evenodd" d="M15.8284 13.0355L12.6464 9.85355C12.4511 9.65829 12.4511 9.34171 12.6464 9.14645L15.8284 5.96447C16.0236 5.7692 16.3402 5.7692 16.5355 5.96447C16.7308 6.15973 16.7308 6.47631 16.5355 6.67157L14.2071 9H47.041V10H14.2071L16.5355 12.3284C16.7308 12.5237 16.7308 12.8403 16.5355 13.0355C16.3402 13.2308 16.0236 13.2308 15.8284 13.0355ZM9.5 1C4.80558 1 1 4.80558 1 9.5C1 14.1944 4.80558 18 9.5 18C14.1944 18 18 14.1944 18 9.5C18 4.80558 14.1944 1 9.5 1ZM9.5 0C4.2533 0 0 4.25329 0 9.5C0 14.7467 4.2533 19 9.5 19C14.7467 19 19 14.7467 19 9.5C19 4.25329 14.7467 0 9.5 0Z" fill="white"/>
</svg>
