<svg width="48" height="19" viewBox="0 0 48 19" fill="none" xmlns="http://www.w3.org/2000/svg">
<path fill-rule="evenodd" clip-rule="evenodd" d="M31.2536 5.96447L34.4356 9.14645C34.6309 9.34171 34.6309 9.65829 34.4356 9.85355L31.2536 13.0355C31.0584 13.2308 30.7418 13.2308 30.5465 13.0355C30.3513 12.8403 30.3513 12.5237 30.5465 12.3284L32.875 10H0.0410156V9H32.875L30.5465 6.67157C30.3513 6.47631 30.3513 6.15973 30.5465 5.96447C30.7418 5.7692 31.0584 5.7692 31.2536 5.96447ZM37.541 18C42.2354 18 46.041 14.1944 46.041 9.5C46.041 4.80558 42.2354 1 37.541 1C32.8466 1 29.041 4.80558 29.041 9.5C29.041 14.1944 32.8466 18 37.541 18ZM37.541 19C42.7877 19 47.041 14.7467 47.041 9.5C47.041 4.25329 42.7877 0 37.541 0C32.2943 0 28.041 4.25329 28.041 9.5C28.041 14.7467 32.2943 19 37.541 19Z" fill="white"/>
</svg>
