<svg width="30" height="30" viewBox="0 0 30 30" fill="none" xmlns="http://www.w3.org/2000/svg">
<mask id="mask0_297_5754" style="mask-type:alpha" maskUnits="userSpaceOnUse" x="0" y="0" width="30" height="30">
<rect width="30" height="30" fill="#D9D9D9"/>
</mask>
<g mask="url(#mask0_297_5754)">
<path d="M4.99902 18.749H9.37402C9.91569 18.749 10.3636 18.5719 10.7178 18.2178C11.0719 17.8636 11.249 17.4157 11.249 16.874V13.124C11.249 12.5824 11.0719 12.1344 10.7178 11.7803C10.3636 11.4261 9.91569 11.249 9.37402 11.249H4.99902V18.749ZM6.87402 16.874V13.124H9.37402V16.874H6.87402ZM13.874 18.749H15.749L17.9365 11.249H16.0615L14.8115 15.5615L13.5615 11.249H11.6865L13.874 18.749ZM18.749 18.749H20.624V16.249H22.0615L23.124 18.749H24.999L23.874 16.124C24.1865 15.9574 24.4521 15.7178 24.6709 15.4053C24.8896 15.0928 24.999 14.749 24.999 14.374V13.124C24.999 12.5824 24.8219 12.1344 24.4678 11.7803C24.1136 11.4261 23.6657 11.249 23.124 11.249H18.749V18.749ZM20.624 14.374V13.124H23.124V14.374H20.624ZM3.74902 24.999C3.06152 24.999 2.47298 24.7542 1.9834 24.2646C1.49382 23.7751 1.24902 23.1865 1.24902 22.499V7.49902C1.24902 6.81152 1.49382 6.22298 1.9834 5.7334C2.47298 5.24382 3.06152 4.99902 3.74902 4.99902H26.249C26.9365 4.99902 27.5251 5.24382 28.0146 5.7334C28.5042 6.22298 28.749 6.81152 28.749 7.49902V22.499C28.749 23.1865 28.5042 23.7751 28.0146 24.2646C27.5251 24.7542 26.9365 24.999 26.249 24.999H3.74902ZM3.74902 22.499H26.249V7.49902H3.74902V22.499Z" fill="white"/>
</g>
</svg>
