<svg width="30" height="30" viewBox="0 0 30 30" fill="none" xmlns="http://www.w3.org/2000/svg">
<mask id="mask0_292_3156" style="mask-type:alpha" maskUnits="userSpaceOnUse" x="0" y="0" width="30" height="30">
<rect x="30" width="30" height="30" transform="rotate(90 30 0)" fill="#D9D9D9"/>
</mask>
<g mask="url(#mask0_292_3156)">
<path d="M2.5 10L7.5 5L12.5 10L10.75 11.7813L8.75 9.78125L8.75 20.2188L10.75 18.25L12.5 20L7.5 25L2.5 20L4.25 18.2187L6.25 20.2188L6.25 9.78125L4.25 11.75L2.5 10ZM15 6.25L27.5 6.25V8.75L15 8.75V6.25ZM15 13.75L27.5 13.75V16.25H15V13.75ZM15 21.25L27.5 21.25V23.75L15 23.75V21.25Z" fill="white"/>
</g>
</svg>
