<svg width="30" height="30" viewBox="0 0 30 30" fill="none" xmlns="http://www.w3.org/2000/svg">
<mask id="mask0_297_5248" style="mask-type:alpha" maskUnits="userSpaceOnUse" x="0" y="0" width="30" height="30">
<rect width="30" height="30" fill="#D9D9D9"/>
</mask>
<g mask="url(#mask0_297_5248)">
<path d="M8.74805 22.5007C8.39388 22.5007 8.09701 22.3809 7.85742 22.1414C7.61784 21.9018 7.49805 21.6049 7.49805 21.2507V18.7507H23.7481V7.50073H26.2481C26.6022 7.50073 26.8991 7.62052 27.1387 7.86011C27.3783 8.09969 27.4981 8.39657 27.4981 8.75073V27.5007L22.4981 22.5007H8.74805ZM2.49805 21.2507V3.75073C2.49805 3.39657 2.61784 3.09969 2.85742 2.86011C3.09701 2.62052 3.39388 2.50073 3.74805 2.50073H19.9981C20.3522 2.50073 20.6491 2.62052 20.8887 2.86011C21.1283 3.09969 21.2481 3.39657 21.2481 3.75073V15.0007C21.2481 15.3549 21.1283 15.6518 20.8887 15.8914C20.6491 16.1309 20.3522 16.2507 19.9981 16.2507H7.49805L2.49805 21.2507ZM18.7481 13.7507V5.00073H4.99805V13.7507H18.7481Z" fill="white"/>
</g>
</svg>
