<svg width="79" height="43" viewBox="0 0 79 43" fill="none" xmlns="http://www.w3.org/2000/svg">
<path d="M0 21.5C0 9.62588 9.62588 0 21.5 0H57.5C69.3741 0 79 9.62588 79 21.5V21.5C79 33.3741 69.3741 43 57.5 43H21.5C9.62588 43 0 33.3741 0 21.5V21.5Z" fill="#383838"/>
<path d="M27.7838 20.7836C28.1548 20.4126 28.1548 19.8111 27.7838 19.4401L21.7381 13.3943C21.3671 13.0233 20.7656 13.0233 20.3946 13.3943C20.0236 13.7653 20.0236 14.3668 20.3946 14.7378L25.7686 20.1118L20.3946 25.4858C20.0236 25.8568 20.0236 26.4583 20.3946 26.8293C20.7656 27.2003 21.3671 27.2003 21.7381 26.8293L27.7838 20.7836ZM26.8887 21.0618H27.1121V19.1618H26.8887V21.0618Z" fill="white"/>
</svg>
