<svg width="72" height="43" viewBox="0 0 72 43" fill="none" xmlns="http://www.w3.org/2000/svg">
<path d="M0 21.5C0 9.62588 9.62588 0 21.5 0H50.5C62.3741 0 72 9.62588 72 21.5V21.5C72 33.3741 62.3741 43 50.5 43H21.5C9.62588 43 0 33.3741 0 21.5V21.5Z" fill="#383838"/>
<path d="M44.2171 19.4401C43.8461 19.8111 43.8461 20.4126 44.2171 20.7836L50.2629 26.8293C50.6339 27.2003 51.2354 27.2003 51.6064 26.8293C51.9774 26.4583 51.9774 25.8568 51.6064 25.4858L46.2324 20.1118L51.6064 14.7378C51.9774 14.3668 51.9774 13.7653 51.6064 13.3943C51.2354 13.0233 50.6339 13.0233 50.2629 13.3943L44.2171 19.4401ZM45.1123 19.1618H44.8889V21.0618H45.1123V19.1618Z" fill="white"/>
</svg>
