<svg width="30" height="30" viewBox="0 0 30 30" fill="none" xmlns="http://www.w3.org/2000/svg">
<mask id="mask0_297_5242" style="mask-type:alpha" maskUnits="userSpaceOnUse" x="0" y="0" width="30" height="30">
<rect width="30" height="30" fill="#D9D9D9"/>
</mask>
<g mask="url(#mask0_297_5242)">
<path d="M3.75195 23.7507C3.06445 23.7507 2.47591 23.5059 1.98633 23.0164C1.49674 22.5268 1.25195 21.9382 1.25195 21.2507V8.75073C1.25195 8.06323 1.49674 7.47469 1.98633 6.98511C2.47591 6.49552 3.06445 6.25073 3.75195 6.25073H16.252C16.9395 6.25073 17.528 6.49552 18.0176 6.98511C18.5072 7.47469 18.752 8.06323 18.752 8.75073V21.2507C18.752 21.9382 18.5072 22.5268 18.0176 23.0164C17.528 23.5059 16.9395 23.7507 16.252 23.7507H3.75195ZM22.502 13.7507C22.1478 13.7507 21.8509 13.6309 21.6113 13.3914C21.3717 13.1518 21.252 12.8549 21.252 12.5007V7.50073C21.252 7.14657 21.3717 6.84969 21.6113 6.61011C21.8509 6.37052 22.1478 6.25073 22.502 6.25073H27.502C27.8561 6.25073 28.153 6.37052 28.3926 6.61011C28.6322 6.84969 28.752 7.14657 28.752 7.50073V12.5007C28.752 12.8549 28.6322 13.1518 28.3926 13.3914C28.153 13.6309 27.8561 13.7507 27.502 13.7507H22.502ZM23.752 11.2507H26.252V8.75073H23.752V11.2507ZM3.75195 21.2507H16.252V8.75073H3.75195V21.2507ZM5.00195 18.7507H15.002L11.7207 14.3757L9.37695 17.5007L7.6582 15.2195L5.00195 18.7507ZM22.502 23.7507C22.1478 23.7507 21.8509 23.6309 21.6113 23.3914C21.3717 23.1518 21.252 22.8549 21.252 22.5007V17.5007C21.252 17.1466 21.3717 16.8497 21.6113 16.6101C21.8509 16.3705 22.1478 16.2507 22.502 16.2507H27.502C27.8561 16.2507 28.153 16.3705 28.3926 16.6101C28.6322 16.8497 28.752 17.1466 28.752 17.5007V22.5007C28.752 22.8549 28.6322 23.1518 28.3926 23.3914C28.153 23.6309 27.8561 23.7507 27.502 23.7507H22.502ZM23.752 21.2507H26.252V18.7507H23.752V21.2507Z" fill="white"/>
</g>
</svg>
