<svg width="30" height="280" viewBox="0 0 30 280" fill="none" xmlns="http://www.w3.org/2000/svg">
<mask id="mask0_312_2521" style="mask-type:alpha" maskUnits="userSpaceOnUse" x="0" y="0" width="30" height="30">
<rect width="30" height="30" fill="#D9D9D9"/>
</mask>
<g mask="url(#mask0_312_2521)">
<path d="M7.5 24.6875C5.33333 24.125 3.54167 22.9583 2.125 21.1875C0.708333 19.4167 0 17.3542 0 15C0 12.6458 0.708333 10.5833 2.125 8.8125C3.54167 7.04167 5.33333 5.875 7.5 5.3125V7.9375C6.02083 8.4375 4.81771 9.33333 3.89062 10.625C2.96354 11.9167 2.5 13.375 2.5 15C2.5 16.625 2.96354 18.0833 3.89062 19.375C4.81771 20.6667 6.02083 21.5625 7.5 22.0625V24.6875ZM17.5 25C14.7292 25 12.3698 24.026 10.4219 22.0781C8.47396 20.1302 7.5 17.7708 7.5 15C7.5 12.2292 8.47396 9.86979 10.4219 7.92188C12.3698 5.97396 14.7292 5 17.5 5C18.875 5 20.1667 5.26042 21.375 5.78125C22.5833 6.30208 23.6458 7.02083 24.5625 7.9375L22.8125 9.6875C22.125 9 21.3281 8.46354 20.4219 8.07813C19.5156 7.69271 18.5417 7.5 17.5 7.5C15.4167 7.5 13.6458 8.22917 12.1875 9.6875C10.7292 11.1458 10 12.9167 10 15C10 17.0833 10.7292 18.8542 12.1875 20.3125C13.6458 21.7708 15.4167 22.5 17.5 22.5C18.5417 22.5 19.5156 22.3073 20.4219 21.9219C21.3281 21.5365 22.125 21 22.8125 20.3125L24.5625 22.0625C23.6458 22.9792 22.5833 23.6979 21.375 24.2188C20.1667 24.7396 18.875 25 17.5 25ZM25 20L23.25 18.25L25.25 16.25H16.25V13.75H25.25L23.25 11.75L25 10L30 15L25 20Z" fill="white"/>
</g>
<mask id="mask1_312_2521" style="mask-type:alpha" maskUnits="userSpaceOnUse" x="0" y="50" width="30" height="30">
<rect y="50" width="30" height="30" fill="#D9D9D9"/>
</mask>
<g mask="url(#mask1_312_2521)">
<path d="M4.96875 74.7507L3.90625 74.3132C3.26042 74.0423 2.82812 73.5736 2.60937 72.9069C2.39062 72.2402 2.42708 71.584 2.71875 70.9382L4.96875 66.0632V74.7507ZM9.96875 77.5007C9.28125 77.5007 8.69271 77.2559 8.20313 76.7663C7.71354 76.2767 7.46875 75.6882 7.46875 75.0007V67.5007L10.7813 76.6882C10.8438 76.834 10.9063 76.9746 10.9688 77.11C11.0313 77.2454 11.1146 77.3757 11.2188 77.5007H9.96875ZM16.4063 77.3756C15.7396 77.6256 15.0938 77.5944 14.4688 77.2819C13.8438 76.9694 13.4063 76.4798 13.1563 75.8131L7.59375 60.5632C7.34375 59.8965 7.36458 59.2454 7.65625 58.61C7.94792 57.9746 8.42708 57.5423 9.09375 57.3132L18.5313 53.8757C19.1979 53.6257 19.8438 53.6569 20.4688 53.9694C21.0938 54.2819 21.5312 54.7715 21.7812 55.4382L27.3437 70.6882C27.5937 71.3548 27.5729 72.0059 27.2813 72.6413C26.9896 73.2767 26.5104 73.709 25.8438 73.9381L16.4063 77.3756ZM13.7188 62.5007C14.0729 62.5007 14.3698 62.3809 14.6094 62.1413C14.849 61.9017 14.9688 61.6048 14.9688 61.2507C14.9688 60.8965 14.849 60.5996 14.6094 60.36C14.3698 60.1204 14.0729 60.0007 13.7188 60.0007C13.3646 60.0007 13.0677 60.1204 12.8281 60.36C12.5885 60.5996 12.4688 60.8965 12.4688 61.2507C12.4688 61.6048 12.5885 61.9017 12.8281 62.1413C13.0677 62.3809 13.3646 62.5007 13.7188 62.5007ZM15.5312 75.0007L24.9688 71.5632L19.4063 56.2507L9.96875 59.6882L15.5312 75.0007Z" fill="white"/>
</g>
<mask id="mask2_312_2521" style="mask-type:alpha" maskUnits="userSpaceOnUse" x="0" y="100" width="30" height="30">
<rect y="100" width="30" height="30" fill="#D9D9D9"/>
</mask>
<g mask="url(#mask2_312_2521)">
<path d="M3.75 123.75C3.0625 123.75 2.47396 123.505 1.98438 123.016C1.49479 122.526 1.25 121.938 1.25 121.25V108.75C1.25 108.062 1.49479 107.474 1.98438 106.984C2.47396 106.495 3.0625 106.25 3.75 106.25H16.25C16.9375 106.25 17.526 106.495 18.0156 106.984C18.5052 107.474 18.75 108.062 18.75 108.75V121.25C18.75 121.938 18.5052 122.526 18.0156 123.016C17.526 123.505 16.9375 123.75 16.25 123.75H3.75ZM3.75 121.25H16.25V108.75H3.75V121.25ZM5 118.75H15L11.75 114.375L9.375 117.5L7.625 115.188L5 118.75ZM21.25 123.75V106.25H23.75V123.75H21.25ZM26.25 123.75V106.25H28.75V123.75H26.25Z" fill="white"/>
</g>
<mask id="mask3_312_2521" style="mask-type:alpha" maskUnits="userSpaceOnUse" x="0" y="150" width="30" height="30">
<rect y="150" width="30" height="30" fill="#D9D9D9"/>
</mask>
<g mask="url(#mask3_312_2521)">
<path d="M8.3125 171.25L12.375 165L11.7344 165.969C11.3073 166.615 10.8438 167.328 10.3438 168.109C9.84375 168.891 9.38021 169.609 8.95312 170.266L8.3125 171.25ZM3.75 173.75L9.375 165L3.75 156.25H18.75C19.1667 156.25 19.5573 156.344 19.9219 156.531C20.2865 156.719 20.5833 156.979 20.8125 157.313L25.8438 164.406C25.2813 164.177 24.7031 164.005 24.1094 163.891C23.5156 163.776 22.9167 163.729 22.3125 163.75L18.75 158.75H8.3125L12.375 165L8.3125 171.25H13.8437C13.7812 171.667 13.75 172.083 13.75 172.5C13.75 172.917 13.7812 173.333 13.8437 173.75H3.75ZM21.5938 175.312L25.9375 171L24.625 169.688L21.5938 172.656L20.375 171.438L19.0625 172.781L21.5938 175.312ZM22.5 178.75C20.7708 178.75 19.2969 178.141 18.0781 176.922C16.8594 175.703 16.25 174.229 16.25 172.5C16.25 170.771 16.8594 169.297 18.0781 168.078C19.2969 166.859 20.7708 166.25 22.5 166.25C24.2292 166.25 25.7031 166.859 26.9219 168.078C28.1406 169.297 28.75 170.771 28.75 172.5C28.75 174.229 28.1406 175.703 26.9219 176.922C25.7031 178.141 24.2292 178.75 22.5 178.75Z" fill="white"/>
</g>
<mask id="mask4_312_2521" style="mask-type:alpha" maskUnits="userSpaceOnUse" x="0" y="200" width="30" height="30">
<rect y="200" width="30" height="30" fill="#D9D9D9"/>
</mask>
<g mask="url(#mask4_312_2521)">
<path d="M2.5 205V202.5H27.5V205H2.5ZM2.5 227.5V225H27.5V227.5H2.5ZM8.75 212.5V208.75H21.25V212.5H8.75ZM8.75 221.25V217.5H21.25V221.25H8.75Z" fill="white"/>
</g>
<mask id="mask5_312_2521" style="mask-type:alpha" maskUnits="userSpaceOnUse" x="0" y="250" width="30" height="30">
<rect y="250" width="30" height="30" fill="#D9D9D9"/>
</mask>
<g mask="url(#mask5_312_2521)">
<path d="M17.5 276.25C17.1458 276.25 16.849 276.13 16.6094 275.891C16.3698 275.651 16.25 275.354 16.25 275C16.25 274.646 16.3698 274.349 16.6094 274.109C16.849 273.87 17.1458 273.75 17.5 273.75C18.4792 273.75 19.349 273.557 20.1094 273.172C20.8698 272.786 21.25 272.354 21.25 271.875C21.25 271.583 21.1146 271.313 20.8438 271.063C20.5729 270.813 20.1979 270.583 19.7188 270.375L21.5625 268.531C22.2292 268.927 22.7604 269.396 23.1563 269.937C23.5521 270.479 23.75 271.125 23.75 271.875C23.75 273.25 23.0938 274.323 21.7813 275.094C20.4688 275.865 19.0417 276.25 17.5 276.25ZM5.71875 266.688C5.11458 266.333 4.63542 265.922 4.28125 265.453C3.92708 264.984 3.75 264.417 3.75 263.75C3.75 262.875 4.07292 262.141 4.71875 261.547C5.36458 260.953 6.52083 260.292 8.1875 259.563C9.5 258.958 10.3385 258.536 10.7031 258.297C11.0677 258.057 11.25 257.792 11.25 257.5C11.25 257.167 11.0469 256.875 10.6406 256.625C10.2344 256.375 9.60417 256.25 8.75 256.25C8.22917 256.25 7.79167 256.313 7.4375 256.438C7.08333 256.563 6.76042 256.771 6.46875 257.063C6.23958 257.292 5.95833 257.427 5.625 257.469C5.29167 257.51 4.98958 257.417 4.71875 257.188C4.44792 256.979 4.29167 256.708 4.25 256.375C4.20833 256.042 4.30208 255.74 4.53125 255.469C4.92708 254.99 5.49479 254.583 6.23438 254.25C6.97396 253.917 7.8125 253.75 8.75 253.75C10.25 253.75 11.4583 254.089 12.375 254.766C13.2917 255.443 13.75 256.354 13.75 257.5C13.75 258.313 13.4479 259.042 12.8438 259.688C12.2396 260.333 11.0208 261.052 9.1875 261.844C7.97917 262.365 7.1875 262.75 6.8125 263C6.4375 263.25 6.25 263.5 6.25 263.75C6.25 263.938 6.36979 264.12 6.60938 264.297C6.84896 264.474 7.17708 264.646 7.59375 264.813L5.71875 266.688ZM23.5625 263L18.25 257.688L19.5625 256.375C20.0625 255.875 20.6615 255.625 21.3594 255.625C22.0573 255.625 22.6458 255.875 23.125 256.375L24.875 258.125C25.375 258.604 25.625 259.193 25.625 259.891C25.625 260.589 25.375 261.187 24.875 261.687L23.5625 263ZM7.5 273.75H9.25L18.25 264.75L16.5 263L7.5 272V273.75ZM5 276.25V270.938L16.5 259.438L21.8125 264.75L10.3125 276.25H5Z" fill="white"/>
</g>
</svg>
