<svg width="164" height="88" viewBox="0 0 164 88" fill="none" xmlns="http://www.w3.org/2000/svg">
<circle cx="1.5" cy="1.5" r="1.5" fill="#29243D"/>
<circle cx="24.5" cy="1.5" r="1.5" fill="#29243D"/>
<circle cx="47.5" cy="1.5" r="1.5" fill="#29243D"/>
<circle cx="70.5" cy="1.5" r="1.5" fill="#29243D"/>
<circle cx="93.5" cy="1.5" r="1.5" fill="#29243D"/>
<circle cx="116.5" cy="1.5" r="1.5" fill="#29243D"/>
<circle cx="139.5" cy="1.5" r="1.5" fill="#29243D"/>
<circle cx="162.5" cy="1.5" r="1.5" fill="#29243D"/>
<circle cx="139.5" cy="18.5" r="1.5" fill="#29243D"/>
<circle cx="162.5" cy="18.5" r="1.5" fill="#29243D"/>
<circle cx="93.5" cy="18.5" r="1.5" fill="#29243D"/>
<circle cx="116.5" cy="18.5" r="1.5" fill="#29243D"/>
<circle cx="47.5" cy="18.5" r="1.5" fill="#29243D"/>
<circle cx="70.5" cy="18.5" r="1.5" fill="#29243D"/>
<circle cx="1.5" cy="18.5" r="1.5" fill="#29243D"/>
<circle cx="24.5" cy="18.5" r="1.5" fill="#29243D"/>
<circle cx="1.5" cy="35.5" r="1.5" fill="#29243D"/>
<circle cx="24.5" cy="35.5" r="1.5" fill="#29243D"/>
<circle cx="47.5" cy="35.5" r="1.5" fill="#29243D"/>
<circle cx="70.5" cy="35.5" r="1.5" fill="#29243D"/>
<circle cx="93.5" cy="35.5" r="1.5" fill="#29243D"/>
<circle cx="116.5" cy="35.5" r="1.5" fill="#29243D"/>
<circle cx="139.5" cy="35.5" r="1.5" fill="#29243D"/>
<circle cx="162.5" cy="35.5" r="1.5" fill="#29243D"/>
<circle cx="1.5" cy="52.5" r="1.5" fill="#29243D"/>
<circle cx="24.5" cy="52.5" r="1.5" fill="#29243D"/>
<circle cx="47.5" cy="52.5" r="1.5" fill="#29243D"/>
<circle cx="70.5" cy="52.5" r="1.5" fill="#29243D"/>
<circle cx="93.5" cy="52.5" r="1.5" fill="#29243D"/>
<circle cx="116.5" cy="52.5" r="1.5" fill="#29243D"/>
<circle cx="139.5" cy="52.5" r="1.5" fill="#29243D"/>
<circle cx="162.5" cy="52.5" r="1.5" fill="#29243D"/>
<circle cx="1.5" cy="69.5" r="1.5" fill="#29243D"/>
<circle cx="24.5" cy="69.5" r="1.5" fill="#29243D"/>
<circle cx="47.5" cy="69.5" r="1.5" fill="#29243D"/>
<circle cx="70.5" cy="69.5" r="1.5" fill="#29243D"/>
<circle cx="93.5" cy="69.5" r="1.5" fill="#29243D"/>
<circle cx="116.5" cy="69.5" r="1.5" fill="#29243D"/>
<circle cx="139.5" cy="69.5" r="1.5" fill="#29243D"/>
<circle cx="162.5" cy="69.5" r="1.5" fill="#29243D"/>
<circle cx="1.5" cy="86.5" r="1.5" fill="#29243D"/>
<circle cx="24.5" cy="86.5" r="1.5" fill="#29243D"/>
<circle cx="47.5" cy="86.5" r="1.5" fill="#29243D"/>
<circle cx="70.5" cy="86.5" r="1.5" fill="#29243D"/>
<circle cx="93.5" cy="86.5" r="1.5" fill="#29243D"/>
<circle cx="116.5" cy="86.5" r="1.5" fill="#29243D"/>
<circle cx="139.5" cy="86.5" r="1.5" fill="#29243D"/>
<circle cx="162.5" cy="86.5" r="1.5" fill="#29243D"/>
</svg>
