<svg width="14" height="74" viewBox="0 0 14 74" fill="none" xmlns="http://www.w3.org/2000/svg">
<mask id="mask0_311_1646" style="mask-type:alpha" maskUnits="userSpaceOnUse" x="0" y="0" width="13" height="24">
<rect width="13" height="24" fill="#D9D9D9"/>
</mask>
<g mask="url(#mask0_311_1646)">
<path d="M7 19C6.56 19 6.18333 18.8531 5.87 18.5594C5.55667 18.2656 5.4 17.9125 5.4 17.5H8.6C8.6 17.9125 8.44333 18.2656 8.13 18.5594C7.81667 18.8531 7.44 19 7 19ZM3.8 16.75V15.25H10.2V16.75H3.8ZM4 14.5C3.08 13.9875 2.35 13.3 1.81 12.4375C1.27 11.575 1 10.6375 1 9.625C1 8.0625 1.58333 6.73438 2.75 5.64062C3.91667 4.54687 5.33333 4 7 4C8.66667 4 10.0833 4.54687 11.25 5.64062C12.4167 6.73438 13 8.0625 13 9.625C13 10.6375 12.73 11.575 12.19 12.4375C11.65 13.3 10.92 13.9875 10 14.5H4ZM4.48 13H9.52C10.12 12.6 10.5833 12.1063 10.91 11.5188C11.2367 10.9313 11.4 10.3 11.4 9.625C11.4 8.475 10.9733 7.5 10.12 6.7C9.26667 5.9 8.22667 5.5 7 5.5C5.77333 5.5 4.73333 5.9 3.88 6.7C3.02667 7.5 2.6 8.475 2.6 9.625C2.6 10.3 2.76333 10.9313 3.09 11.5188C3.41667 12.1063 3.88 12.6 4.48 13Z" fill="#525252"/>
</g>
<mask id="mask1_311_1646" style="mask-type:alpha" maskUnits="userSpaceOnUse" x="1" y="50" width="13" height="24">
<rect x="1" y="50" width="13" height="24" fill="#D9D9D9"/>
</mask>
<g mask="url(#mask1_311_1646)">
<path d="M8 69C7.56 69 7.18333 68.8531 6.87 68.5594C6.55667 68.2656 6.4 67.9125 6.4 67.5H9.6C9.6 67.9125 9.44333 68.2656 9.13 68.5594C8.81667 68.8531 8.44 69 8 69ZM4.8 66.75V65.25H11.2V66.75H4.8ZM5 64.5C4.08 63.9875 3.35 63.3 2.81 62.4375C2.27 61.575 2 60.6375 2 59.625C2 58.0625 2.58333 56.7344 3.75 55.6406C4.91667 54.5469 6.33333 54 8 54C9.66667 54 11.0833 54.5469 12.25 55.6406C13.4167 56.7344 14 58.0625 14 59.625C14 60.6375 13.73 61.575 13.19 62.4375C12.65 63.3 11.92 63.9875 11 64.5H5ZM5.48 63H10.52C11.12 62.6 11.5833 62.1063 11.91 61.5188C12.2367 60.9313 12.4 60.3 12.4 59.625C12.4 58.475 11.9733 57.5 11.12 56.7C10.2667 55.9 9.22667 55.5 8 55.5C6.77333 55.5 5.73333 55.9 4.88 56.7C4.02667 57.5 3.6 58.475 3.6 59.625C3.6 60.3 3.76333 60.9313 4.09 61.5188C4.41667 62.1063 4.88 62.6 5.48 63Z" fill="#525252"/>
</g>
</svg>
