<svg width="30" height="815" viewBox="0 0 30 815" fill="none" xmlns="http://www.w3.org/2000/svg">
<mask id="mask0_307_1222" style="mask-type:alpha" maskUnits="userSpaceOnUse" x="0" y="0" width="30" height="30">
<rect width="30" height="30" fill="#D9D9D9"/>
</mask>
<g mask="url(#mask0_307_1222)">
<path d="M7.0625 12.5335L9.5 13.5648C9.79167 12.9814 10.0938 12.4189 10.4062 11.8773C10.7188 11.3356 11.0625 10.7939 11.4375 10.2523L9.6875 9.90852L7.0625 12.5335ZM11.5 15.1273L15.0625 18.6585C15.9375 18.3252 16.875 17.8148 17.875 17.1273C18.875 16.4398 19.8125 15.6585 20.6875 14.7835C22.1458 13.3252 23.2865 11.7054 24.1094 9.92414C24.9323 8.14289 25.2917 6.50227 25.1875 5.00227C23.6875 4.8981 22.0417 5.25748 20.25 6.08039C18.4583 6.90331 16.8333 8.04393 15.375 9.50227C14.5 10.3773 13.7188 11.3148 13.0312 12.3148C12.3438 13.3148 11.8333 14.2523 11.5 15.1273ZM17.0625 13.096C16.5833 12.6168 16.3438 12.0283 16.3438 11.3304C16.3438 10.6325 16.5833 10.0439 17.0625 9.56477C17.5417 9.0856 18.1354 8.84602 18.8438 8.84602C19.5521 8.84602 20.1458 9.0856 20.625 9.56477C21.1042 10.0439 21.3438 10.6325 21.3438 11.3304C21.3438 12.0283 21.1042 12.6168 20.625 13.096C20.1458 13.5752 19.5521 13.8148 18.8438 13.8148C18.1354 13.8148 17.5417 13.5752 17.0625 13.096ZM17.6562 23.1273L20.2812 20.5023L19.9375 18.7523C19.3958 19.1273 18.8542 19.4658 18.3125 19.7679C17.7708 20.07 17.2083 20.3668 16.625 20.6585L17.6562 23.1273ZM27.4375 2.72102C27.8333 5.24185 27.5885 7.69498 26.7031 10.0804C25.8177 12.4658 24.2917 14.7418 22.125 16.9085L22.75 20.0023C22.8333 20.4189 22.8125 20.8252 22.6875 21.221C22.5625 21.6168 22.3542 21.9606 22.0625 22.2523L16.8125 27.5023L14.1875 21.346L8.84375 16.0023L2.6875 13.3773L7.90625 8.12727C8.19792 7.8356 8.54688 7.62727 8.95312 7.50227C9.35938 7.37727 9.77083 7.35643 10.1875 7.43977L13.2812 8.06477C15.4479 5.8981 17.7188 4.36685 20.0938 3.47102C22.4688 2.57518 24.9167 2.32518 27.4375 2.72102ZM4.90625 19.971C5.63542 19.2418 6.52604 18.8721 7.57813 18.8616C8.63021 18.8512 9.52083 19.2106 10.25 19.9398C10.9792 20.6689 11.3385 21.5596 11.3281 22.6116C11.3177 23.6637 10.9479 24.5543 10.2188 25.2835C9.69792 25.8043 8.82812 26.2523 7.60938 26.6273C6.39062 27.0023 4.70833 27.3356 2.5625 27.6273C2.85417 25.4814 3.1875 23.7991 3.5625 22.5804C3.9375 21.3616 4.38542 20.4918 4.90625 19.971ZM6.6875 21.721C6.47917 21.9293 6.27083 22.3096 6.0625 22.8616C5.85417 23.4137 5.70833 23.971 5.625 24.5335C6.1875 24.4502 6.74479 24.3096 7.29688 24.1116C7.84896 23.9137 8.22917 23.7106 8.4375 23.5023C8.6875 23.2523 8.82292 22.9502 8.84375 22.596C8.86458 22.2418 8.75 21.9398 8.5 21.6898C8.25 21.4398 7.94792 21.32 7.59375 21.3304C7.23958 21.3408 6.9375 21.471 6.6875 21.721Z" fill="white"/>
</g>
<mask id="mask1_307_1222" style="mask-type:alpha" maskUnits="userSpaceOnUse" x="0" y="49" width="30" height="30">
<rect y="49" width="30" height="30" fill="#D9D9D9"/>
</mask>
<g mask="url(#mask1_307_1222)">
<path d="M1.24902 75.25V69H3.74902V72.75H7.49902V75.25H1.24902ZM22.499 75.25V72.75H26.249V69H28.749V75.25H22.499ZM4.99902 71.5V56.5H7.49902V71.5H4.99902ZM8.74902 71.5V56.5H9.99902V71.5H8.74902ZM12.499 71.5V56.5H14.999V71.5H12.499ZM16.249 71.5V56.5H19.999V71.5H16.249ZM21.249 71.5V56.5H22.499V71.5H21.249ZM23.749 71.5V56.5H24.999V71.5H23.749ZM1.24902 59V52.75H7.49902V55.25H3.74902V59H1.24902ZM26.249 59V55.25H22.499V52.75H28.749V59H26.249Z" fill="white"/>
</g>
<mask id="mask2_307_1222" style="mask-type:alpha" maskUnits="userSpaceOnUse" x="0" y="98" width="30" height="30">
<rect y="98" width="30" height="30" fill="#D9D9D9"/>
</mask>
<g mask="url(#mask2_307_1222)">
<path d="M15 125.498C13.4375 125.498 11.974 125.201 10.6094 124.607C9.24479 124.014 8.05729 123.212 7.04688 122.201C6.03646 121.191 5.23438 120.003 4.64063 118.639C4.04688 117.274 3.75 115.811 3.75 114.248C3.75 112.686 4.04688 111.222 4.64063 109.857C5.23438 108.493 6.03646 107.305 7.04688 106.295C8.05729 105.285 9.24479 104.482 10.6094 103.889C11.974 103.295 13.4375 102.998 15 102.998C16.5625 102.998 18.026 103.295 19.3906 103.889C20.7552 104.482 21.9427 105.285 22.9531 106.295C23.9635 107.305 24.7656 108.493 25.3594 109.857C25.9531 111.222 26.25 112.686 26.25 114.248C26.25 115.811 25.9531 117.274 25.3594 118.639C24.7656 120.003 23.9635 121.191 22.9531 122.201C21.9427 123.212 20.7552 124.014 19.3906 124.607C18.026 125.201 16.5625 125.498 15 125.498ZM18.5 119.498L20.25 117.748L16.25 113.748V107.998H13.75V114.748L18.5 119.498ZM7 100.936L8.75 102.686L3.4375 107.998L1.6875 106.248L7 100.936ZM23 100.936L28.3125 106.248L26.5625 107.998L21.25 102.686L23 100.936ZM15 122.998C17.4375 122.998 19.5052 122.149 21.2031 120.451C22.901 118.753 23.75 116.686 23.75 114.248C23.75 111.811 22.901 109.743 21.2031 108.045C19.5052 106.347 17.4375 105.498 15 105.498C12.5625 105.498 10.4948 106.347 8.79688 108.045C7.09896 109.743 6.25 111.811 6.25 114.248C6.25 116.686 7.09896 118.753 8.79688 120.451C10.4948 122.149 12.5625 122.998 15 122.998Z" fill="white"/>
</g>
<mask id="mask3_307_1222" style="mask-type:alpha" maskUnits="userSpaceOnUse" x="0" y="147" width="30" height="30">
<rect y="147" width="30" height="30" fill="#D9D9D9"/>
</mask>
<g mask="url(#mask3_307_1222)">
<path d="M4.06406 159.061C3.91823 158.956 3.82969 158.826 3.79844 158.67C3.76719 158.514 3.81406 158.352 3.93906 158.186C5.23073 156.415 6.85052 155.04 8.79844 154.061C10.7464 153.081 12.8245 152.592 15.0328 152.592C17.2411 152.592 19.3245 153.066 21.2828 154.014C23.2411 154.962 24.8766 156.331 26.1891 158.123C26.3349 158.311 26.3818 158.477 26.3297 158.623C26.2776 158.769 26.1891 158.894 26.0641 158.998C25.9391 159.102 25.7932 159.149 25.6266 159.139C25.4599 159.128 25.3141 159.04 25.1891 158.873C24.0432 157.248 22.5693 156.003 20.7672 155.139C18.9651 154.274 17.0536 153.842 15.0328 153.842C13.012 153.842 11.1161 154.274 9.34531 155.139C7.57448 156.003 6.10573 157.248 4.93906 158.873C4.81406 159.061 4.66823 159.165 4.50156 159.186C4.3349 159.206 4.18906 159.165 4.06406 159.061ZM18.5641 174.467C16.3974 173.925 14.6266 172.847 13.2516 171.232C11.8766 169.618 11.1891 167.644 11.1891 165.311C11.1891 164.269 11.5641 163.394 12.3141 162.686C13.0641 161.977 13.9703 161.623 15.0328 161.623C16.0953 161.623 17.0016 161.977 17.7516 162.686C18.5016 163.394 18.8766 164.269 18.8766 165.311C18.8766 165.998 19.137 166.576 19.6578 167.045C20.1786 167.514 20.7932 167.748 21.5016 167.748C22.2099 167.748 22.8141 167.514 23.3141 167.045C23.8141 166.576 24.0641 165.998 24.0641 165.311C24.0641 162.894 23.1786 160.863 21.4078 159.217C19.637 157.571 17.5224 156.748 15.0641 156.748C12.6057 156.748 10.4911 157.571 8.72031 159.217C6.94948 160.863 6.06406 162.883 6.06406 165.279C6.06406 165.779 6.11094 166.404 6.20469 167.154C6.29844 167.904 6.5224 168.779 6.87656 169.779C6.93906 169.967 6.93385 170.133 6.86094 170.279C6.78802 170.425 6.66823 170.529 6.50156 170.592C6.3349 170.654 6.17344 170.649 6.01719 170.576C5.86094 170.503 5.75156 170.383 5.68906 170.217C5.37656 169.404 5.1526 168.597 5.01719 167.795C4.88177 166.993 4.81406 166.165 4.81406 165.311C4.81406 162.54 5.81927 160.217 7.82969 158.342C9.8401 156.467 12.2411 155.529 15.0328 155.529C17.8453 155.529 20.262 156.467 22.2828 158.342C24.3036 160.217 25.3141 162.54 25.3141 165.311C25.3141 166.352 24.9443 167.222 24.2047 167.92C23.4651 168.618 22.5641 168.967 21.5016 168.967C20.4391 168.967 19.5276 168.618 18.7672 167.92C18.0068 167.222 17.6266 166.352 17.6266 165.311C17.6266 164.623 17.3714 164.045 16.8609 163.576C16.3505 163.107 15.7411 162.873 15.0328 162.873C14.3245 162.873 13.7151 163.107 13.2047 163.576C12.6943 164.045 12.4391 164.623 12.4391 165.311C12.4391 167.331 13.038 169.019 14.2359 170.373C15.4339 171.727 16.9807 172.675 18.8766 173.217C19.0641 173.279 19.1891 173.383 19.2516 173.529C19.3141 173.675 19.3245 173.831 19.2828 173.998C19.2411 174.144 19.1578 174.269 19.0328 174.373C18.9078 174.477 18.7516 174.508 18.5641 174.467ZM8.12656 152.529C7.9599 152.633 7.79323 152.66 7.62656 152.607C7.4599 152.555 7.3349 152.446 7.25156 152.279C7.16823 152.113 7.1474 151.962 7.18906 151.826C7.23073 151.691 7.3349 151.571 7.50156 151.467C8.66823 150.842 9.88698 150.363 11.1578 150.029C12.4286 149.696 13.7203 149.529 15.0328 149.529C16.3661 149.529 17.6682 149.691 18.9391 150.014C20.2099 150.337 21.4391 150.8 22.6266 151.404C22.8141 151.508 22.9234 151.633 22.9547 151.779C22.9859 151.925 22.9703 152.071 22.9078 152.217C22.8453 152.363 22.7411 152.477 22.5953 152.561C22.4495 152.644 22.2724 152.633 22.0641 152.529C20.9599 151.967 19.8193 151.535 18.6422 151.232C17.4651 150.93 16.262 150.779 15.0328 150.779C13.8245 150.779 12.637 150.92 11.4703 151.201C10.3036 151.482 9.18906 151.925 8.12656 152.529ZM11.8141 174.029C10.5849 172.738 9.64219 171.42 8.98594 170.076C8.32969 168.732 8.00156 167.144 8.00156 165.311C8.00156 163.415 8.68906 161.816 10.0641 160.514C11.4391 159.212 13.0953 158.561 15.0328 158.561C16.9703 158.561 18.637 159.212 20.0328 160.514C21.4286 161.816 22.1266 163.415 22.1266 165.311C22.1266 165.498 22.0693 165.649 21.9547 165.764C21.8401 165.878 21.6891 165.936 21.5016 165.936C21.3349 165.936 21.1891 165.878 21.0641 165.764C20.9391 165.649 20.8766 165.498 20.8766 165.311C20.8766 163.748 20.2984 162.441 19.1422 161.389C17.9859 160.337 16.6161 159.811 15.0328 159.811C13.4495 159.811 12.0901 160.337 10.9547 161.389C9.81927 162.441 9.25156 163.748 9.25156 165.311C9.25156 166.998 9.54323 168.43 10.1266 169.607C10.7099 170.785 11.5641 171.967 12.6891 173.154C12.8141 173.279 12.8766 173.425 12.8766 173.592C12.8766 173.758 12.8141 173.904 12.6891 174.029C12.5641 174.154 12.4182 174.217 12.2516 174.217C12.0849 174.217 11.9391 174.154 11.8141 174.029ZM21.2516 171.904C19.3974 171.904 17.788 171.279 16.4234 170.029C15.0589 168.779 14.3766 167.206 14.3766 165.311C14.3766 165.144 14.4339 164.998 14.5484 164.873C14.663 164.748 14.8141 164.686 15.0016 164.686C15.1891 164.686 15.3401 164.748 15.4547 164.873C15.5693 164.998 15.6266 165.144 15.6266 165.311C15.6266 166.873 16.1891 168.154 17.3141 169.154C18.4391 170.154 19.7516 170.654 21.2516 170.654C21.3766 170.654 21.5536 170.644 21.7828 170.623C22.012 170.602 22.2516 170.571 22.5016 170.529C22.6891 170.488 22.8505 170.514 22.9859 170.607C23.1214 170.701 23.2099 170.842 23.2516 171.029C23.2932 171.196 23.262 171.342 23.1578 171.467C23.0536 171.592 22.9182 171.675 22.7516 171.717C22.3766 171.821 22.0484 171.878 21.7672 171.889C21.4859 171.899 21.3141 171.904 21.2516 171.904Z" fill="white"/>
</g>
<mask id="mask4_307_1222" style="mask-type:alpha" maskUnits="userSpaceOnUse" x="0" y="196" width="30" height="30">
<rect y="196" width="30" height="30" fill="#D9D9D9"/>
</mask>
<g mask="url(#mask4_307_1222)">
<path d="M15.001 223.498C13.2718 223.498 11.6468 223.17 10.126 222.514C8.60514 221.857 7.28223 220.967 6.15723 219.842C5.03223 218.717 4.1416 217.394 3.48535 215.873C2.8291 214.352 2.50098 212.727 2.50098 210.998C2.50098 209.269 2.8291 207.644 3.48535 206.123C4.1416 204.602 5.03223 203.279 6.15723 202.154C7.28223 201.029 8.60514 200.139 10.126 199.482C11.6468 198.826 13.2718 198.498 15.001 198.498C16.7301 198.498 18.3551 198.826 19.876 199.482C21.3968 200.139 22.7197 201.029 23.8447 202.154C24.9697 203.279 25.8604 204.602 26.5166 206.123C27.1729 207.644 27.501 209.269 27.501 210.998C27.501 212.727 27.1729 214.352 26.5166 215.873C25.8604 217.394 24.9697 218.717 23.8447 219.842C22.7197 220.967 21.3968 221.857 19.876 222.514C18.3551 223.17 16.7301 223.498 15.001 223.498ZM13.751 220.936V218.498C13.0635 218.498 12.4749 218.253 11.9854 217.764C11.4958 217.274 11.251 216.686 11.251 215.998V214.748L5.25098 208.748C5.18848 209.123 5.13119 209.498 5.0791 209.873C5.02702 210.248 5.00098 210.623 5.00098 210.998C5.00098 213.519 5.8291 215.727 7.48535 217.623C9.1416 219.519 11.2301 220.623 13.751 220.936ZM22.376 217.748C22.7926 217.29 23.1676 216.795 23.501 216.264C23.8343 215.732 24.1104 215.18 24.3291 214.607C24.5479 214.035 24.7145 213.446 24.8291 212.842C24.9437 212.238 25.001 211.623 25.001 210.998C25.001 208.956 24.4333 207.092 23.2979 205.404C22.1624 203.717 20.6468 202.498 18.751 201.748V202.248C18.751 202.936 18.5062 203.524 18.0166 204.014C17.527 204.503 16.9385 204.748 16.251 204.748H13.751V207.248C13.751 207.602 13.6312 207.899 13.3916 208.139C13.152 208.378 12.8551 208.498 12.501 208.498H10.001V210.998H17.501C17.8551 210.998 18.152 211.118 18.3916 211.357C18.6312 211.597 18.751 211.894 18.751 212.248V215.998H20.001C20.5426 215.998 21.0322 216.16 21.4697 216.482C21.9072 216.805 22.2093 217.227 22.376 217.748Z" fill="white"/>
</g>
<mask id="mask5_307_1222" style="mask-type:alpha" maskUnits="userSpaceOnUse" x="0" y="245" width="30" height="30">
<rect y="245" width="30" height="30" fill="#D9D9D9"/>
</mask>
<g mask="url(#mask5_307_1222)">
<path d="M6.15723 268.843C5.03223 267.697 4.1416 266.369 3.48535 264.858C2.8291 263.348 2.50098 261.728 2.50098 259.999C2.50098 258.249 2.8291 256.619 3.48535 255.108C4.1416 253.598 5.03223 252.28 6.15723 251.155L7.93848 252.937C7.02181 253.853 6.30306 254.916 5.78223 256.124C5.26139 257.332 5.00098 258.624 5.00098 259.999C5.00098 261.395 5.26139 262.697 5.78223 263.905C6.30306 265.114 7.02181 266.166 7.93848 267.062L6.15723 268.843ZM9.68848 265.312C9.02181 264.624 8.49056 263.827 8.09473 262.921C7.69889 262.015 7.50098 261.041 7.50098 259.999C7.50098 258.937 7.69889 257.952 8.09473 257.046C8.49056 256.14 9.02181 255.353 9.68848 254.687L11.4697 256.468C11.0114 256.926 10.652 257.457 10.3916 258.062C10.1312 258.666 10.001 259.312 10.001 259.999C10.001 260.687 10.1312 261.332 10.3916 261.937C10.652 262.541 11.0114 263.072 11.4697 263.53L9.68848 265.312ZM15.001 262.499C14.3135 262.499 13.7249 262.254 13.2354 261.765C12.7458 261.275 12.501 260.687 12.501 259.999C12.501 259.312 12.7458 258.723 13.2354 258.233C13.7249 257.744 14.3135 257.499 15.001 257.499C15.6885 257.499 16.277 257.744 16.7666 258.233C17.2562 258.723 17.501 259.312 17.501 259.999C17.501 260.687 17.2562 261.275 16.7666 261.765C16.277 262.254 15.6885 262.499 15.001 262.499ZM20.3135 265.312L18.5322 263.53C18.9906 263.072 19.3499 262.541 19.6104 261.937C19.8708 261.332 20.001 260.687 20.001 259.999C20.001 259.312 19.8708 258.666 19.6104 258.062C19.3499 257.457 18.9906 256.926 18.5322 256.468L20.3135 254.687C20.9801 255.353 21.5114 256.14 21.9072 257.046C22.3031 257.952 22.501 258.937 22.501 259.999C22.501 261.041 22.3031 262.015 21.9072 262.921C21.5114 263.827 20.9801 264.624 20.3135 265.312ZM23.8447 268.843L22.0635 267.062C22.9801 266.145 23.6989 265.082 24.2197 263.874C24.7406 262.666 25.001 261.374 25.001 259.999C25.001 258.603 24.7406 257.301 24.2197 256.093C23.6989 254.884 22.9801 253.832 22.0635 252.937L23.8447 251.155C24.9697 252.28 25.8604 253.598 26.5166 255.108C27.1729 256.619 27.501 258.249 27.501 259.999C27.501 261.728 27.1729 263.348 26.5166 264.858C25.8604 266.369 24.9697 267.697 23.8447 268.843Z" fill="white"/>
</g>
<mask id="mask6_307_1222" style="mask-type:alpha" maskUnits="userSpaceOnUse" x="0" y="294" width="30" height="30">
<rect y="294" width="30" height="30" fill="#D9D9D9"/>
</mask>
<g mask="url(#mask6_307_1222)">
<path d="M15.626 322.748L13.751 320.873L15.626 318.998L17.501 320.873L15.626 322.748ZM11.3135 320.873L10.001 319.561L13.6885 315.873L15.001 317.186L11.3135 320.873ZM19.376 318.998L17.501 317.123L19.376 315.248L21.251 317.123L19.376 318.998ZM8.12598 318.998L6.25098 317.123L8.12598 315.248L10.001 317.123L8.12598 318.998ZM9.37598 313.998C7.48014 313.998 5.86035 313.326 4.5166 311.982C3.17285 310.639 2.50098 309.019 2.50098 307.123C2.50098 305.394 3.07389 303.883 4.21973 302.592C5.36556 301.3 6.78223 300.54 8.46973 300.311C9.13639 299.123 10.0479 298.191 11.2041 297.514C12.3604 296.837 13.626 296.498 15.001 296.498C16.876 296.498 18.5062 297.097 19.8916 298.295C21.277 299.493 22.1156 300.988 22.4072 302.779C23.8447 302.904 25.0531 303.498 26.0322 304.561C27.0114 305.623 27.501 306.894 27.501 308.373C27.501 309.936 26.9541 311.264 25.8604 312.357C24.7666 313.451 23.4385 313.998 21.876 313.998H9.37598ZM9.37598 311.498H21.876C22.751 311.498 23.4906 311.196 24.0947 310.592C24.6989 309.988 25.001 309.248 25.001 308.373C25.001 307.498 24.6989 306.758 24.0947 306.154C23.4906 305.55 22.751 305.248 21.876 305.248H20.001V303.998C20.001 302.623 19.5114 301.446 18.5322 300.467C17.5531 299.488 16.376 298.998 15.001 298.998C14.001 298.998 13.0895 299.269 12.2666 299.811C11.4437 300.352 10.8239 301.081 10.4072 301.998L10.0947 302.748H9.31348C8.12598 302.79 7.11035 303.232 6.2666 304.076C5.42285 304.92 5.00098 305.936 5.00098 307.123C5.00098 308.331 5.42806 309.363 6.28223 310.217C7.13639 311.071 8.16764 311.498 9.37598 311.498Z" fill="white"/>
</g>
<mask id="mask7_307_1222" style="mask-type:alpha" maskUnits="userSpaceOnUse" x="0" y="343" width="30" height="30">
<rect y="343" width="30" height="30" fill="#D9D9D9"/>
</mask>
<g mask="url(#mask7_307_1222)">
<path d="M6.4375 366.564C5.58333 365.564 4.92188 364.445 4.45312 363.205C3.98438 361.965 3.75 360.648 3.75 359.252C3.75 356.127 4.84375 353.471 7.03125 351.283C9.21875 349.096 11.875 348.002 15 348.002H15.25L13.25 346.002L15 344.252L20 349.252L15 354.252L13.2188 352.471L15.1875 350.502H15C12.5833 350.502 10.5208 351.356 8.8125 353.064C7.10417 354.773 6.25 356.835 6.25 359.252C6.25 360.314 6.42188 361.314 6.76563 362.252C7.10938 363.189 7.59375 364.033 8.21875 364.783L6.4375 366.564ZM13.75 366.127C13.75 365.648 13.5885 365.174 13.2656 364.705C12.9427 364.236 12.5833 363.747 12.1875 363.236C11.7917 362.726 11.4323 362.195 11.1094 361.643C10.7865 361.09 10.625 360.502 10.625 359.877C10.625 358.669 11.0521 357.637 11.9062 356.783C12.7604 355.929 13.7917 355.502 15 355.502C16.2083 355.502 17.2396 355.929 18.0938 356.783C18.9479 357.637 19.375 358.669 19.375 359.877C19.375 360.502 19.2135 361.09 18.8906 361.643C18.5677 362.195 18.2083 362.726 17.8125 363.236C17.4167 363.747 17.0573 364.236 16.7344 364.705C16.4115 365.174 16.25 365.648 16.25 366.127H13.75ZM13.75 369.252V367.377H16.25V369.252H13.75ZM23.5625 366.564L21.7812 364.783C22.4062 364.033 22.8906 363.189 23.2344 362.252C23.5781 361.314 23.75 360.314 23.75 359.252C23.75 357.877 23.4635 356.601 22.8906 355.424C22.3177 354.247 21.5312 353.262 20.5312 352.471L22.3125 350.689C23.5208 351.731 24.4792 352.986 25.1875 354.455C25.8958 355.924 26.25 357.523 26.25 359.252C26.25 360.648 26.0156 361.965 25.5469 363.205C25.0781 364.445 24.4167 365.564 23.5625 366.564Z" fill="white"/>
</g>
<mask id="mask8_307_1222" style="mask-type:alpha" maskUnits="userSpaceOnUse" x="0" y="392" width="30" height="30">
<rect y="392" width="30" height="30" fill="#D9D9D9"/>
</mask>
<g mask="url(#mask8_307_1222)">
<path d="M13.751 420.688V418.188C11.1468 417.897 8.91244 416.819 7.04785 414.954C5.18327 413.09 4.10514 410.855 3.81348 408.251H1.31348V405.751H3.81348C4.10514 403.147 5.18327 400.912 7.04785 399.048C8.91244 397.183 11.1468 396.105 13.751 395.813V393.313H16.251V395.813C18.8551 396.105 21.0895 397.183 22.9541 399.048C24.8187 400.912 25.8968 403.147 26.1885 405.751H28.6885V408.251H26.1885C25.8968 410.855 24.8187 413.09 22.9541 414.954C21.0895 416.819 18.8551 417.897 16.251 418.188V420.688H13.751ZM15.001 415.751C17.4176 415.751 19.4801 414.897 21.1885 413.188C22.8968 411.48 23.751 409.418 23.751 407.001C23.751 404.584 22.8968 402.522 21.1885 400.813C19.4801 399.105 17.4176 398.251 15.001 398.251C12.5843 398.251 10.5218 399.105 8.81348 400.813C7.10514 402.522 6.25098 404.584 6.25098 407.001C6.25098 409.418 7.10514 411.48 8.81348 413.188C10.5218 414.897 12.5843 415.751 15.001 415.751ZM15.001 412.001C13.626 412.001 12.4489 411.511 11.4697 410.532C10.4906 409.553 10.001 408.376 10.001 407.001C10.001 405.626 10.4906 404.449 11.4697 403.47C12.4489 402.491 13.626 402.001 15.001 402.001C16.376 402.001 17.5531 402.491 18.5322 403.47C19.5114 404.449 20.001 405.626 20.001 407.001C20.001 408.376 19.5114 409.553 18.5322 410.532C17.5531 411.511 16.376 412.001 15.001 412.001ZM15.001 409.501C15.6885 409.501 16.277 409.256 16.7666 408.767C17.2562 408.277 17.501 407.688 17.501 407.001C17.501 406.313 17.2562 405.725 16.7666 405.235C16.277 404.746 15.6885 404.501 15.001 404.501C14.3135 404.501 13.7249 404.746 13.2354 405.235C12.7458 405.725 12.501 406.313 12.501 407.001C12.501 407.688 12.7458 408.277 13.2354 408.767C13.7249 409.256 14.3135 409.501 15.001 409.501Z" fill="white"/>
</g>
<mask id="mask9_307_1222" style="mask-type:alpha" maskUnits="userSpaceOnUse" x="0" y="441" width="30" height="30">
<rect y="441" width="30" height="30" fill="#D9D9D9"/>
</mask>
<g mask="url(#mask9_307_1222)">
<path d="M13.1865 463.748L19.6553 455.998H14.6553L15.5615 448.904L9.78027 457.248H14.124L13.1865 463.748ZM9.99902 468.498L11.249 459.748H4.99902L16.249 443.498H18.749L17.499 453.498H24.999L12.499 468.498H9.99902Z" fill="white"/>
</g>
<mask id="mask10_307_1222" style="mask-type:alpha" maskUnits="userSpaceOnUse" x="0" y="490" width="30" height="30">
<rect y="490" width="30" height="30" fill="#D9D9D9"/>
</mask>
<g mask="url(#mask10_307_1222)">
<path d="M8.75 511.25H21.25V498.75H16.25C15.5625 498.75 14.974 498.995 14.4844 499.484C13.9948 499.974 13.75 500.562 13.75 501.25V502.875C13.3333 503.104 13.0208 503.396 12.8125 503.75C12.6042 504.104 12.5 504.521 12.5 505C12.5 505.688 12.7448 506.276 13.2344 506.766C13.724 507.255 14.3125 507.5 15 507.5C15.6875 507.5 16.276 507.255 16.7656 506.766C17.2552 506.276 17.5 505.688 17.5 505C17.5 504.521 17.3854 504.104 17.1562 503.75C16.9271 503.396 16.625 503.104 16.25 502.875V501.25H18.75V508.75H11.25V501.25H12.5V498.75H8.75V511.25ZM6.25 516.25C5.5625 516.25 4.97396 516.005 4.48438 515.516C3.99479 515.026 3.75 514.438 3.75 513.75V496.25C3.75 495.562 3.99479 494.974 4.48438 494.484C4.97396 493.995 5.5625 493.75 6.25 493.75H23.75C24.4375 493.75 25.026 493.995 25.5156 494.484C26.0052 494.974 26.25 495.562 26.25 496.25V513.75C26.25 514.438 26.0052 515.026 25.5156 515.516C25.026 516.005 24.4375 516.25 23.75 516.25H6.25ZM6.25 513.75H23.75V496.25H6.25V513.75Z" fill="white"/>
</g>
<mask id="mask11_307_1222" style="mask-type:alpha" maskUnits="userSpaceOnUse" x="0" y="539" width="30" height="30">
<rect y="539" width="30" height="30" fill="#D9D9D9"/>
</mask>
<g mask="url(#mask11_307_1222)">
<path d="M15.001 566.498C12.0218 566.498 9.38639 565.561 7.09473 563.686C4.80306 561.811 3.35514 559.415 2.75098 556.498H5.31348C5.89681 558.706 7.08431 560.508 8.87598 561.904C10.6676 563.3 12.7093 563.998 15.001 563.998C16.7926 563.998 18.4593 563.555 20.001 562.67C21.5426 561.785 22.751 560.561 23.626 558.998H20.001V556.498H27.501V563.998H25.001V561.498C23.8135 563.081 22.3447 564.311 20.5947 565.186C18.8447 566.061 16.9801 566.498 15.001 566.498ZM15.001 557.748C13.9593 557.748 13.0739 557.383 12.3447 556.654C11.6156 555.925 11.251 555.04 11.251 553.998C11.251 552.956 11.6156 552.071 12.3447 551.342C13.0739 550.613 13.9593 550.248 15.001 550.248C16.0426 550.248 16.9281 550.613 17.6572 551.342C18.3864 552.071 18.751 552.956 18.751 553.998C18.751 555.04 18.3864 555.925 17.6572 556.654C16.9281 557.383 16.0426 557.748 15.001 557.748ZM2.50098 551.498V543.998H5.00098V546.498C6.18848 544.915 7.65723 543.686 9.40723 542.811C11.1572 541.936 13.0218 541.498 15.001 541.498C17.9801 541.498 20.6156 542.436 22.9072 544.311C25.1989 546.186 26.6468 548.581 27.251 551.498H24.6885C24.1051 549.29 22.9176 547.488 21.126 546.092C19.3343 544.696 17.2926 543.998 15.001 543.998C13.2093 543.998 11.5426 544.441 10.001 545.326C8.45931 546.212 7.25098 547.436 6.37598 548.998H10.001V551.498H2.50098Z" fill="white"/>
</g>
<mask id="mask12_307_1222" style="mask-type:alpha" maskUnits="userSpaceOnUse" x="0" y="588" width="30" height="30">
<rect y="588" width="30" height="30" fill="#D9D9D9"/>
</mask>
<g mask="url(#mask12_307_1222)">
<path d="M9.84473 610.502C8.24056 610.502 7.02181 609.908 6.18848 608.721C5.35514 607.533 4.95931 606.2 5.00098 604.721L4.43848 603.877C4.20931 603.523 3.8291 602.721 3.29785 601.471C2.7666 600.221 2.50098 598.648 2.50098 596.752C2.50098 594.606 3.03223 592.82 4.09473 591.393C5.15723 589.965 6.50098 589.252 8.12598 589.252C9.89681 589.252 11.277 590.038 12.2666 591.611C13.2562 593.184 13.751 594.898 13.751 596.752C13.751 597.96 13.5843 599.075 13.251 600.096C12.9176 601.117 12.626 601.939 12.376 602.564L12.626 602.971C12.7926 603.262 13.0218 603.726 13.3135 604.361C13.6051 604.997 13.751 605.658 13.751 606.346C13.751 607.533 13.3812 608.523 12.6416 609.314C11.902 610.106 10.9697 610.502 9.84473 610.502ZM6.56348 602.502L10.001 601.814C10.2718 601.148 10.5479 600.387 10.8291 599.533C11.1104 598.679 11.251 597.752 11.251 596.752C11.251 595.502 10.9645 594.356 10.3916 593.314C9.81869 592.273 9.06348 591.752 8.12598 591.752C7.18848 591.752 6.43327 592.273 5.86035 593.314C5.28744 594.356 5.00098 595.502 5.00098 596.752C5.00098 598.064 5.18327 599.226 5.54785 600.236C5.91244 601.247 6.25098 602.002 6.56348 602.502ZM9.84473 608.002C10.2406 608.002 10.5739 607.856 10.8447 607.564C11.1156 607.273 11.251 606.867 11.251 606.346C11.251 605.992 11.1676 605.627 11.001 605.252C10.8343 604.877 10.6676 604.544 10.501 604.252L7.50098 604.877C7.50098 605.71 7.68327 606.439 8.04785 607.064C8.41244 607.689 9.01139 608.002 9.84473 608.002ZM20.1572 616.752C19.0322 616.752 18.0999 616.356 17.3604 615.564C16.6208 614.773 16.251 613.783 16.251 612.596C16.251 611.908 16.3968 611.247 16.6885 610.611C16.9801 609.976 17.2093 609.512 17.376 609.221L17.626 608.814C17.376 608.189 17.0843 607.367 16.751 606.346C16.4176 605.325 16.251 604.21 16.251 603.002C16.251 601.148 16.7458 599.434 17.7354 597.861C18.7249 596.288 20.1051 595.502 21.876 595.502C23.501 595.502 24.8447 596.215 25.9072 597.643C26.9697 599.07 27.501 600.856 27.501 603.002C27.501 604.898 27.2354 606.465 26.7041 607.705C26.1729 608.945 25.7926 609.742 25.5635 610.096L25.001 610.971C25.0218 612.45 24.6208 613.783 23.7979 614.971C22.9749 616.158 21.7614 616.752 20.1572 616.752ZM23.4385 608.752C23.751 608.252 24.0895 607.502 24.4541 606.502C24.8187 605.502 25.001 604.335 25.001 603.002C25.001 601.752 24.7145 600.606 24.1416 599.564C23.5687 598.523 22.8135 598.002 21.876 598.002C20.9385 598.002 20.1833 598.523 19.6104 599.564C19.0374 600.606 18.751 601.752 18.751 603.002C18.751 604.002 18.8916 604.924 19.1729 605.768C19.4541 606.611 19.7301 607.377 20.001 608.064L23.4385 608.752ZM20.1572 614.252C20.9906 614.252 21.5895 613.939 21.9541 613.314C22.3187 612.689 22.501 611.96 22.501 611.127L19.501 610.502C19.3343 610.794 19.1676 611.127 19.001 611.502C18.8343 611.877 18.751 612.242 18.751 612.596C18.751 613.012 18.8812 613.393 19.1416 613.736C19.402 614.08 19.7406 614.252 20.1572 614.252Z" fill="white"/>
</g>
<mask id="mask13_307_1222" style="mask-type:alpha" maskUnits="userSpaceOnUse" x="0" y="637" width="30" height="30">
<rect y="637" width="30" height="30" fill="#D9D9D9"/>
</mask>
<g mask="url(#mask13_307_1222)">
<path d="M2.50098 648.252V644.502C2.50098 643.814 2.74577 643.226 3.23535 642.736C3.72494 642.247 4.31348 642.002 5.00098 642.002H25.001C25.6885 642.002 26.277 642.247 26.7666 642.736C27.2562 643.226 27.501 643.814 27.501 644.502V651.377H25.001V644.502H5.00098V648.252H2.50098ZM8.75098 658.252C8.52181 658.252 8.30306 658.195 8.09473 658.08C7.88639 657.965 7.73014 657.794 7.62598 657.564L5.46973 653.252H2.50098V650.752H6.25098C6.48014 650.752 6.69889 650.809 6.90723 650.924C7.11556 651.038 7.27181 651.21 7.37598 651.439L8.75098 654.189L12.626 646.439C12.7301 646.231 12.8864 646.075 13.0947 645.971C13.3031 645.867 13.5218 645.814 13.751 645.814C13.9801 645.814 14.1989 645.867 14.4072 645.971C14.6156 646.075 14.7718 646.231 14.876 646.439L16.9697 650.627C16.5947 650.856 16.2354 651.096 15.8916 651.346C15.5479 651.596 15.2301 651.877 14.9385 652.189L13.751 649.814L9.87598 657.564C9.77181 657.794 9.61556 657.965 9.40723 658.08C9.19889 658.195 8.98014 658.252 8.75098 658.252ZM13.3447 662.002H5.00098C4.31348 662.002 3.72494 661.757 3.23535 661.268C2.74577 660.778 2.50098 660.189 2.50098 659.502V655.752H5.00098V659.502H12.5947C12.6572 659.939 12.751 660.367 12.876 660.783C13.001 661.2 13.1572 661.606 13.3447 662.002ZM21.251 664.502C19.5218 664.502 18.0479 663.893 16.8291 662.674C15.6104 661.455 15.001 659.981 15.001 658.252C15.001 656.523 15.6104 655.049 16.8291 653.83C18.0479 652.611 19.5218 652.002 21.251 652.002C22.9801 652.002 24.4541 652.611 25.6729 653.83C26.8916 655.049 27.501 656.523 27.501 658.252C27.501 659.981 26.8916 661.455 25.6729 662.674C24.4541 663.893 22.9801 664.502 21.251 664.502ZM21.501 658.877L24.3447 656.033L23.4697 655.158L20.626 658.002L21.501 658.877Z" fill="white"/>
</g>
<mask id="mask14_307_1222" style="mask-type:alpha" maskUnits="userSpaceOnUse" x="0" y="686" width="30" height="30">
<rect y="686" width="30" height="30" fill="#D9D9D9"/>
</mask>
<g mask="url(#mask14_307_1222)">
<path d="M8.75098 702.873C9.27181 702.873 9.71452 702.691 10.0791 702.326C10.4437 701.962 10.626 701.519 10.626 700.998C10.626 700.477 10.4437 700.035 10.0791 699.67C9.71452 699.305 9.27181 699.123 8.75098 699.123C8.23014 699.123 7.78744 699.305 7.42285 699.67C7.05827 700.035 6.87598 700.477 6.87598 700.998C6.87598 701.519 7.05827 701.962 7.42285 702.326C7.78744 702.691 8.23014 702.873 8.75098 702.873ZM15.001 702.873C15.5218 702.873 15.9645 702.691 16.3291 702.326C16.6937 701.962 16.876 701.519 16.876 700.998C16.876 700.477 16.6937 700.035 16.3291 699.67C15.9645 699.305 15.5218 699.123 15.001 699.123C14.4801 699.123 14.0374 699.305 13.6729 699.67C13.3083 700.035 13.126 700.477 13.126 700.998C13.126 701.519 13.3083 701.962 13.6729 702.326C14.0374 702.691 14.4801 702.873 15.001 702.873ZM21.251 702.873C21.7718 702.873 22.2145 702.691 22.5791 702.326C22.9437 701.962 23.126 701.519 23.126 700.998C23.126 700.477 22.9437 700.035 22.5791 699.67C22.2145 699.305 21.7718 699.123 21.251 699.123C20.7301 699.123 20.2874 699.305 19.9229 699.67C19.5583 700.035 19.376 700.477 19.376 700.998C19.376 701.519 19.5583 701.962 19.9229 702.326C20.2874 702.691 20.7301 702.873 21.251 702.873ZM15.001 713.498C13.2718 713.498 11.6468 713.17 10.126 712.514C8.60514 711.857 7.28223 710.967 6.15723 709.842C5.03223 708.717 4.1416 707.394 3.48535 705.873C2.8291 704.352 2.50098 702.727 2.50098 700.998C2.50098 699.269 2.8291 697.644 3.48535 696.123C4.1416 694.602 5.03223 693.279 6.15723 692.154C7.28223 691.029 8.60514 690.139 10.126 689.482C11.6468 688.826 13.2718 688.498 15.001 688.498C16.7301 688.498 18.3551 688.826 19.876 689.482C21.3968 690.139 22.7197 691.029 23.8447 692.154C24.9697 693.279 25.8604 694.602 26.5166 696.123C27.1729 697.644 27.501 699.269 27.501 700.998C27.501 702.727 27.1729 704.352 26.5166 705.873C25.8604 707.394 24.9697 708.717 23.8447 709.842C22.7197 710.967 21.3968 711.857 19.876 712.514C18.3551 713.17 16.7301 713.498 15.001 713.498ZM15.001 710.998C17.7926 710.998 20.1572 710.029 22.0947 708.092C24.0322 706.154 25.001 703.79 25.001 700.998C25.001 698.206 24.0322 695.842 22.0947 693.904C20.1572 691.967 17.7926 690.998 15.001 690.998C12.2093 690.998 9.84473 691.967 7.90723 693.904C5.96973 695.842 5.00098 698.206 5.00098 700.998C5.00098 703.79 5.96973 706.154 7.90723 708.092C9.84473 710.029 12.2093 710.998 15.001 710.998Z" fill="white"/>
</g>
<mask id="mask15_307_1222" style="mask-type:alpha" maskUnits="userSpaceOnUse" x="0" y="735" width="30" height="30">
<rect y="735" width="30" height="30" fill="#D9D9D9"/>
</mask>
<g mask="url(#mask15_307_1222)">
<path d="M10.5635 745.627L8.75098 743.814C9.60514 743.002 10.5687 742.372 11.6416 741.924C12.7145 741.476 13.8343 741.252 15.001 741.252C16.1676 741.252 17.2874 741.476 18.3604 741.924C19.4333 742.372 20.3968 743.002 21.251 743.814L19.4385 745.627C18.8343 745.023 18.1572 744.559 17.4072 744.236C16.6572 743.913 15.8551 743.752 15.001 743.752C14.1468 743.752 13.3447 743.913 12.5947 744.236C11.8447 744.559 11.1676 745.023 10.5635 745.627ZM7.06348 742.002L5.31348 740.252C6.62598 738.96 8.11035 737.971 9.7666 737.283C11.4229 736.596 13.1676 736.252 15.001 736.252C16.8343 736.252 18.5791 736.596 20.2354 737.283C21.8916 737.971 23.376 738.96 24.6885 740.252L22.9385 742.002C21.876 740.96 20.6572 740.158 19.2822 739.596C17.9072 739.033 16.4801 738.752 15.001 738.752C13.5218 738.752 12.0947 739.033 10.7197 739.596C9.34473 740.158 8.12598 740.96 7.06348 742.002ZM12.501 762.502C11.8135 762.502 11.2249 762.257 10.7354 761.768C10.2458 761.278 10.001 760.689 10.001 760.002V750.002C10.001 749.314 10.2458 748.726 10.7354 748.236C11.2249 747.747 11.8135 747.502 12.501 747.502H17.501C18.1885 747.502 18.777 747.747 19.2666 748.236C19.7562 748.726 20.001 749.314 20.001 750.002V760.002C20.001 760.689 19.7562 761.278 19.2666 761.768C18.777 762.257 18.1885 762.502 17.501 762.502H12.501ZM17.501 760.002V750.002H12.501V760.002H17.501Z" fill="white"/>
</g>
<mask id="mask16_307_1222" style="mask-type:alpha" maskUnits="userSpaceOnUse" x="0" y="785" width="30" height="30">
<rect y="785" width="30" height="30" fill="#D9D9D9"/>
</mask>
<g mask="url(#mask16_307_1222)">
<path d="M19.374 798.75C18.8532 798.75 18.4105 798.568 18.0459 798.203C17.6813 797.839 17.499 797.396 17.499 796.875C17.499 796.521 17.598 796.161 17.7959 795.797C17.9938 795.432 18.2074 795.099 18.4365 794.797C18.6657 794.495 18.8792 794.245 19.0772 794.047L19.374 793.75L19.6709 794.047C19.8688 794.245 20.0824 794.495 20.3115 794.797C20.5407 795.099 20.7542 795.432 20.9522 795.797C21.1501 796.161 21.249 796.521 21.249 796.875C21.249 797.396 21.0667 797.839 20.7022 798.203C20.3376 798.568 19.8949 798.75 19.374 798.75ZM24.374 795C23.8532 795 23.4105 794.818 23.0459 794.453C22.6813 794.089 22.499 793.646 22.499 793.125C22.499 792.771 22.598 792.411 22.7959 792.047C22.9938 791.682 23.2074 791.349 23.4365 791.047C23.6657 790.745 23.8792 790.495 24.0772 790.297L24.374 790L24.6709 790.297C24.8688 790.495 25.0824 790.745 25.3115 791.047C25.5407 791.349 25.7542 791.682 25.9522 792.047C26.1501 792.411 26.249 792.771 26.249 793.125C26.249 793.646 26.0667 794.089 25.7022 794.453C25.3376 794.818 24.8949 795 24.374 795ZM24.374 802.5C23.8532 802.5 23.4105 802.318 23.0459 801.953C22.6813 801.589 22.499 801.146 22.499 800.625C22.499 800.271 22.598 799.911 22.7959 799.547C22.9938 799.182 23.2074 798.849 23.4365 798.547C23.6657 798.245 23.8792 797.995 24.0772 797.797L24.374 797.5L24.6709 797.797C24.8688 797.995 25.0824 798.245 25.3115 798.547C25.5407 798.849 25.7542 799.182 25.9522 799.547C26.1501 799.911 26.249 800.271 26.249 800.625C26.249 801.146 26.0667 801.589 25.7022 801.953C25.3376 802.318 24.8949 802.5 24.374 802.5ZM11.249 811.25C9.51986 811.25 8.0459 810.641 6.82715 809.422C5.6084 808.203 4.99902 806.729 4.99902 805C4.99902 804 5.21777 803.068 5.65527 802.203C6.09277 801.339 6.70736 800.604 7.49902 800V792.5C7.49902 791.458 7.86361 790.573 8.59277 789.844C9.32194 789.115 10.2074 788.75 11.249 788.75C12.2907 788.75 13.1761 789.115 13.9053 789.844C14.6344 790.573 14.999 791.458 14.999 792.5V800C15.7907 800.604 16.4053 801.339 16.8428 802.203C17.2803 803.068 17.499 804 17.499 805C17.499 806.729 16.8897 808.203 15.6709 809.422C14.4522 810.641 12.9782 811.25 11.249 811.25ZM7.49902 805H14.999C14.999 804.396 14.8688 803.833 14.6084 803.313C14.348 802.792 13.9782 802.354 13.499 802L12.499 801.25V792.5C12.499 792.146 12.3792 791.849 12.1396 791.609C11.9001 791.37 11.6032 791.25 11.249 791.25C10.8949 791.25 10.598 791.37 10.3584 791.609C10.1188 791.849 9.99902 792.146 9.99902 792.5V801.25L8.99902 802C8.51986 802.354 8.15007 802.792 7.88965 803.313C7.62923 803.833 7.49902 804.396 7.49902 805Z" fill="white"/>
</g>
</svg>
