<svg width="30" height="373" viewBox="0 0 30 373" fill="none" xmlns="http://www.w3.org/2000/svg">
<mask id="mask0_307_770" style="mask-type:alpha" maskUnits="userSpaceOnUse" x="0" y="49" width="30" height="30">
<rect y="49" width="30" height="30" fill="#D9D9D9"/>
</mask>
<g mask="url(#mask0_307_770)">
<path d="M8.125 62.748L15 51.498L21.875 62.748H8.125ZM21.875 76.4981C20.3125 76.4981 18.9844 75.9512 17.8906 74.8574C16.7969 73.7637 16.25 72.4356 16.25 70.8731C16.25 69.3106 16.7969 67.9824 17.8906 66.8887C18.9844 65.7949 20.3125 65.248 21.875 65.248C23.4375 65.248 24.7656 65.7949 25.8594 66.8887C26.9531 67.9824 27.5 69.3106 27.5 70.8731C27.5 72.4356 26.9531 73.7637 25.8594 74.8574C24.7656 75.9512 23.4375 76.4981 21.875 76.4981ZM3.75 75.8731V65.873H13.75V75.8731H3.75ZM21.875 73.9981C22.75 73.9981 23.4896 73.696 24.0937 73.0918C24.6979 72.4876 25 71.7481 25 70.8731C25 69.9981 24.6979 69.2585 24.0937 68.6543C23.4896 68.0501 22.75 67.7481 21.875 67.7481C21 67.7481 20.2604 68.0501 19.6562 68.6543C19.0521 69.2585 18.75 69.9981 18.75 70.8731C18.75 71.7481 19.0521 72.4876 19.6562 73.0918C20.2604 73.696 21 73.9981 21.875 73.9981ZM6.25 73.3731H11.25V68.3731H6.25V73.3731ZM12.5625 60.248H17.4375L15 56.3105L12.5625 60.248Z" fill="white"/>
</g>
<mask id="mask1_307_770" style="mask-type:alpha" maskUnits="userSpaceOnUse" x="0" y="0" width="30" height="30">
<rect width="30" height="30" fill="#D9D9D9"/>
</mask>
<g mask="url(#mask1_307_770)">
<path d="M26.9473 16.2517C26.9702 17.9807 26.6637 19.6099 26.0277 21.1393C25.3916 22.6687 24.5186 24.0033 23.4086 25.1431C22.2986 26.2829 20.9877 27.191 19.4757 27.8674C17.9637 28.5437 16.3432 28.8934 14.6141 28.9163C12.8851 28.9392 11.2559 28.6327 9.72651 27.9966C8.19711 27.3606 6.8625 26.4876 5.72268 25.3776C4.58287 24.2676 3.67478 22.9566 2.99842 21.4447C2.32206 19.9327 1.97242 18.3121 1.94949 16.5831C1.93154 15.2291 2.11245 13.9453 2.49223 12.7318C2.87201 11.5184 3.40926 10.3966 4.104 9.36643L5.97162 11.1543C5.48216 11.9526 5.10276 12.8014 4.83341 13.7009C4.56406 14.6004 4.43602 15.5501 4.44928 16.55C4.48601 19.3206 5.49117 21.6668 7.46474 23.5887C9.43832 25.5107 11.8104 26.4533 14.581 26.4165C17.3516 26.3798 19.6978 25.3746 21.6198 23.401C23.5417 21.4275 24.4843 19.0554 24.4475 16.2848C24.4387 15.6182 24.3676 14.9732 24.2343 14.35C24.1011 13.7267 23.916 13.1249 23.6791 12.5447L25.5603 10.6446C25.9883 11.4931 26.3231 12.3846 26.5646 13.319C26.8062 14.2533 26.9338 15.2309 26.9473 16.2517ZM24.3315 7.53557L20.5818 7.58529L20.6316 11.335L18.1318 11.3681L18.0821 7.61844L14.3324 7.66816L14.2992 5.16838L18.0489 5.11866L17.9992 1.36899L20.499 1.33584L20.5487 5.08551L24.2984 5.03579L24.3315 7.53557Z" fill="white"/>
</g>
<mask id="mask2_307_770" style="mask-type:alpha" maskUnits="userSpaceOnUse" x="0" y="98" width="30" height="30">
<rect y="98" width="30" height="30" fill="#D9D9D9"/>
</mask>
<g mask="url(#mask2_307_770)">
<path d="M23.751 124.25C22.9385 124.25 22.2093 124.016 21.5635 123.547C20.9176 123.078 20.4697 122.479 20.2197 121.75H13.751C12.376 121.75 11.1989 121.26 10.2197 120.281C9.24056 119.302 8.75098 118.125 8.75098 116.75C8.75098 115.375 9.24056 114.198 10.2197 113.219C11.1989 112.24 12.376 111.75 13.751 111.75H16.251C16.9385 111.75 17.527 111.505 18.0166 111.016C18.5062 110.526 18.751 109.938 18.751 109.25C18.751 108.562 18.5062 107.974 18.0166 107.484C17.527 106.995 16.9385 106.75 16.251 106.75H9.78223C9.51139 107.479 9.05827 108.078 8.42285 108.547C7.78744 109.016 7.06348 109.25 6.25098 109.25C5.20931 109.25 4.32389 108.885 3.59473 108.156C2.86556 107.427 2.50098 106.542 2.50098 105.5C2.50098 104.458 2.86556 103.573 3.59473 102.844C4.32389 102.115 5.20931 101.75 6.25098 101.75C7.06348 101.75 7.78744 101.984 8.42285 102.453C9.05827 102.922 9.51139 103.521 9.78223 104.25H16.251C17.626 104.25 18.8031 104.74 19.7822 105.719C20.7614 106.698 21.251 107.875 21.251 109.25C21.251 110.625 20.7614 111.802 19.7822 112.781C18.8031 113.76 17.626 114.25 16.251 114.25H13.751C13.0635 114.25 12.4749 114.495 11.9854 114.984C11.4958 115.474 11.251 116.062 11.251 116.75C11.251 117.438 11.4958 118.026 11.9854 118.516C12.4749 119.005 13.0635 119.25 13.751 119.25H20.2197C20.4906 118.521 20.9437 117.922 21.5791 117.453C22.2145 116.984 22.9385 116.75 23.751 116.75C24.7926 116.75 25.6781 117.115 26.4072 117.844C27.1364 118.573 27.501 119.458 27.501 120.5C27.501 121.542 27.1364 122.427 26.4072 123.156C25.6781 123.885 24.7926 124.25 23.751 124.25ZM6.25098 106.75C6.60514 106.75 6.90202 106.63 7.1416 106.391C7.38119 106.151 7.50098 105.854 7.50098 105.5C7.50098 105.146 7.38119 104.849 7.1416 104.609C6.90202 104.37 6.60514 104.25 6.25098 104.25C5.89681 104.25 5.59994 104.37 5.36035 104.609C5.12077 104.849 5.00098 105.146 5.00098 105.5C5.00098 105.854 5.12077 106.151 5.36035 106.391C5.59994 106.63 5.89681 106.75 6.25098 106.75Z" fill="white"/>
</g>
<mask id="mask3_307_770" style="mask-type:alpha" maskUnits="userSpaceOnUse" x="0" y="147" width="30" height="30">
<rect y="147" width="30" height="30" fill="#D9D9D9"/>
</mask>
<g mask="url(#mask3_307_770)">
<path d="M22.5 170.748V153.248H26.25V170.748H22.5ZM8.75 170.748V153.248H21.25V170.748H8.75ZM3.75 170.748V153.248H7.5V170.748H3.75ZM11.25 168.248H18.75V155.748H11.25V168.248Z" fill="white"/>
</g>
<mask id="mask4_307_770" style="mask-type:alpha" maskUnits="userSpaceOnUse" x="0" y="196" width="30" height="30">
<rect y="196" width="30" height="30" fill="#D9D9D9"/>
</mask>
<g mask="url(#mask4_307_770)">
<path d="M14.999 223.5C11.6449 220.646 9.13965 217.995 7.4834 215.547C5.82715 213.099 4.99902 210.833 4.99902 208.75C4.99902 205.625 6.00423 203.135 8.01465 201.281C10.0251 199.427 12.3532 198.5 14.999 198.5H15.624C15.8324 198.5 16.0407 198.521 16.249 198.562V201.094C16.0407 201.052 15.8376 201.026 15.6396 201.016C15.4417 201.005 15.2282 201 14.999 201C12.8949 201 11.1188 201.724 9.6709 203.172C8.22298 204.62 7.49902 206.479 7.49902 208.75C7.49902 210.229 8.11361 211.922 9.34277 213.828C10.5719 215.734 12.4574 217.854 14.999 220.187C17.5407 217.854 19.4261 215.734 20.6553 213.828C21.8844 211.922 22.499 210.229 22.499 208.75V208.5H24.999V208.75C24.999 210.833 24.1709 213.099 22.5146 215.547C20.8584 217.995 18.3532 220.646 14.999 223.5ZM14.999 211C15.6865 211 16.2751 210.755 16.7646 210.266C17.2542 209.776 17.499 209.187 17.499 208.5C17.499 207.812 17.2542 207.224 16.7646 206.734C16.2751 206.245 15.6865 206 14.999 206C14.3115 206 13.723 206.245 13.2334 206.734C12.7438 207.224 12.499 207.812 12.499 208.5C12.499 209.187 12.7438 209.776 13.2334 210.266C13.723 210.755 14.3115 211 14.999 211ZM22.499 206H24.999V202.25H28.749V199.75H24.999V196H22.499V199.75H18.749V202.25H22.499V206Z" fill="white"/>
</g>
<mask id="mask5_307_770" style="mask-type:alpha" maskUnits="userSpaceOnUse" x="0" y="245" width="30" height="30">
<rect y="245" width="30" height="30" fill="#D9D9D9"/>
</mask>
<g mask="url(#mask5_307_770)">
<path d="M14.999 273.752C13.1032 273.752 11.3167 273.393 9.63965 272.674C7.96256 271.955 6.50423 270.976 5.26465 269.736C4.02506 268.497 3.0459 267.038 2.32715 265.361C1.6084 263.684 1.24902 261.898 1.24902 260.002C1.24902 258.085 1.6084 256.294 2.32715 254.627C3.0459 252.96 4.02506 251.507 5.26465 250.268C6.50423 249.028 7.96256 248.049 9.63965 247.33C11.3167 246.611 13.1032 246.252 14.999 246.252C16.9157 246.252 18.7074 246.611 20.374 247.33C22.0407 248.049 23.4938 249.028 24.7334 250.268C25.973 251.507 26.9521 252.96 27.6709 254.627C28.3896 256.294 28.749 258.085 28.749 260.002C28.749 261.898 28.3896 263.684 27.6709 265.361C26.9521 267.038 25.973 268.497 24.7334 269.736C23.4938 270.976 22.0407 271.955 20.374 272.674C18.7074 273.393 16.9157 273.752 14.999 273.752ZM14.2178 269.721C14.4261 269.929 14.6657 270.033 14.9365 270.033C15.2074 270.033 15.4469 269.929 15.6553 269.721L24.6553 260.721C24.8636 260.512 24.9678 260.262 24.9678 259.971C24.9678 259.679 24.8636 259.429 24.6553 259.221L15.6553 250.221C15.4469 250.012 15.2074 249.908 14.9365 249.908C14.6657 249.908 14.4261 250.012 14.2178 250.221L5.21777 259.221C5.00944 259.429 4.90527 259.679 4.90527 259.971C4.90527 260.262 5.00944 260.512 5.21777 260.721L14.2178 269.721ZM9.96777 263.721V258.721C9.96777 258.346 10.0824 258.044 10.3115 257.814C10.5407 257.585 10.8428 257.471 11.2178 257.471H16.4053L15.0928 256.096L16.8428 254.346L21.2178 258.721L16.8428 263.096L15.0928 261.346L16.4053 259.971H12.4678V263.721H9.96777ZM14.999 271.252C18.1449 271.252 20.8063 270.163 22.9834 267.986C25.1605 265.809 26.249 263.148 26.249 260.002C26.249 256.856 25.1605 254.195 22.9834 252.018C20.8063 249.84 18.1449 248.752 14.999 248.752C11.8532 248.752 9.19173 249.84 7.01465 252.018C4.83756 254.195 3.74902 256.856 3.74902 260.002C3.74902 263.148 4.83756 265.809 7.01465 267.986C9.19173 270.163 11.8532 271.252 14.999 271.252Z" fill="white"/>
</g>
<mask id="mask6_307_770" style="mask-type:alpha" maskUnits="userSpaceOnUse" x="0" y="294" width="30" height="30">
<rect y="294" width="30" height="30" fill="#D9D9D9"/>
</mask>
<g mask="url(#mask6_307_770)">
<path d="M9.31348 317.748H20.6885L24.5322 306.217L15.001 299.561L5.46973 306.217L9.31348 317.748ZM7.50098 320.248L2.50098 305.248L15.001 296.498L27.501 305.248L22.501 320.248H7.50098Z" fill="white"/>
</g>
<mask id="mask7_307_770" style="mask-type:alpha" maskUnits="userSpaceOnUse" x="0" y="343" width="30" height="30">
<rect y="343" width="30" height="30" fill="#D9D9D9"/>
</mask>
<g mask="url(#mask7_307_770)">
<path d="M6.25 365.5C5.5625 365.5 4.97396 365.255 4.48438 364.766C3.99479 364.276 3.75 363.688 3.75 363V353C3.75 352.312 3.99479 351.724 4.48438 351.234C4.97396 350.745 5.5625 350.5 6.25 350.5H23.75C24.4375 350.5 25.026 350.745 25.5156 351.234C26.0052 351.724 26.25 352.312 26.25 353V363C26.25 363.688 26.0052 364.276 25.5156 364.766C25.026 365.255 24.4375 365.5 23.75 365.5H6.25ZM6.25 363H23.75V353H6.25V363Z" fill="white"/>
</g>
</svg>
