<svg width="15" height="16" viewBox="0 0 15 16" fill="none" xmlns="http://www.w3.org/2000/svg">
<path d="M13.751 5.16585H12.2649V1.95444C12.2649 1.02121 11.5962 0.280117 10.754 0.280117H2.58045C1.73832 0.280117 1.06957 1.02121 1.06957 1.95444V6.75783C0.920958 6.89506 0.797116 7.0872 0.72281 7.33423L0.00445582 11.5883C-0.0450812 11.8628 0.331015 12.2474 0.504395 12.467C0.653005 12.6866 1.25671 12.9748 1.50439 12.9748L8.62396 12.9748V14.3609C8.62396 14.9922 9.09456 15.5137 9.66423 15.5137H13.751C14.3207 15.5137 14.7913 14.9922 14.7913 14.3609V6.31866C14.7913 5.68736 14.3207 5.16585 13.751 5.16585ZM1.28972 11.5883L1.78786 7.80085H1.9117H8.64873L8.62396 11.5883H1.28972ZM8.62396 6.31866V6.56569H2.18415V1.95444C2.18415 1.70741 2.35753 1.51527 2.58045 1.51527H10.754C10.977 1.51527 11.1503 1.70741 11.1503 1.95444V5.16585H9.66423C9.09456 5.16585 8.62396 5.68736 8.62396 6.31866ZM13.6767 14.2511H9.73854V6.401H13.6767V14.2511Z" fill="white"/>
<path d="M10.8646 9.82217H12.103C12.4002 9.82217 12.6727 9.5477 12.6727 9.19087C12.6727 8.8615 12.425 8.55957 12.103 8.55957H10.8646C10.5674 8.55957 10.2949 8.83405 10.2949 9.19087C10.2949 9.52025 10.5426 9.82217 10.8646 9.82217Z" fill="white"/>
<path d="M11.4341 14.0773C11.4093 14.0773 11.3598 14.1048 11.335 14.1048C11.3103 14.1322 11.2607 14.1322 11.236 14.1597C11.2112 14.1871 11.1864 14.2145 11.1617 14.242C11.0626 14.3518 10.9883 14.5165 10.9883 14.6812C10.9883 14.8458 11.0378 15.0105 11.1617 15.1203C11.1864 15.1478 11.2112 15.1752 11.236 15.2027C11.2607 15.2301 11.3103 15.2576 11.335 15.2576C11.3598 15.285 11.4093 15.285 11.4341 15.285C11.4589 15.285 11.5084 15.285 11.5332 15.285C11.6818 15.285 11.8304 15.2301 11.9295 15.0929C12.0286 14.9831 12.1029 14.8184 12.1029 14.6537C12.1029 14.489 12.0533 14.3243 11.9295 14.2145C11.8056 14.1048 11.6075 14.0499 11.4341 14.0773Z" fill="white"/>
</svg>
