<svg width="24" height="24" viewBox="0 0 24 24" fill="none" xmlns="http://www.w3.org/2000/svg">
<path d="M8.21172 14.9998C9.48672 14.9998 10.5367 13.9498 10.5367 12.7123C10.5367 11.4373 9.48672 10.4248 8.21172 10.4248C6.93672 10.4248 5.88672 11.4748 5.88672 12.7123C5.92422 13.9873 6.93672 14.9998 8.21172 14.9998ZM8.21172 12.0748C8.54922 12.0748 8.84922 12.3373 8.84922 12.6748C8.84922 13.0123 8.58672 13.2748 8.21172 13.2748C7.87422 13.2748 7.57422 13.0123 7.57422 12.6748C7.61172 12.3748 7.87422 12.0748 8.21172 12.0748Z" fill="white"/>
<path d="M18.0008 7.6502C19.2758 7.6502 20.3258 6.6002 20.3258 5.3627C20.3258 4.1252 19.2758 3.0752 18.0008 3.0752C16.7258 3.0752 15.6758 4.0877 15.6758 5.3627C15.6758 6.6377 16.7258 7.6502 18.0008 7.6502ZM18.0008 4.7627C18.3383 4.7627 18.6383 5.0252 18.6383 5.3627C18.6383 5.7002 18.3758 5.9627 18.0008 5.9627C17.6258 5.9627 17.3633 5.7002 17.3633 5.3627C17.3633 5.0252 17.6633 4.7627 18.0008 4.7627Z" fill="white"/>
<path d="M23.2875 2.325C23.2875 1.05 22.2 0 20.925 0H12.1125C10.8375 0 9.7875 1.05 9.7875 2.3625V7.725H2.3625C1.0875 7.725 0 8.775 0 10.0875V20.9625C0 22.2 1.05 23.25 2.3625 23.25H11.175C12.45 23.25 13.5375 22.2 13.5375 20.8875V15.5625H20.925C22.2 15.5625 23.2875 14.5125 23.2875 13.2V2.325ZM12.1125 1.6875H20.925C21.3 1.6875 21.6 1.9875 21.6 2.3625V11.0625L18.6375 9C18.3 8.775 17.8125 8.8125 17.55 9.1125L15.9 10.875L13.3875 9C13.3125 8.9625 13.2375 8.925 13.2 8.8875C12.825 8.25 12.1875 7.8375 11.475 7.725V2.325C11.4375 1.9875 11.7375 1.6875 12.1125 1.6875ZM2.3625 9.375H11.175C11.55 9.375 11.85 9.675 11.85 10.05V17.625L9.675 16.0875C9.3375 15.8625 8.85 15.9 8.5875 16.2L6.9 18L4.3875 16.125C4.0875 15.9 3.6375 15.9 3.3375 16.1625L1.6875 17.55V10.05C1.6875 9.675 1.9875 9.375 2.3625 9.375ZM11.5125 21.4875L8.25 19.0125L9.2625 17.8875L11.8125 19.65V20.8875C11.8125 21.15 11.7 21.375 11.5125 21.4875ZM1.6875 20.925V19.7625L3.9 17.8875L8.8125 21.6H2.3625C1.9875 21.5625 1.6875 21.2625 1.6875 20.925ZM13.5 11.175L17.0625 13.875H13.5V11.175ZM20.925 13.875H19.875L17.25 11.8875L18.2625 10.7625L21.5625 13.0875V13.2C21.6 13.575 21.3 13.875 20.925 13.875Z" fill="white"/>
</svg>
