<svg width="24" height="24" viewBox="0 0 24 24" fill="none" xmlns="http://www.w3.org/2000/svg">
<path d="M22.0231 5.77049L16.1713 4.28415C16.1713 4.15301 16.2109 4.06557 16.2109 3.93443C16.2109 1.74863 14.6293 0 12.6919 0C10.715 0 9.13344 1.74863 9.13344 3.93443C9.13344 4.37158 9.25206 4.93989 9.48929 5.59563L8.34267 5.85792L3.1631 4.24044C2.41186 4.02186 1.62109 4.15301 0.988468 4.6776C0.355848 5.20219 0 5.98907 0 6.86339V19.3661C0 20.5902 0.751236 21.6831 1.81878 21.9891L8.0659 23.9563C8.0659 23.9563 8.0659 23.9563 8.10544 23.9563C8.18451 23.9563 8.26359 24 8.34267 24C8.42175 24 8.46128 24 8.54036 24L15.7364 22.3388L20.9555 23.694C21.1532 23.7377 21.3114 23.7814 21.5091 23.7814C22.0626 23.7814 22.6161 23.5628 23.0511 23.1694C23.6442 22.6448 24 21.8579 24 21.0273V8.43716C23.9605 7.1694 23.1697 6.0765 22.0231 5.77049ZM12.6524 1.96721C13.6409 1.96721 14.3921 2.84153 14.3921 3.93443C14.3921 4.4153 13.8385 5.85792 12.6128 7.95628C11.3871 5.85792 10.8336 4.45902 10.8336 3.93443C10.8731 2.84153 11.6639 1.96721 12.6524 1.96721ZM10.2405 7.38798C10.6755 8.26229 11.1895 9.13661 11.6639 9.87978C11.8616 10.2295 12.257 10.4481 12.6128 10.4481C13.0082 10.4481 13.3641 10.2295 13.5618 9.87978C13.9572 9.22404 14.3921 8.52459 14.7875 7.78142V20.459L9.21252 21.7705V7.65027L10.2405 7.38798ZM1.81878 19.3224V6.86339C1.81878 6.60109 1.9374 6.38251 2.09555 6.25137C2.25371 6.12022 2.49094 6.0765 2.68863 6.12022L7.43328 7.60656V21.6831L2.29325 20.0656C2.01647 19.9781 1.81878 19.6721 1.81878 19.3224ZM22.1812 20.9399C22.1812 21.2459 22.0231 21.4645 21.9044 21.5519C21.8254 21.6393 21.5881 21.7705 21.3114 21.6831L16.5667 20.459V6.38251L21.6277 7.69399C21.944 7.78142 22.1812 8.08743 22.1812 8.43716V20.9399Z" fill="white"/>
<path d="M12.8107 4.76499C12.8502 4.76499 12.9293 4.72128 12.9689 4.72128C13.0084 4.72128 13.0875 4.67756 13.127 4.63384C13.1666 4.59013 13.2061 4.54641 13.2456 4.5027C13.4038 4.32783 13.5224 4.06554 13.5224 3.80324C13.5224 3.54095 13.4433 3.27865 13.2456 3.10379C13.2061 3.06007 13.1666 3.01636 13.127 2.97264C13.0875 2.92893 13.0084 2.88521 12.9689 2.88521C12.9293 2.8415 12.8502 2.8415 12.8107 2.8415C12.5339 2.79778 12.2176 2.88521 12.0199 3.10379C11.8618 3.27865 11.7432 3.54095 11.7432 3.80324C11.7432 4.06554 11.8222 4.32783 12.0199 4.5027C12.1781 4.67756 12.4153 4.80871 12.6526 4.80871C12.6921 4.76499 12.7712 4.76499 12.8107 4.76499Z" fill="white"/>
</svg>
