<svg width="30" height="680" viewBox="0 0 30 680" fill="none" xmlns="http://www.w3.org/2000/svg">
<mask id="mask0_312_2472" style="mask-type:alpha" maskUnits="userSpaceOnUse" x="0" y="0" width="30" height="30">
<rect width="30" height="30" fill="#D9D9D9"/>
</mask>
<g mask="url(#mask0_312_2472)">
<path d="M11.251 27.4981C10.0426 27.4981 8.90723 27.2689 7.84473 26.8106C6.78223 26.3522 5.85514 25.7272 5.06348 24.9356C4.27181 24.1439 3.64681 23.2168 3.18848 22.1543C2.73014 21.0918 2.50098 19.9564 2.50098 18.748C2.50098 17.0605 2.93848 15.5189 3.81348 14.123C4.68848 12.7272 5.83431 11.6647 7.25098 10.9355C7.66764 10.123 8.18327 9.40951 8.79785 8.79492C9.41244 8.18034 10.126 7.66471 10.9385 7.24805C11.626 5.83138 12.6781 4.68555 14.0947 3.81055C15.5114 2.93555 17.0635 2.49805 18.751 2.49805C19.9593 2.49805 21.0947 2.72721 22.1572 3.18555C23.2197 3.64388 24.1468 4.26888 24.9385 5.06055C25.7301 5.85221 26.3551 6.7793 26.8135 7.8418C27.2718 8.9043 27.501 10.0397 27.501 11.248C27.501 13.0189 27.0635 14.5814 26.1885 15.9355C25.3135 17.2897 24.1676 18.3314 22.751 19.0606C22.3343 19.8731 21.8187 20.5866 21.2041 21.2012C20.5895 21.8158 19.876 22.3314 19.0635 22.7481C18.3343 24.1647 17.2718 25.3106 15.876 26.1856C14.4801 27.0606 12.9385 27.4981 11.251 27.4981ZM11.251 24.9981C11.9385 24.9981 12.5999 24.8939 13.2354 24.6856C13.8708 24.4772 14.4593 24.1647 15.001 23.7481C13.7926 23.7481 12.6572 23.5189 11.5947 23.0606C10.5322 22.6022 9.60514 21.9772 8.81348 21.1856C8.02181 20.3939 7.39681 19.4668 6.93848 18.4043C6.48014 17.3418 6.25098 16.2064 6.25098 14.998C5.83431 15.5397 5.52181 16.1283 5.31348 16.7637C5.10514 17.3991 5.00098 18.0605 5.00098 18.748C5.00098 19.6231 5.16764 20.4356 5.50098 21.1856C5.83431 21.9356 6.28223 22.5918 6.84473 23.1543C7.40723 23.7168 8.06348 24.1647 8.81348 24.4981C9.56348 24.8314 10.376 24.9981 11.251 24.9981ZM15.001 21.2481C15.6885 21.2481 16.3604 21.1439 17.0166 20.9356C17.6729 20.7272 18.2718 20.4147 18.8135 19.9981C17.5843 19.9981 16.4385 19.7637 15.376 19.2949C14.3135 18.8262 13.3864 18.196 12.5947 17.4043C11.8031 16.6126 11.1729 15.6855 10.7041 14.623C10.2354 13.5605 10.001 12.4147 10.001 11.1855C9.58431 11.7272 9.27181 12.3262 9.06348 12.9824C8.85514 13.6387 8.75098 14.3105 8.75098 14.998C8.75098 15.873 8.91244 16.6855 9.23535 17.4355C9.55827 18.1855 10.0114 18.8418 10.5947 19.4043C11.1572 19.9876 11.8135 20.4408 12.5635 20.7637C13.3135 21.0866 14.126 21.2481 15.001 21.2481ZM18.751 17.498C19.126 17.498 19.4854 17.4668 19.8291 17.4043C20.1729 17.3418 20.5218 17.248 20.876 17.123C21.3343 15.873 21.402 14.6699 21.0791 13.5137C20.7562 12.3574 20.1989 11.3835 19.4072 10.5918C18.6156 9.80013 17.6416 9.24284 16.4854 8.91992C15.3291 8.59701 14.126 8.66471 12.876 9.12305C12.751 9.47722 12.6572 9.82617 12.5947 10.1699C12.5322 10.5137 12.501 10.873 12.501 11.248C12.501 12.123 12.6624 12.9355 12.9854 13.6855C13.3083 14.4355 13.7614 15.0918 14.3447 15.6543C14.9072 16.2376 15.5635 16.6908 16.3135 17.0137C17.0635 17.3366 17.876 17.498 18.751 17.498ZM23.751 15.0605C24.1676 14.5189 24.4801 13.9199 24.6885 13.2637C24.8968 12.6074 25.001 11.9355 25.001 11.248C25.001 10.373 24.8395 9.56055 24.5166 8.81055C24.1937 8.06055 23.7406 7.4043 23.1572 6.8418C22.5947 6.25846 21.9385 5.80534 21.1885 5.48242C20.4385 5.15951 19.626 4.99805 18.751 4.99805C18.0218 4.99805 17.3395 5.10221 16.7041 5.31055C16.0687 5.51888 15.4801 5.83138 14.9385 6.24805C16.1676 6.24805 17.3135 6.48242 18.376 6.95117C19.4385 7.41992 20.3656 8.05013 21.1572 8.8418C21.9489 9.63347 22.5791 10.5605 23.0479 11.623C23.5166 12.6855 23.751 13.8314 23.751 15.0605Z" fill="white"/>
</g>
<mask id="mask1_312_2472" style="mask-type:alpha" maskUnits="userSpaceOnUse" x="0" y="50" width="30" height="30">
<rect y="50" width="30" height="30" fill="#D9D9D9"/>
</mask>
<g mask="url(#mask1_312_2472)">
<path d="M11.25 76.25H6.25C5.5625 76.25 4.97396 76.0052 4.48438 75.5156C3.99479 75.026 3.75 74.4375 3.75 73.75V65C3.75 63.4375 4.04688 61.974 4.64063 60.6094C5.23438 59.2448 6.03646 58.0573 7.04688 57.0469C8.05729 56.0365 9.24479 55.2344 10.6094 54.6406C11.974 54.0469 13.4375 53.75 15 53.75C16.5625 53.75 18.026 54.0469 19.3906 54.6406C20.7552 55.2344 21.9427 56.0365 22.9531 57.0469C23.9635 58.0573 24.7656 59.2448 25.3594 60.6094C25.9531 61.974 26.25 63.4375 26.25 65V73.75C26.25 74.4375 26.0052 75.026 25.5156 75.5156C25.026 76.0052 24.4375 76.25 23.75 76.25H18.75V66.25H23.75V65C23.75 62.5625 22.901 60.4948 21.2031 58.7969C19.5052 57.099 17.4375 56.25 15 56.25C12.5625 56.25 10.4948 57.099 8.79687 58.7969C7.09896 60.4948 6.25 62.5625 6.25 65V66.25H11.25V76.25ZM8.75 68.75H6.25V73.75H8.75V68.75ZM21.25 68.75V73.75H23.75V68.75H21.25Z" fill="white"/>
</g>
<mask id="mask2_312_2472" style="mask-type:alpha" maskUnits="userSpaceOnUse" x="0" y="100" width="30" height="30">
<rect y="100" width="30" height="30" fill="#D9D9D9"/>
</mask>
<g mask="url(#mask2_312_2472)">
<path d="M19.9365 126.467L16.374 122.936L18.1553 121.186L19.9365 122.936L24.3428 118.529L26.124 120.279L19.9365 126.467ZM9.99902 127.498C9.64486 127.498 9.34798 127.378 9.1084 127.139C8.86882 126.899 8.74902 126.602 8.74902 126.248V106.248C8.74902 105.894 8.86882 105.597 9.1084 105.357C9.34798 105.118 9.64486 104.998 9.99902 104.998H12.499V102.498H17.499V104.998H19.999C20.3532 104.998 20.6501 105.118 20.8896 105.357C21.1292 105.597 21.249 105.894 21.249 106.248V114.998C20.8115 114.998 20.3844 115.035 19.9678 115.107C19.5511 115.18 19.1449 115.29 18.749 115.436V107.498H11.249V124.998H14.1865C14.3532 125.477 14.5563 125.925 14.7959 126.342C15.0355 126.758 15.3219 127.144 15.6553 127.498H9.99902Z" fill="white"/>
</g>
<mask id="mask3_312_2472" style="mask-type:alpha" maskUnits="userSpaceOnUse" x="0" y="150" width="30" height="30">
<rect y="150" width="30" height="30" fill="#D9D9D9"/>
</mask>
<g mask="url(#mask3_312_2472)">
<path d="M10.8135 175.623L3.12598 167.936C2.91764 167.727 2.76139 167.498 2.65723 167.248C2.55306 166.998 2.50098 166.738 2.50098 166.467C2.50098 166.196 2.55306 165.936 2.65723 165.686C2.76139 165.436 2.91764 165.206 3.12598 164.998L10.3135 157.842L7.00098 154.529L8.93848 152.498L21.4385 164.998C21.6468 165.206 21.7979 165.436 21.8916 165.686C21.9854 165.936 22.0322 166.196 22.0322 166.467C22.0322 166.738 21.9854 166.998 21.8916 167.248C21.7979 167.498 21.6468 167.727 21.4385 167.936L13.751 175.623C13.5426 175.831 13.3135 175.988 13.0635 176.092C12.8135 176.196 12.5531 176.248 12.2822 176.248C12.0114 176.248 11.751 176.196 11.501 176.092C11.251 175.988 11.0218 175.831 10.8135 175.623ZM12.2822 159.811L5.59473 166.498H18.9697L12.2822 159.811ZM24.751 176.248C24.001 176.248 23.3656 175.982 22.8447 175.451C22.3239 174.92 22.0635 174.269 22.0635 173.498C22.0635 172.936 22.2041 172.404 22.4854 171.904C22.7666 171.404 23.0843 170.915 23.4385 170.436L24.751 168.748L26.126 170.436C26.4593 170.915 26.7718 171.404 27.0635 171.904C27.3551 172.404 27.501 172.936 27.501 173.498C27.501 174.269 27.2301 174.92 26.6885 175.451C26.1468 175.982 25.501 176.248 24.751 176.248Z" fill="white"/>
</g>
<mask id="mask4_312_2472" style="mask-type:alpha" maskUnits="userSpaceOnUse" x="0" y="200" width="30" height="30">
<rect y="200" width="30" height="30" fill="#D9D9D9"/>
</mask>
<g mask="url(#mask4_312_2472)">
<path d="M7.49902 227.502C6.81152 227.502 6.22298 227.257 5.7334 226.768C5.24382 226.278 4.99902 225.689 4.99902 225.002V212.502C4.99902 211.814 5.24382 211.226 5.7334 210.736C6.22298 210.247 6.81152 210.002 7.49902 210.002H8.74902V207.502C8.74902 205.773 9.3584 204.299 10.5771 203.08C11.7959 201.861 13.2699 201.252 14.999 201.252C16.7282 201.252 18.2021 201.861 19.4209 203.08C20.6396 204.299 21.249 205.773 21.249 207.502V210.002H22.499C23.1865 210.002 23.7751 210.247 24.2646 210.736C24.7542 211.226 24.999 211.814 24.999 212.502V225.002C24.999 225.689 24.7542 226.278 24.2646 226.768C23.7751 227.257 23.1865 227.502 22.499 227.502H7.49902ZM7.49902 225.002H22.499V212.502H7.49902V225.002ZM14.999 221.252C15.6865 221.252 16.2751 221.007 16.7646 220.518C17.2542 220.028 17.499 219.439 17.499 218.752C17.499 218.064 17.2542 217.476 16.7646 216.986C16.2751 216.497 15.6865 216.252 14.999 216.252C14.3115 216.252 13.723 216.497 13.2334 216.986C12.7438 217.476 12.499 218.064 12.499 218.752C12.499 219.439 12.7438 220.028 13.2334 220.518C13.723 221.007 14.3115 221.252 14.999 221.252ZM11.249 210.002H18.749V207.502C18.749 206.46 18.3844 205.575 17.6553 204.846C16.9261 204.117 16.0407 203.752 14.999 203.752C13.9574 203.752 13.0719 204.117 12.3428 204.846C11.6136 205.575 11.249 206.46 11.249 207.502V210.002Z" fill="white"/>
</g>
<mask id="mask5_312_2472" style="mask-type:alpha" maskUnits="userSpaceOnUse" x="0" y="250" width="30" height="30">
<rect y="250" width="30" height="30" fill="#D9D9D9"/>
</mask>
<g mask="url(#mask5_312_2472)">
<path d="M8.75 266.25H21.25V263.75H8.75V266.25ZM6.25 276.25C5.5625 276.25 4.97396 276.005 4.48438 275.516C3.99479 275.026 3.75 274.438 3.75 273.75V256.25C3.75 255.562 3.99479 254.974 4.48438 254.484C4.97396 253.995 5.5625 253.75 6.25 253.75H23.75C24.4375 253.75 25.026 253.995 25.5156 254.484C26.0052 254.974 26.25 255.562 26.25 256.25V273.75C26.25 274.438 26.0052 275.026 25.5156 275.516C25.026 276.005 24.4375 276.25 23.75 276.25H6.25ZM6.25 273.75H23.75V256.25H6.25V273.75Z" fill="white"/>
</g>
<mask id="mask6_312_2472" style="mask-type:alpha" maskUnits="userSpaceOnUse" x="0" y="300" width="30" height="30">
<rect y="300" width="30" height="30" fill="#D9D9D9"/>
</mask>
<g mask="url(#mask6_312_2472)">
<path d="M11.251 318.127V316.252H18.751V318.127H11.251ZM10.001 314.377V312.502H20.001V314.377H10.001ZM8.75098 328.752C8.06348 328.752 7.47493 328.507 6.98535 328.018C6.49577 327.528 6.25098 326.939 6.25098 326.252V303.752C6.25098 303.064 6.49577 302.476 6.98535 301.986C7.47493 301.497 8.06348 301.252 8.75098 301.252H21.251C21.9385 301.252 22.527 301.497 23.0166 301.986C23.5062 302.476 23.751 303.064 23.751 303.752V326.252C23.751 326.939 23.5062 327.528 23.0166 328.018C22.527 328.507 21.9385 328.752 21.251 328.752H8.75098ZM8.75098 325.002V326.252H21.251V325.002H8.75098ZM8.75098 322.502H21.251V307.502H8.75098V322.502ZM8.75098 305.002H21.251V303.752H8.75098V305.002Z" fill="white"/>
</g>
<mask id="mask7_312_2472" style="mask-type:alpha" maskUnits="userSpaceOnUse" x="0" y="350" width="30" height="30">
<rect y="350" width="30" height="30" fill="#D9D9D9"/>
</mask>
<g mask="url(#mask7_312_2472)">
<path d="M6.25 376.25C5.5625 376.25 4.97396 376.005 4.48438 375.516C3.99479 375.026 3.75 374.438 3.75 373.75V356.25C3.75 355.562 3.99479 354.974 4.48438 354.484C4.97396 353.995 5.5625 353.75 6.25 353.75H23.75C24.4375 353.75 25.026 353.995 25.5156 354.484C26.0052 354.974 26.25 355.562 26.25 356.25V373.75C26.25 374.438 26.0052 375.026 25.5156 375.516C25.026 376.005 24.4375 376.25 23.75 376.25H6.25ZM7.5 365.719L12.5 360.719L17.5 365.719L22.5 360.719L23.75 361.969V356.25H6.25V364.469L7.5 365.719ZM6.25 373.75H23.75V365.5L22.5 364.25L17.5 369.25L12.5 364.25L7.5 369.25L6.25 368V373.75ZM6.25 373.75V365.5V368V356.25V373.75Z" fill="white"/>
</g>
<mask id="mask8_312_2472" style="mask-type:alpha" maskUnits="userSpaceOnUse" x="0" y="400" width="30" height="30">
<rect y="400" width="30" height="30" fill="#D9D9D9"/>
</mask>
<g mask="url(#mask8_312_2472)">
<path d="M3.75 425.002V421.502C3.75 420.794 3.93229 420.143 4.29687 419.549C4.66146 418.955 5.14583 418.502 5.75 418.189C7.04167 417.544 8.35417 417.059 9.6875 416.736C11.0208 416.413 12.375 416.252 13.75 416.252C14.1667 416.252 14.5833 416.268 15 416.299C15.4167 416.33 15.8333 416.377 16.25 416.439C16.1667 417.648 16.3854 418.788 16.9062 419.861C17.4271 420.934 18.1875 421.814 19.1875 422.502V425.002H3.75ZM23.75 428.752L21.875 426.877V421.064C20.9583 420.794 20.2083 420.278 19.625 419.518C19.0417 418.757 18.75 417.877 18.75 416.877C18.75 415.669 19.1771 414.637 20.0312 413.783C20.8854 412.929 21.9167 412.502 23.125 412.502C24.3333 412.502 25.3646 412.929 26.2187 413.783C27.0729 414.637 27.5 415.669 27.5 416.877C27.5 417.814 27.2344 418.648 26.7031 419.377C26.1719 420.106 25.5 420.627 24.6875 420.939L26.25 422.502L24.375 424.377L26.25 426.252L23.75 428.752ZM13.75 415.002C12.375 415.002 11.1979 414.512 10.2187 413.533C9.23958 412.554 8.75 411.377 8.75 410.002C8.75 408.627 9.23958 407.45 10.2187 406.471C11.1979 405.492 12.375 405.002 13.75 405.002C15.125 405.002 16.3021 405.492 17.2812 406.471C18.2604 407.45 18.75 408.627 18.75 410.002C18.75 411.377 18.2604 412.554 17.2812 413.533C16.3021 414.512 15.125 415.002 13.75 415.002ZM23.125 417.502C23.4792 417.502 23.776 417.382 24.0156 417.143C24.2552 416.903 24.375 416.606 24.375 416.252C24.375 415.898 24.2552 415.601 24.0156 415.361C23.776 415.122 23.4792 415.002 23.125 415.002C22.7708 415.002 22.474 415.122 22.2344 415.361C21.9948 415.601 21.875 415.898 21.875 416.252C21.875 416.606 21.9948 416.903 22.2344 417.143C22.474 417.382 22.7708 417.502 23.125 417.502Z" fill="white"/>
</g>
<mask id="mask9_312_2472" style="mask-type:alpha" maskUnits="userSpaceOnUse" x="0" y="450" width="30" height="30">
<rect y="450" width="30" height="30" fill="#D9D9D9"/>
</mask>
<g mask="url(#mask9_312_2472)">
<path d="M6.25 460V473.75H23.75V460H20V470L15 467.5L10 470V460H6.25ZM6.25 476.25C5.5625 476.25 4.97396 476.005 4.48438 475.516C3.99479 475.026 3.75 474.438 3.75 473.75V458.156C3.75 457.865 3.79688 457.583 3.89063 457.313C3.98438 457.042 4.125 456.792 4.3125 456.562L5.875 454.656C6.10417 454.365 6.39063 454.141 6.73438 453.984C7.07813 453.828 7.4375 453.75 7.8125 453.75H22.1875C22.5625 453.75 22.9219 453.828 23.2656 453.984C23.6094 454.141 23.8958 454.365 24.125 454.656L25.6875 456.562C25.875 456.792 26.0156 457.042 26.1094 457.313C26.2031 457.583 26.25 457.865 26.25 458.156V473.75C26.25 474.438 26.0052 475.026 25.5156 475.516C25.026 476.005 24.4375 476.25 23.75 476.25H6.25ZM6.75 457.5H23.25L22.1875 456.25H7.8125L6.75 457.5ZM12.5 460V465.938L15 464.688L17.5 465.938V460H12.5Z" fill="white"/>
</g>
<mask id="mask10_312_2472" style="mask-type:alpha" maskUnits="userSpaceOnUse" x="0" y="500" width="30" height="30">
<rect y="500" width="30" height="30" fill="#D9D9D9"/>
</mask>
<g mask="url(#mask10_312_2472)">
<path d="M10.75 519.5L6.25 515L10.75 510.5L12.5 512.281L9.78125 515L12.5 517.719L10.75 519.5ZM19.25 519.5L17.5 517.719L20.2188 515L17.5 512.281L19.25 510.5L23.75 515L19.25 519.5ZM6.25 526.25C5.5625 526.25 4.97396 526.005 4.48438 525.516C3.99479 525.026 3.75 524.438 3.75 523.75V518.75H6.25V523.75H11.25V526.25H6.25ZM18.75 526.25V523.75H23.75V518.75H26.25V523.75C26.25 524.438 26.0052 525.026 25.5156 525.516C25.026 526.005 24.4375 526.25 23.75 526.25H18.75ZM3.75 511.25V506.25C3.75 505.562 3.99479 504.974 4.48438 504.484C4.97396 503.995 5.5625 503.75 6.25 503.75H11.25V506.25H6.25V511.25H3.75ZM23.75 511.25V506.25H18.75V503.75H23.75C24.4375 503.75 25.026 503.995 25.5156 504.484C26.0052 504.974 26.25 505.562 26.25 506.25V511.25H23.75Z" fill="white"/>
</g>
<mask id="mask11_312_2472" style="mask-type:alpha" maskUnits="userSpaceOnUse" x="0" y="550" width="30" height="30">
<rect y="550" width="30" height="30" fill="#D9D9D9"/>
</mask>
<g mask="url(#mask11_312_2472)">
<path d="M6.25098 558.748V554.998C6.25098 554.311 6.49577 553.722 6.98535 553.232C7.47493 552.743 8.06348 552.498 8.75098 552.498H12.501V554.998H8.75098V558.748H6.25098ZM8.75098 577.498C8.06348 577.498 7.47493 577.253 6.98535 576.764C6.49577 576.274 6.25098 575.686 6.25098 574.998V571.248H8.75098V574.998H12.501V577.498H8.75098ZM21.251 558.748V554.998H17.501V552.498H21.251C21.9385 552.498 22.527 552.743 23.0166 553.232C23.5062 553.722 23.751 554.311 23.751 554.998V558.748H21.251ZM17.501 577.498V574.998H21.251V571.248H23.751V574.998C23.751 575.686 23.5062 576.274 23.0166 576.764C22.527 577.253 21.9385 577.498 21.251 577.498H17.501Z" fill="white"/>
</g>
<mask id="mask12_312_2472" style="mask-type:alpha" maskUnits="userSpaceOnUse" x="0" y="600" width="30" height="30">
<rect y="600" width="30" height="30" fill="#D9D9D9"/>
</mask>
<g mask="url(#mask12_312_2472)">
<path d="M5.00098 625.002C4.31348 625.002 3.72494 624.757 3.23535 624.268C2.74577 623.778 2.50098 623.189 2.50098 622.502V607.502C2.50098 606.814 2.74577 606.226 3.23535 605.736C3.72494 605.247 4.31348 605.002 5.00098 605.002H25.001C25.6885 605.002 26.277 605.247 26.7666 605.736C27.2562 606.226 27.501 606.814 27.501 607.502V622.502C27.501 623.189 27.2562 623.778 26.7666 624.268C26.277 624.757 25.6885 625.002 25.001 625.002H5.00098ZM5.00098 622.502H25.001V610.002H5.00098V622.502ZM9.37598 621.252L7.62598 619.502L10.8447 616.252L7.59473 613.002L9.37598 611.252L14.376 616.252L9.37598 621.252ZM15.001 621.252V618.752H22.501V621.252H15.001Z" fill="white"/>
</g>
<mask id="mask13_312_2472" style="mask-type:alpha" maskUnits="userSpaceOnUse" x="0" y="650" width="30" height="30">
<rect y="650" width="30" height="30" fill="#D9D9D9"/>
</mask>
<g mask="url(#mask13_312_2472)">
<path d="M21.251 659.998C20.8968 659.998 20.5999 659.878 20.3604 659.639C20.1208 659.399 20.001 659.102 20.001 658.748C20.001 658.394 20.1208 658.097 20.3604 657.857C20.5999 657.618 20.8968 657.498 21.251 657.498C21.6051 657.498 21.902 657.618 22.1416 657.857C22.3812 658.097 22.501 658.394 22.501 658.748C22.501 659.102 22.3812 659.399 22.1416 659.639C21.902 659.878 21.6051 659.998 21.251 659.998ZM11.251 667.498L14.626 663.123L16.5635 665.623L19.4385 661.873L23.751 667.498H11.251ZM5.00098 677.498C4.31348 677.498 3.72494 677.253 3.23535 676.764C2.74577 676.274 2.50098 675.686 2.50098 674.998V657.498H5.00098V674.998H22.501V677.498H5.00098ZM7.50098 661.717V654.998C7.50098 654.311 7.74577 653.722 8.23535 653.232C8.72494 652.743 9.31348 652.498 10.001 652.498H16.251V654.998H10.001V661.717H7.50098ZM10.001 672.498C9.31348 672.498 8.72494 672.253 8.23535 671.764C7.74577 671.274 7.50098 670.686 7.50098 669.998V664.217H10.001V669.998H16.251V672.498H10.001ZM18.751 672.498V669.998H25.001V664.217H27.501V669.998C27.501 670.686 27.2562 671.274 26.7666 671.764C26.277 672.253 25.6885 672.498 25.001 672.498H18.751ZM25.001 661.717V654.998H18.751V652.498H25.001C25.6885 652.498 26.277 652.743 26.7666 653.232C27.2562 653.722 27.501 654.311 27.501 654.998V661.717H25.001Z" fill="white"/>
</g>
</svg>
