<svg width="14" height="272" viewBox="0 0 14 272" fill="none" xmlns="http://www.w3.org/2000/svg">
<mask id="mask0_311_25" style="mask-type:alpha" maskUnits="userSpaceOnUse" x="0" y="0" width="13" height="24">
<rect width="13" height="24" fill="#D9D9D9"/>
</mask>
<g mask="url(#mask0_311_25)">
<path d="M7 19C6.56 19 6.18333 18.8531 5.87 18.5594C5.55667 18.2656 5.4 17.9125 5.4 17.5H8.6C8.6 17.9125 8.44333 18.2656 8.13 18.5594C7.81667 18.8531 7.44 19 7 19ZM3.8 16.75V15.25H10.2V16.75H3.8ZM4 14.5C3.08 13.9875 2.35 13.3 1.81 12.4375C1.27 11.575 1 10.6375 1 9.625C1 8.0625 1.58333 6.73438 2.75 5.64062C3.91667 4.54688 5.33333 4 7 4C8.66667 4 10.0833 4.54688 11.25 5.64062C12.4167 6.73438 13 8.0625 13 9.625C13 10.6375 12.73 11.575 12.19 12.4375C11.65 13.3 10.92 13.9875 10 14.5H4ZM4.48 13H9.52C10.12 12.6 10.5833 12.1063 10.91 11.5188C11.2367 10.9313 11.4 10.3 11.4 9.625C11.4 8.475 10.9733 7.5 10.12 6.7C9.26667 5.9 8.22667 5.5 7 5.5C5.77333 5.5 4.73333 5.9 3.88 6.7C3.02667 7.5 2.6 8.475 2.6 9.625C2.6 10.3 2.76333 10.9313 3.09 11.5188C3.41667 12.1063 3.88 12.6 4.48 13Z" fill="#525252"/>
</g>
<mask id="mask1_311_25" style="mask-type:alpha" maskUnits="userSpaceOnUse" x="1" y="50" width="13" height="24">
<rect x="1" y="50" width="13" height="24" fill="#D9D9D9"/>
</mask>
<g mask="url(#mask1_311_25)">
<path d="M8 69C7.56 69 7.18333 68.8531 6.87 68.5594C6.55667 68.2656 6.4 67.9125 6.4 67.5H9.6C9.6 67.9125 9.44333 68.2656 9.13 68.5594C8.81667 68.8531 8.44 69 8 69ZM4.8 66.75V65.25H11.2V66.75H4.8ZM5 64.5C4.08 63.9875 3.35 63.3 2.81 62.4375C2.27 61.575 2 60.6375 2 59.625C2 58.0625 2.58333 56.7344 3.75 55.6406C4.91667 54.5469 6.33333 54 8 54C9.66667 54 11.0833 54.5469 12.25 55.6406C13.4167 56.7344 14 58.0625 14 59.625C14 60.6375 13.73 61.575 13.19 62.4375C12.65 63.3 11.92 63.9875 11 64.5H5ZM5.48 63H10.52C11.12 62.6 11.5833 62.1063 11.91 61.5188C12.2367 60.9313 12.4 60.3 12.4 59.625C12.4 58.475 11.9733 57.5 11.12 56.7C10.2667 55.9 9.22667 55.5 8 55.5C6.77333 55.5 5.73333 55.9 4.88 56.7C4.02667 57.5 3.6 58.475 3.6 59.625C3.6 60.3 3.76333 60.9313 4.09 61.5188C4.41667 62.1063 4.88 62.6 5.48 63Z" fill="#525252"/>
</g>
<mask id="mask2_311_25" style="mask-type:alpha" maskUnits="userSpaceOnUse" x="1" y="100" width="13" height="24">
<rect x="1" y="100" width="13" height="24" fill="#D9D9D9"/>
</mask>
<g mask="url(#mask2_311_25)">
<path d="M8 119C7.56 119 7.18333 118.853 6.87 118.559C6.55667 118.266 6.4 117.913 6.4 117.5H9.6C9.6 117.913 9.44333 118.266 9.13 118.559C8.81667 118.853 8.44 119 8 119ZM4.8 116.75V115.25H11.2V116.75H4.8ZM5 114.5C4.08 113.988 3.35 113.3 2.81 112.438C2.27 111.575 2 110.637 2 109.625C2 108.062 2.58333 106.734 3.75 105.641C4.91667 104.547 6.33333 104 8 104C9.66667 104 11.0833 104.547 12.25 105.641C13.4167 106.734 14 108.062 14 109.625C14 110.637 13.73 111.575 13.19 112.438C12.65 113.3 11.92 113.988 11 114.5H5ZM5.48 113H10.52C11.12 112.6 11.5833 112.106 11.91 111.519C12.2367 110.931 12.4 110.3 12.4 109.625C12.4 108.475 11.9733 107.5 11.12 106.7C10.2667 105.9 9.22667 105.5 8 105.5C6.77333 105.5 5.73333 105.9 4.88 106.7C4.02667 107.5 3.6 108.475 3.6 109.625C3.6 110.3 3.76333 110.931 4.09 111.519C4.41667 112.106 4.88 112.6 5.48 113Z" fill="#525252"/>
</g>
<mask id="mask3_311_25" style="mask-type:alpha" maskUnits="userSpaceOnUse" x="1" y="150" width="13" height="24">
<rect x="1" y="150" width="13" height="24" fill="#D9D9D9"/>
</mask>
<g mask="url(#mask3_311_25)">
<path d="M8 169C7.56 169 7.18333 168.853 6.87 168.559C6.55667 168.266 6.4 167.913 6.4 167.5H9.6C9.6 167.913 9.44333 168.266 9.13 168.559C8.81667 168.853 8.44 169 8 169ZM4.8 166.75V165.25H11.2V166.75H4.8ZM5 164.5C4.08 163.988 3.35 163.3 2.81 162.438C2.27 161.575 2 160.637 2 159.625C2 158.062 2.58333 156.734 3.75 155.641C4.91667 154.547 6.33333 154 8 154C9.66667 154 11.0833 154.547 12.25 155.641C13.4167 156.734 14 158.062 14 159.625C14 160.637 13.73 161.575 13.19 162.438C12.65 163.3 11.92 163.988 11 164.5H5ZM5.48 163H10.52C11.12 162.6 11.5833 162.106 11.91 161.519C12.2367 160.931 12.4 160.3 12.4 159.625C12.4 158.475 11.9733 157.5 11.12 156.7C10.2667 155.9 9.22667 155.5 8 155.5C6.77333 155.5 5.73333 155.9 4.88 156.7C4.02667 157.5 3.6 158.475 3.6 159.625C3.6 160.3 3.76333 160.931 4.09 161.519C4.41667 162.106 4.88 162.6 5.48 163Z" fill="#525252"/>
</g>
<mask id="mask4_311_25" style="mask-type:alpha" maskUnits="userSpaceOnUse" x="1" y="200" width="13" height="24">
<rect x="1" y="200" width="13" height="24" fill="#D9D9D9"/>
</mask>
<g mask="url(#mask4_311_25)">
<path d="M8 219C7.56 219 7.18333 218.853 6.87 218.559C6.55667 218.266 6.4 217.913 6.4 217.5H9.6C9.6 217.913 9.44333 218.266 9.13 218.559C8.81667 218.853 8.44 219 8 219ZM4.8 216.75V215.25H11.2V216.75H4.8ZM5 214.5C4.08 213.988 3.35 213.3 2.81 212.438C2.27 211.575 2 210.637 2 209.625C2 208.062 2.58333 206.734 3.75 205.641C4.91667 204.547 6.33333 204 8 204C9.66667 204 11.0833 204.547 12.25 205.641C13.4167 206.734 14 208.062 14 209.625C14 210.637 13.73 211.575 13.19 212.438C12.65 213.3 11.92 213.988 11 214.5H5ZM5.48 213H10.52C11.12 212.6 11.5833 212.106 11.91 211.519C12.2367 210.931 12.4 210.3 12.4 209.625C12.4 208.475 11.9733 207.5 11.12 206.7C10.2667 205.9 9.22667 205.5 8 205.5C6.77333 205.5 5.73333 205.9 4.88 206.7C4.02667 207.5 3.6 208.475 3.6 209.625C3.6 210.3 3.76333 210.931 4.09 211.519C4.41667 212.106 4.88 212.6 5.48 213Z" fill="#525252"/>
</g>
<mask id="mask5_311_25" style="mask-type:alpha" maskUnits="userSpaceOnUse" x="1" y="248" width="13" height="24">
<rect x="1" y="248" width="13" height="24" fill="#D9D9D9"/>
</mask>
<g mask="url(#mask5_311_25)">
<path d="M8 267C7.56 267 7.18333 266.853 6.87 266.559C6.55667 266.266 6.4 265.913 6.4 265.5H9.6C9.6 265.913 9.44333 266.266 9.13 266.559C8.81667 266.853 8.44 267 8 267ZM4.8 264.75V263.25H11.2V264.75H4.8ZM5 262.5C4.08 261.988 3.35 261.3 2.81 260.438C2.27 259.575 2 258.637 2 257.625C2 256.062 2.58333 254.734 3.75 253.641C4.91667 252.547 6.33333 252 8 252C9.66667 252 11.0833 252.547 12.25 253.641C13.4167 254.734 14 256.062 14 257.625C14 258.637 13.73 259.575 13.19 260.438C12.65 261.3 11.92 261.988 11 262.5H5ZM5.48 261H10.52C11.12 260.6 11.5833 260.106 11.91 259.519C12.2367 258.931 12.4 258.3 12.4 257.625C12.4 256.475 11.9733 255.5 11.12 254.7C10.2667 253.9 9.22667 253.5 8 253.5C6.77333 253.5 5.73333 253.9 4.88 254.7C4.02667 255.5 3.6 256.475 3.6 257.625C3.6 258.3 3.76333 258.931 4.09 259.519C4.41667 260.106 4.88 260.6 5.48 261Z" fill="#525252"/>
</g>
</svg>
