<svg width="442" height="416" viewBox="0 0 442 416" fill="none" xmlns="http://www.w3.org/2000/svg">
<rect x="112" width="150" height="298" fill="#F75E5E"/>
<rect x="219" y="82" width="98" height="216" fill="#1B1D21"/>
<rect x="287" y="156" width="98" height="182" rx="49" fill="#E6CB0C"/>
<rect x="269" y="298" width="173" height="74" fill="#5138EE"/>
<path d="M236 289.5C236 356.05 184.737 410 121.5 410C58.2634 410 7 356.05 7 289.5C7 222.95 58.2634 169 121.5 169C184.737 169 236 222.95 236 289.5Z" fill="#FF8533"/>
<rect y="298" width="262" height="118" fill="#5138EE"/>
<circle cx="179.5" cy="27.5" r="7.5" fill="#FFFFF8"/>
<circle cx="179.5" cy="27.5" r="7.5" fill="#FFFFF8"/>
<circle cx="209.5" cy="27.5" r="7.5" fill="#FFFFF8"/>
<circle cx="209.5" cy="27.5" r="7.5" fill="#FFFFF8"/>
<circle cx="177" cy="26" r="4" fill="#1F1C16"/>
<circle cx="207" cy="26" r="4" fill="#1F1C16"/>
<rect x="194" y="35" width="4" height="24" fill="#1F1C16"/>
<circle cx="317.5" cy="104.5" r="7.5" fill="#FFFFF8"/>
<circle cx="297.5" cy="104.5" r="7.5" fill="#FFFFF8"/>
<circle cx="320" cy="107" r="4" fill="#1F1C16"/>
<circle cx="300" cy="107" r="4" fill="#1F1C16"/>
<circle cx="354" cy="183" r="4" fill="#1F1C16"/>
<path d="M108 229C108 231.209 106.209 233 104 233C101.791 233 100 231.209 100 229C100 226.791 101.791 230.5 104 230.5C106.209 230.5 108 226.791 108 229Z" fill="#1F1C16"/>
<path d="M156 229C156 231.209 154.209 233 152 233C149.791 233 148 231.209 148 229C148 226.791 149.791 230.5 152 230.5C154.209 230.5 156 226.791 156 229Z" fill="#1F1C16"/>
<rect x="358" y="201" width="41" height="3" fill="#1F1C16"/>
<rect x="358" y="201.076" width="41" height="3" transform="rotate(-15.6724 358 201.076)" fill="#1F1C16"/>
<path d="M141 250.5C139 253 135.404 256 128.5 256C121.596 256 118.5 253.5 116 250.5C116 247.462 121.596 245 128.5 245C135.404 245 141 247.462 141 250.5Z" fill="#1F1C16"/>
<rect x="115" y="241" width="28" height="9" fill="#FF8533"/>
</svg>
