<svg width="30" height="368" viewBox="0 0 30 368" fill="none" xmlns="http://www.w3.org/2000/svg">
<mask id="mask0_307_1708" style="mask-type:alpha" maskUnits="userSpaceOnUse" x="0" y="0" width="30" height="30">
<rect width="30" height="30" fill="#D9D9D9"/>
</mask>
<g mask="url(#mask0_307_1708)">
<path d="M17.5 13.75H26.25V7.5H17.5V13.75ZM21.875 12.1875L18.75 10V8.75L21.875 10.9375L25 8.75V10L21.875 12.1875ZM2.5 26.25C1.8125 26.25 1.22396 26.0052 0.734375 25.5156C0.244792 25.026 0 24.4375 0 23.75V6.25C0 5.5625 0.244792 4.97396 0.734375 4.48438C1.22396 3.99479 1.8125 3.75 2.5 3.75H27.5C28.1875 3.75 28.776 3.99479 29.2656 4.48438C29.7552 4.97396 30 5.5625 30 6.25V23.75C30 24.4375 29.7552 25.026 29.2656 25.5156C28.776 26.0052 28.1875 26.25 27.5 26.25H2.5ZM19.875 23.75H27.5V6.25H2.5V23.75H2.625C3.5 22.1875 4.70833 20.9635 6.25 20.0781C7.79167 19.1927 9.45833 18.75 11.25 18.75C13.0417 18.75 14.7083 19.1927 16.25 20.0781C17.7917 20.9635 19 22.1875 19.875 23.75ZM11.25 17.5C12.2917 17.5 13.1771 17.1354 13.9062 16.4062C14.6354 15.6771 15 14.7917 15 13.75C15 12.7083 14.6354 11.8229 13.9062 11.0938C13.1771 10.3646 12.2917 10 11.25 10C10.2083 10 9.32292 10.3646 8.59375 11.0938C7.86458 11.8229 7.5 12.7083 7.5 13.75C7.5 14.7917 7.86458 15.6771 8.59375 16.4062C9.32292 17.1354 10.2083 17.5 11.25 17.5ZM5.6875 23.75H16.8125C16.1042 22.9583 15.2656 22.3438 14.2969 21.9062C13.3281 21.4688 12.3125 21.25 11.25 21.25C10.1875 21.25 9.17708 21.4688 8.21875 21.9062C7.26042 22.3438 6.41667 22.9583 5.6875 23.75ZM11.25 15C10.8958 15 10.599 14.8802 10.3594 14.6406C10.1198 14.401 10 14.1042 10 13.75C10 13.3958 10.1198 13.099 10.3594 12.8594C10.599 12.6198 10.8958 12.5 11.25 12.5C11.6042 12.5 11.901 12.6198 12.1406 12.8594C12.3802 13.099 12.5 13.3958 12.5 13.75C12.5 14.1042 12.3802 14.401 12.1406 14.6406C11.901 14.8802 11.6042 15 11.25 15Z" fill="white"/>
</g>
<mask id="mask1_307_1708" style="mask-type:alpha" maskUnits="userSpaceOnUse" x="0" y="49" width="30" height="30">
<rect y="49" width="30" height="30" fill="#D9D9D9"/>
</mask>
<g mask="url(#mask1_307_1708)">
<path d="M5 74C4.3125 74 3.72396 73.7552 3.23438 73.2656C2.74479 72.776 2.5 72.1875 2.5 71.5V56.5C2.5 55.8125 2.74479 55.224 3.23438 54.7344C3.72396 54.2448 4.3125 54 5 54H17.625C17.5417 54.4167 17.5 54.8333 17.5 55.25C17.5 55.6667 17.5417 56.0833 17.625 56.5H5L15 62.75L19.5625 59.9062C19.8542 60.1771 20.1719 60.4115 20.5156 60.6094C20.8594 60.8073 21.2188 60.9792 21.5938 61.125L15 65.25L5 59V71.5H25V61.375C25.4792 61.2708 25.9271 61.125 26.3438 60.9375C26.7604 60.75 27.1458 60.5208 27.5 60.25V71.5C27.5 72.1875 27.2552 72.776 26.7656 73.2656C26.276 73.7552 25.6875 74 25 74H5ZM23.75 59C22.7083 59 21.8229 58.6354 21.0938 57.9062C20.3646 57.1771 20 56.2917 20 55.25C20 54.2083 20.3646 53.3229 21.0938 52.5938C21.8229 51.8646 22.7083 51.5 23.75 51.5C24.7917 51.5 25.6771 51.8646 26.4062 52.5938C27.1354 53.3229 27.5 54.2083 27.5 55.25C27.5 56.2917 27.1354 57.1771 26.4062 57.9062C25.6771 58.6354 24.7917 59 23.75 59Z" fill="white"/>
</g>
<mask id="mask2_307_1708" style="mask-type:alpha" maskUnits="userSpaceOnUse" x="0" y="147" width="30" height="30">
<rect y="147" width="30" height="30" fill="#D9D9D9"/>
</mask>
<g mask="url(#mask2_307_1708)">
<path d="M15 152V149.5H27.5V152H15ZM15 157V154.5H27.5V157H15ZM15 162V159.5H27.5V162H15ZM23.6875 174.5C21.0833 174.5 18.5104 173.932 15.9688 172.797C13.4271 171.661 11.1146 170.052 9.03125 167.969C6.94792 165.885 5.33854 163.573 4.20313 161.031C3.06771 158.49 2.5 155.917 2.5 153.312C2.5 152.938 2.625 152.625 2.875 152.375C3.125 152.125 3.4375 152 3.8125 152H8.875C9.16667 152 9.42708 152.099 9.65625 152.297C9.88542 152.495 10.0208 152.729 10.0625 153L10.875 157.375C10.9167 157.708 10.9062 157.99 10.8438 158.219C10.7812 158.448 10.6667 158.646 10.5 158.812L7.46875 161.875C7.88542 162.646 8.38021 163.391 8.95312 164.109C9.52604 164.828 10.1562 165.521 10.8438 166.188C11.4896 166.833 12.1667 167.432 12.875 167.984C13.5833 168.536 14.3333 169.042 15.125 169.5L18.0625 166.562C18.25 166.375 18.4948 166.234 18.7969 166.141C19.099 166.047 19.3958 166.021 19.6875 166.062L24 166.938C24.2917 167.021 24.5312 167.172 24.7188 167.391C24.9062 167.609 25 167.854 25 168.125V173.188C25 173.563 24.875 173.875 24.625 174.125C24.375 174.375 24.0625 174.5 23.6875 174.5ZM6.28125 159.5L8.34375 157.438L7.8125 154.5H5.03125C5.13542 155.354 5.28125 156.198 5.46875 157.031C5.65625 157.865 5.92708 158.688 6.28125 159.5ZM17.4688 170.688C18.2813 171.042 19.1094 171.323 19.9531 171.531C20.7969 171.74 21.6458 171.875 22.5 171.938V169.188L19.5625 168.594L17.4688 170.688Z" fill="white"/>
</g>
<mask id="mask3_307_1708" style="mask-type:alpha" maskUnits="userSpaceOnUse" x="0" y="98" width="30" height="30">
<rect y="98" width="30" height="30" fill="#D9D9D9"/>
</mask>
<g mask="url(#mask3_307_1708)">
<path d="M24.9375 124.25C22.3333 124.25 19.7604 123.682 17.2188 122.547C14.6771 121.411 12.3646 119.802 10.2812 117.719C8.19792 115.635 6.58854 113.323 5.45313 110.781C4.31771 108.24 3.75 105.667 3.75 103.063C3.75 102.688 3.875 102.375 4.125 102.125C4.375 101.875 4.6875 101.75 5.0625 101.75H10.125C10.4167 101.75 10.6771 101.849 10.9062 102.047C11.1354 102.245 11.2708 102.479 11.3125 102.75L12.125 107.125C12.1667 107.458 12.1562 107.74 12.0938 107.969C12.0312 108.198 11.9167 108.396 11.75 108.563L8.71875 111.625C9.13542 112.396 9.63021 113.141 10.2031 113.859C10.776 114.578 11.4062 115.271 12.0938 115.938C12.7396 116.583 13.4167 117.182 14.125 117.734C14.8333 118.286 15.5833 118.792 16.375 119.25L19.3125 116.313C19.5 116.125 19.7448 115.984 20.0469 115.891C20.349 115.797 20.6458 115.771 20.9375 115.812L25.25 116.688C25.5417 116.771 25.7812 116.922 25.9688 117.141C26.1562 117.359 26.25 117.604 26.25 117.875V122.938C26.25 123.313 26.125 123.625 25.875 123.875C25.625 124.125 25.3125 124.25 24.9375 124.25ZM7.53125 109.25L9.59375 107.188L9.0625 104.25H6.28125C6.38542 105.104 6.53125 105.948 6.71875 106.781C6.90625 107.615 7.17708 108.438 7.53125 109.25ZM18.7188 120.438C19.5313 120.792 20.3594 121.073 21.2031 121.281C22.0469 121.49 22.8958 121.625 23.75 121.688V118.938L20.8125 118.344L18.7188 120.438Z" fill="white"/>
</g>
<mask id="mask4_307_1708" style="mask-type:alpha" maskUnits="userSpaceOnUse" x="0" y="196" width="30" height="30">
<rect y="196" width="30" height="30" fill="#D9D9D9"/>
</mask>
<g mask="url(#mask4_307_1708)">
<path d="M0 217.25V208.5H2.5V217.25H0ZM3.75 213.5V204.75H6.25V213.5H3.75ZM10 223.5C9.3125 223.5 8.72396 223.255 8.23438 222.766C7.74479 222.276 7.5 221.688 7.5 221V201C7.5 200.312 7.74479 199.724 8.23438 199.234C8.72396 198.745 9.3125 198.5 10 198.5H20C20.6875 198.5 21.276 198.745 21.7656 199.234C22.2552 199.724 22.5 200.312 22.5 201V221C22.5 221.688 22.2552 222.276 21.7656 222.766C21.276 223.255 20.6875 223.5 20 223.5H10ZM20 219.75H10V221H20V219.75ZM10 217.25H20V204.75H10V217.25ZM10 202.25H20V201H10V202.25ZM23.75 217.25V208.5H26.25V217.25H23.75ZM27.5 213.5V204.75H30V213.5H27.5Z" fill="white"/>
</g>
<mask id="mask5_307_1708" style="mask-type:alpha" maskUnits="userSpaceOnUse" x="0" y="245" width="30" height="30">
<rect y="245" width="30" height="30" fill="#D9D9D9"/>
</mask>
<g mask="url(#mask5_307_1708)">
<path d="M22.5 272.5C21.4583 272.5 20.5729 272.135 19.8438 271.406C19.1146 270.677 18.75 269.792 18.75 268.75C18.75 268.604 18.7604 268.453 18.7813 268.297C18.8021 268.141 18.8333 268 18.875 267.875L10.0625 262.75C9.70833 263.062 9.3125 263.307 8.875 263.484C8.4375 263.661 7.97917 263.75 7.5 263.75C6.45833 263.75 5.57292 263.385 4.84375 262.656C4.11458 261.927 3.75 261.042 3.75 260C3.75 258.958 4.11458 258.073 4.84375 257.344C5.57292 256.615 6.45833 256.25 7.5 256.25C7.97917 256.25 8.4375 256.339 8.875 256.516C9.3125 256.693 9.70833 256.938 10.0625 257.25L18.875 252.125C18.8333 252 18.8021 251.859 18.7813 251.703C18.7604 251.547 18.75 251.396 18.75 251.25C18.75 250.208 19.1146 249.323 19.8438 248.594C20.5729 247.865 21.4583 247.5 22.5 247.5C23.5417 247.5 24.4271 247.865 25.1562 248.594C25.8854 249.323 26.25 250.208 26.25 251.25C26.25 252.292 25.8854 253.177 25.1562 253.906C24.4271 254.635 23.5417 255 22.5 255C22.0208 255 21.5625 254.911 21.125 254.734C20.6875 254.557 20.2917 254.313 19.9375 254L11.125 259.125C11.1667 259.25 11.1979 259.391 11.2188 259.547C11.2396 259.703 11.25 259.854 11.25 260C11.25 260.146 11.2396 260.297 11.2188 260.453C11.1979 260.609 11.1667 260.75 11.125 260.875L19.9375 266C20.2917 265.688 20.6875 265.443 21.125 265.266C21.5625 265.089 22.0208 265 22.5 265C23.5417 265 24.4271 265.365 25.1562 266.094C25.8854 266.823 26.25 267.708 26.25 268.75C26.25 269.792 25.8854 270.677 25.1562 271.406C24.4271 272.135 23.5417 272.5 22.5 272.5ZM22.5 252.5C22.8542 252.5 23.151 252.38 23.3906 252.141C23.6302 251.901 23.75 251.604 23.75 251.25C23.75 250.896 23.6302 250.599 23.3906 250.359C23.151 250.12 22.8542 250 22.5 250C22.1458 250 21.849 250.12 21.6094 250.359C21.3698 250.599 21.25 250.896 21.25 251.25C21.25 251.604 21.3698 251.901 21.6094 252.141C21.849 252.38 22.1458 252.5 22.5 252.5ZM7.5 261.25C7.85417 261.25 8.15104 261.13 8.39062 260.891C8.63021 260.651 8.75 260.354 8.75 260C8.75 259.646 8.63021 259.349 8.39062 259.109C8.15104 258.87 7.85417 258.75 7.5 258.75C7.14583 258.75 6.84896 258.87 6.60938 259.109C6.36979 259.349 6.25 259.646 6.25 260C6.25 260.354 6.36979 260.651 6.60938 260.891C6.84896 261.13 7.14583 261.25 7.5 261.25ZM22.5 270C22.8542 270 23.151 269.88 23.3906 269.641C23.6302 269.401 23.75 269.104 23.75 268.75C23.75 268.396 23.6302 268.099 23.3906 267.859C23.151 267.62 22.8542 267.5 22.5 267.5C22.1458 267.5 21.849 267.62 21.6094 267.859C21.3698 268.099 21.25 268.396 21.25 268.75C21.25 269.104 21.3698 269.401 21.6094 269.641C21.849 269.88 22.1458 270 22.5 270Z" fill="white"/>
</g>
<mask id="mask6_307_1708" style="mask-type:alpha" maskUnits="userSpaceOnUse" x="0" y="294" width="30" height="30">
<rect y="294" width="30" height="30" fill="#D9D9D9"/>
</mask>
<g mask="url(#mask6_307_1708)">
<path d="M7.5 311.5H17.5V309H7.5V311.5ZM7.5 307.75H22.5V305.25H7.5V307.75ZM7.5 304H22.5V301.5H7.5V304ZM2.5 321.5V299C2.5 298.312 2.74479 297.724 3.23438 297.234C3.72396 296.745 4.3125 296.5 5 296.5H25C25.6875 296.5 26.276 296.745 26.7656 297.234C27.2552 297.724 27.5 298.312 27.5 299V314C27.5 314.688 27.2552 315.276 26.7656 315.766C26.276 316.255 25.6875 316.5 25 316.5H7.5L2.5 321.5ZM6.4375 314H25V299H5V315.406L6.4375 314Z" fill="white"/>
</g>
<path d="M26.6613 347.305L28.5 344.957C29.0323 344.321 29.1774 343.832 29.2258 343.587C27.7742 344.468 26.4194 344.761 25.5484 344.761H25.2097L25.0161 344.566C23.8548 343.538 22.4032 343 20.8548 343C17.4677 343 14.8065 345.838 14.8065 349.115C14.8065 349.311 14.8065 349.605 14.8548 349.8L15 350.779L13.9839 350.73C7.79032 350.534 2.70968 345.153 1.8871 344.223C0.532258 346.669 1.30645 349.018 2.12903 350.485L3.77419 353.225L1.16129 351.757C1.20968 353.812 1.98387 355.427 3.48387 356.601L4.79032 357.579L3.48387 358.117C4.30645 360.613 6.14516 361.64 7.5 362.031L9.29032 362.521L7.59677 363.695C4.8871 365.652 1.5 365.505 0 365.358C3.04839 367.511 6.67742 368 9.19355 368C11.0806 368 12.4839 367.804 12.8226 367.658C26.371 364.429 27 352.198 27 349.751V349.409L27.2903 349.213C28.9355 347.648 29.6129 346.816 30 346.327C29.8548 346.376 29.6613 346.474 29.4677 346.523L26.6613 347.305Z" fill="white"/>
</svg>
