<svg width="122" height="25" viewBox="0 0 122 25" fill="none" xmlns="http://www.w3.org/2000/svg">
<rect width="122" height="25" rx="12.5" fill="#1A1F35"/>
<path d="M31.7159 6.04589C32.1079 5.52302 32.8921 5.52302 33.2841 6.04589L35.3466 8.79694C35.4739 8.9667 35.6528 9.09057 35.8565 9.14993L39.1833 10.1196C39.8518 10.3145 40.1095 11.1249 39.6763 11.6701L37.6409 14.2315C37.5001 14.4087 37.425 14.6292 37.4283 14.8556L37.4761 18.1084C37.486 18.7785 36.8355 19.2605 36.1973 19.0561L32.7989 17.9677C32.6045 17.9055 32.3955 17.9055 32.2011 17.9677L28.8027 19.0561C28.1645 19.2605 27.514 18.7785 27.5239 18.1084L27.5717 14.8556C27.575 14.6292 27.4999 14.4087 27.3591 14.2315L25.3237 11.6701C24.8905 11.1249 25.1482 10.3145 25.8167 10.1196L29.1435 9.14993C29.3472 9.09057 29.5261 8.9667 29.6534 8.79694L31.7159 6.04589Z" fill="#FAE84B"/>
<path d="M51.7159 6.04589C52.1079 5.52302 52.8921 5.52302 53.2841 6.04589L55.3466 8.79694C55.4739 8.9667 55.6528 9.09057 55.8565 9.14993L59.1833 10.1196C59.8518 10.3145 60.1095 11.1249 59.6763 11.6701L57.6409 14.2315C57.5001 14.4087 57.425 14.6292 57.4283 14.8556L57.4761 18.1084C57.486 18.7785 56.8355 19.2605 56.1973 19.0561L52.7989 17.9677C52.6045 17.9055 52.3955 17.9055 52.2011 17.9677L48.8027 19.0561C48.1645 19.2605 47.514 18.7785 47.5239 18.1084L47.5717 14.8556C47.575 14.6292 47.4999 14.4087 47.3591 14.2315L45.3237 11.6701C44.8905 11.1249 45.1482 10.3145 45.8167 10.1196L49.1435 9.14993C49.3472 9.09057 49.5261 8.9667 49.6534 8.79694L51.7159 6.04589Z" fill="#FAE84B"/>
<path d="M71.7159 6.04589C72.1079 5.52302 72.8921 5.52302 73.2841 6.04589L75.3466 8.79694C75.4739 8.9667 75.6528 9.09057 75.8565 9.14993L79.1833 10.1196C79.8518 10.3145 80.1095 11.1249 79.6763 11.6701L77.6409 14.2315C77.5001 14.4087 77.425 14.6292 77.4283 14.8556L77.4761 18.1084C77.486 18.7785 76.8355 19.2605 76.1973 19.0561L72.7989 17.9677C72.6045 17.9055 72.3955 17.9055 72.2011 17.9677L68.8027 19.0561C68.1645 19.2605 67.514 18.7785 67.5239 18.1084L67.5717 14.8556C67.575 14.6292 67.4999 14.4087 67.3591 14.2315L65.3237 11.6701C64.8905 11.1249 65.1482 10.3145 65.8167 10.1196L69.1435 9.14993C69.3472 9.09057 69.5261 8.9667 69.6534 8.79694L71.7159 6.04589Z" fill="#FAE84B"/>
<path d="M91.7159 6.04589C92.1079 5.52302 92.8921 5.52302 93.2841 6.04589L95.3466 8.79694C95.4739 8.9667 95.6528 9.09057 95.8565 9.14993L99.1833 10.1196C99.8518 10.3145 100.11 11.1249 99.6763 11.6701L97.6409 14.2315C97.5001 14.4087 97.425 14.6292 97.4283 14.8556L97.4761 18.1084C97.486 18.7785 96.8355 19.2605 96.1973 19.0561L92.7989 17.9677C92.6045 17.9055 92.3955 17.9055 92.2011 17.9677L88.8027 19.0561C88.1645 19.2605 87.514 18.7785 87.5239 18.1084L87.5717 14.8556C87.575 14.6292 87.4999 14.4087 87.3591 14.2315L85.3237 11.6701C84.8905 11.1249 85.1482 10.3145 85.8167 10.1196L89.1435 9.14993C89.3472 9.09057 89.5261 8.9667 89.6534 8.79694L91.7159 6.04589Z" fill="#FAE84B"/>
</svg>
