<svg width="30" height="30" viewBox="0 0 30 30" fill="none" xmlns="http://www.w3.org/2000/svg">
<mask id="mask0_297_5712" style="mask-type:alpha" maskUnits="userSpaceOnUse" x="0" y="0" width="30" height="30">
<rect width="30" height="30" fill="#D9D9D9"/>
</mask>
<g mask="url(#mask0_297_5712)">
<path d="M7.50098 19.999H17.501V15.999L22.501 19.999V9.99902L17.501 13.999V9.99902H7.50098V19.999ZM5.00098 24.999C4.31348 24.999 3.72494 24.7542 3.23535 24.2646C2.74577 23.7751 2.50098 23.1865 2.50098 22.499V7.49902C2.50098 6.81152 2.74577 6.22298 3.23535 5.7334C3.72494 5.24382 4.31348 4.99902 5.00098 4.99902H25.001C25.6885 4.99902 26.277 5.24382 26.7666 5.7334C27.2562 6.22298 27.501 6.81152 27.501 7.49902V22.499C27.501 23.1865 27.2562 23.7751 26.7666 24.2646C26.277 24.7542 25.6885 24.999 25.001 24.999H5.00098ZM5.00098 22.499H25.001V7.49902H5.00098V22.499Z" fill="white"/>
</g>
</svg>
