<svg width="30" height="30" viewBox="0 0 30 30" fill="none" xmlns="http://www.w3.org/2000/svg">
<mask id="mask0_297_5766" style="mask-type:alpha" maskUnits="userSpaceOnUse" x="0" y="0" width="30" height="30">
<rect width="30" height="30" fill="#D9D9D9"/>
</mask>
<g mask="url(#mask0_297_5766)">
<path d="M21.25 27.499C19.9583 27.499 18.901 27.1761 18.0781 26.5303C17.2552 25.8844 16.625 24.9365 16.1875 23.6865C15.8333 22.6449 15.4948 21.9157 15.1719 21.499C14.849 21.0824 14.1042 20.4157 12.9375 19.499C11.6458 18.4574 10.625 17.2803 9.875 15.9678C9.125 14.6553 8.75 13.0824 8.75 11.249C8.75 8.76986 9.58854 6.69173 11.2656 5.01465C12.9427 3.33757 15.0208 2.49902 17.5 2.49902C19.9792 2.49902 22.0573 3.33757 23.7344 5.01465C25.4115 6.69173 26.25 8.76986 26.25 11.249H23.75C23.75 9.47819 23.151 7.99382 21.9531 6.7959C20.7552 5.59798 19.2708 4.99902 17.5 4.99902C15.7292 4.99902 14.2448 5.59798 13.0469 6.7959C11.849 7.99382 11.25 9.47819 11.25 11.249C11.25 12.6657 11.5312 13.874 12.0938 14.874C12.6562 15.874 13.4583 16.7699 14.5 17.5615C15.5833 18.3532 16.4271 19.124 17.0312 19.874C17.6354 20.624 18.0833 21.4365 18.375 22.3115C18.6667 23.2282 19.0156 23.9053 19.4219 24.3428C19.8281 24.7803 20.4375 24.999 21.25 24.999C21.9375 24.999 22.526 24.7542 23.0156 24.2647C23.5052 23.7751 23.75 23.1865 23.75 22.499H26.25C26.25 23.874 25.7604 25.0511 24.7812 26.0303C23.8021 27.0094 22.625 27.499 21.25 27.499ZM7.75 20.9365C6.52083 19.6865 5.54688 18.2334 4.82812 16.5771C4.10938 14.9209 3.75 13.1449 3.75 11.249C3.75 9.33236 4.10938 7.54069 4.82812 5.87402C5.54688 4.20736 6.52083 2.74902 7.75 1.49902L9.5625 3.24902C8.52083 4.29069 7.70833 5.49382 7.125 6.8584C6.54167 8.22298 6.25 9.68652 6.25 11.249C6.25 12.7907 6.54167 14.2386 7.125 15.5928C7.70833 16.9469 8.52083 18.1449 9.5625 19.1865L7.75 20.9365ZM17.5 14.374C16.625 14.374 15.8854 14.0667 15.2812 13.4521C14.6771 12.8376 14.375 12.1032 14.375 11.249C14.375 10.374 14.6771 9.63444 15.2812 9.03027C15.8854 8.42611 16.625 8.12402 17.5 8.12402C18.375 8.12402 19.1146 8.42611 19.7188 9.03027C20.3229 9.63444 20.625 10.374 20.625 11.249C20.625 12.1032 20.3229 12.8376 19.7188 13.4521C19.1146 14.0667 18.375 14.374 17.5 14.374Z" fill="white"/>
</g>
</svg>
