<svg width="30" height="30" viewBox="0 0 30 30" fill="none" xmlns="http://www.w3.org/2000/svg">
<mask id="mask0_297_5724" style="mask-type:alpha" maskUnits="userSpaceOnUse" x="0" y="0" width="30" height="30">
<rect width="30" height="30" fill="#D9D9D9"/>
</mask>
<g mask="url(#mask0_297_5724)">
<path d="M6.25 26.25C5.5625 26.25 4.97396 26.0052 4.48438 25.5156C3.99479 25.026 3.75 24.4375 3.75 23.75V6.25C3.75 5.5625 3.99479 4.97396 4.48438 4.48438C4.97396 3.99479 5.5625 3.75 6.25 3.75H23.75C24.4375 3.75 25.026 3.99479 25.5156 4.48438C26.0052 4.97396 26.25 5.5625 26.25 6.25V23.75C26.25 24.4375 26.0052 25.026 25.5156 25.5156C25.026 26.0052 24.4375 26.25 23.75 26.25H6.25ZM6.25 23.75H23.75V6.25H6.25V23.75ZM7.5 21.25H22.5L17.8125 15L14.0625 20L11.25 16.25L7.5 21.25ZM10.625 12.5C11.1458 12.5 11.5885 12.3177 11.9531 11.9531C12.3177 11.5885 12.5 11.1458 12.5 10.625C12.5 10.1042 12.3177 9.66146 11.9531 9.29688C11.5885 8.93229 11.1458 8.75 10.625 8.75C10.1042 8.75 9.66146 8.93229 9.29688 9.29688C8.93229 9.66146 8.75 10.1042 8.75 10.625C8.75 11.1458 8.93229 11.5885 9.29688 11.9531C9.66146 12.3177 10.1042 12.5 10.625 12.5Z" fill="white"/>
</g>
</svg>
