<svg width="28" height="28" viewBox="0 0 28 28" fill="none" xmlns="http://www.w3.org/2000/svg">
<mask id="mask0_292_2916" style="mask-type:alpha" maskUnits="userSpaceOnUse" x="0" y="0" width="28" height="28">
<rect width="28" height="28" fill="#D9D9D9"/>
</mask>
<g mask="url(#mask0_292_2916)">
<path d="M24.5 14.0004L19.425 21.1754C19.2111 21.4865 18.934 21.7296 18.5937 21.9046C18.2535 22.0796 17.8889 22.1671 17.5 22.1671H5.83333C5.19167 22.1671 4.64236 21.9386 4.18542 21.4817C3.72847 21.0247 3.5 20.4754 3.5 19.8337V8.16707C3.5 7.52541 3.72847 6.9761 4.18542 6.51916C4.64236 6.06221 5.19167 5.83374 5.83333 5.83374H17.5C17.8889 5.83374 18.2535 5.92124 18.5937 6.09624C18.934 6.27124 19.2111 6.5143 19.425 6.82541L24.5 14.0004ZM21.6417 14.0004L17.5 8.16707H5.83333V19.8337H17.5L21.6417 14.0004Z" fill="white"/>
</g>
</svg>
