<svg width="13" height="24" viewBox="0 0 13 24" fill="none" xmlns="http://www.w3.org/2000/svg">
<mask id="mask0_297_4755" style="mask-type:alpha" maskUnits="userSpaceOnUse" x="0" y="0" width="13" height="24">
<rect width="13" height="24" fill="#D9D9D9"/>
</mask>
<g mask="url(#mask0_297_4755)">
<path d="M7 19C6.56 19 6.18333 18.8531 5.87 18.5594C5.55667 18.2656 5.4 17.9125 5.4 17.5H8.6C8.6 17.9125 8.44333 18.2656 8.13 18.5594C7.81667 18.8531 7.44 19 7 19ZM3.8 16.75V15.25H10.2V16.75H3.8ZM4 14.5C3.08 13.9875 2.35 13.3 1.81 12.4375C1.27 11.575 1 10.6375 1 9.625C1 8.0625 1.58333 6.73438 2.75 5.64062C3.91667 4.54688 5.33333 4 7 4C8.66667 4 10.0833 4.54688 11.25 5.64062C12.4167 6.73438 13 8.0625 13 9.625C13 10.6375 12.73 11.575 12.19 12.4375C11.65 13.3 10.92 13.9875 10 14.5H4ZM4.48 13H9.52C10.12 12.6 10.5833 12.1063 10.91 11.5188C11.2367 10.9313 11.4 10.3 11.4 9.625C11.4 8.475 10.9733 7.5 10.12 6.7C9.26667 5.9 8.22667 5.5 7 5.5C5.77333 5.5 4.73333 5.9 3.88 6.7C3.02667 7.5 2.6 8.475 2.6 9.625C2.6 10.3 2.76333 10.9313 3.09 11.5188C3.41667 12.1063 3.88 12.6 4.48 13Z" fill="#525252"/>
</g>
</svg>
