<svg width="30" height="30" viewBox="0 0 30 30" fill="none" xmlns="http://www.w3.org/2000/svg">
<mask id="mask0_297_5718" style="mask-type:alpha" maskUnits="userSpaceOnUse" x="0" y="0" width="30" height="30">
<rect width="30" height="30" fill="#D9D9D9"/>
</mask>
<g mask="url(#mask0_297_5718)">
<path d="M25.8135 8.74902C25.8135 7.12402 25.251 5.74902 24.126 4.62402C23.001 3.49902 21.626 2.93652 20.001 2.93652V1.24902C22.0843 1.24902 23.8551 1.97819 25.3135 3.43652C26.7718 4.89486 27.501 6.66569 27.501 8.74902H25.8135ZM22.501 8.74902C22.501 8.06152 22.2562 7.47298 21.7666 6.9834C21.277 6.49382 20.6885 6.24902 20.001 6.24902V4.56152C21.1468 4.56152 22.1208 4.96777 22.9229 5.78027C23.7249 6.59277 24.1468 7.58236 24.1885 8.74902H22.501ZM5.00098 26.249C4.31348 26.249 3.72494 26.0042 3.23535 25.5147C2.74577 25.0251 2.50098 24.4365 2.50098 23.749V8.74902C2.50098 8.06152 2.74577 7.47298 3.23535 6.9834C3.72494 6.49382 4.31348 6.24902 5.00098 6.24902H8.93848L11.251 3.74902H18.751V6.24902H12.3447L10.0635 8.74902H5.00098V23.749H25.001V9.99903H27.501V23.749C27.501 24.4365 27.2562 25.0251 26.7666 25.5147C26.277 26.0042 25.6885 26.249 25.001 26.249H5.00098ZM15.001 21.874C16.5635 21.874 17.8916 21.3272 18.9854 20.2334C20.0791 19.1397 20.626 17.8115 20.626 16.249C20.626 14.6865 20.0791 13.3584 18.9854 12.2647C17.8916 11.1709 16.5635 10.624 15.001 10.624C13.4385 10.624 12.1104 11.1709 11.0166 12.2647C9.92285 13.3584 9.37598 14.6865 9.37598 16.249C9.37598 17.8115 9.92285 19.1397 11.0166 20.2334C12.1104 21.3272 13.4385 21.874 15.001 21.874ZM15.001 19.374C14.126 19.374 13.3864 19.0719 12.7822 18.4678C12.1781 17.8636 11.876 17.124 11.876 16.249C11.876 15.374 12.1781 14.6344 12.7822 14.0303C13.3864 13.4261 14.126 13.124 15.001 13.124C15.876 13.124 16.6156 13.4261 17.2197 14.0303C17.8239 14.6344 18.126 15.374 18.126 16.249C18.126 17.124 17.8239 17.8636 17.2197 18.4678C16.6156 19.0719 15.876 19.374 15.001 19.374Z" fill="white"/>
</g>
</svg>
