<svg width="30" height="30" viewBox="0 0 30 30" fill="none" xmlns="http://www.w3.org/2000/svg">
<mask id="mask0_297_5254" style="mask-type:alpha" maskUnits="userSpaceOnUse" x="0" y="0" width="30" height="30">
<rect width="30" height="30" fill="#D9D9D9"/>
</mask>
<g mask="url(#mask0_297_5254)">
<path d="M4.99805 14.3445C4.99805 15.8236 5.49284 17.0945 6.48242 18.157C7.47201 19.2195 8.70638 19.8132 10.1855 19.9382L8.24805 18.0007L9.99805 16.2507L14.998 21.2507L9.99805 26.2507L8.24805 24.5007L10.248 22.5007C8.06055 22.3757 6.22201 21.532 4.73242 19.9695C3.24284 18.407 2.49805 16.5424 2.49805 14.3757C2.49805 12.1049 3.28451 10.183 4.85742 8.61011C6.43034 7.03719 8.35221 6.25073 10.623 6.25073H14.998V8.75073H10.623C9.06055 8.75073 7.73242 9.2924 6.63867 10.3757C5.54492 11.4591 4.99805 12.782 4.99805 14.3445ZM17.498 22.5007V20.0007H27.4981V22.5007H17.498ZM17.498 15.6257V13.1257H27.4981V15.6257H17.498ZM17.498 8.75073V6.25073H27.4981V8.75073H17.498Z" fill="white"/>
</g>
</svg>
