<svg width="30" height="30" viewBox="0 0 30 30" fill="none" xmlns="http://www.w3.org/2000/svg">
<mask id="mask0_311_2027" style="mask-type:alpha" maskUnits="userSpaceOnUse" x="0" y="0" width="30" height="30">
<rect width="30" height="30" fill="#D9D9D9"/>
</mask>
<g mask="url(#mask0_311_2027)">
<path d="M4.99805 24.999C4.31055 24.999 3.72201 24.7542 3.23242 24.2646C2.74284 23.7751 2.49805 23.1865 2.49805 22.499V7.49902C2.49805 6.81152 2.74284 6.22298 3.23242 5.7334C3.72201 5.24382 4.31055 4.99902 4.99805 4.99902H24.9981C25.6856 4.99902 26.2741 5.24382 26.7637 5.7334C27.2533 6.22298 27.4981 6.81152 27.4981 7.49902V22.499C27.4981 23.1865 27.2533 23.7751 26.7637 24.2646C26.2741 24.7542 25.6856 24.999 24.9981 24.999H4.99805ZM13.2168 22.499H24.9981V12.8428L24.1543 11.6865L21.2481 12.624L18.373 11.6865L16.5605 14.1553L13.6543 15.0928V18.1553L11.873 20.624L13.2168 22.499ZM10.123 22.499L8.7793 20.624L11.1543 17.3428V13.2803L14.998 12.0303L17.4043 8.74902L21.2481 9.99902L24.9981 8.78027V7.49902H4.99805V22.499H10.123Z" fill="white" fill-opacity="0.5"/>
</g>
</svg>
