<svg width="30" height="30" viewBox="0 0 30 30" fill="none" xmlns="http://www.w3.org/2000/svg">
<mask id="mask0_297_5772" style="mask-type:alpha" maskUnits="userSpaceOnUse" x="0" y="0" width="30" height="30">
<rect width="30" height="30" fill="#D9D9D9"/>
</mask>
<g mask="url(#mask0_297_5772)">
<path d="M8.74902 26.251V22.4072C6.58236 22.1156 4.79069 21.1468 3.37402 19.501C1.95736 17.8551 1.24902 15.9385 1.24902 13.751H3.74902C3.74902 15.4801 4.3584 16.9541 5.57715 18.1728C6.7959 19.3916 8.26986 20.001 9.99902 20.001H10.3115C10.4157 20.001 10.5199 19.9906 10.624 19.9697C10.8949 20.3864 11.1865 20.777 11.499 21.1416C11.8115 21.5062 12.1449 21.8447 12.499 22.1572C12.2907 22.2197 12.0876 22.2666 11.8896 22.2978C11.6917 22.3291 11.4782 22.3656 11.249 22.4072V26.251H8.74902ZM9.37402 17.4385C8.47819 17.2718 7.7334 16.8499 7.13965 16.1728C6.5459 15.4958 6.24902 14.6885 6.24902 13.751V6.25098C6.24902 5.20931 6.61361 4.32389 7.34277 3.59473C8.07194 2.86556 8.95736 2.50098 9.99902 2.50098C11.0407 2.50098 11.9261 2.86556 12.6553 3.59473C13.3844 4.32389 13.749 5.20931 13.749 6.25098V11.251H8.74902V13.751C8.74902 14.3968 8.80111 15.027 8.90527 15.6416C9.00944 16.2562 9.16569 16.8551 9.37402 17.4385ZM19.999 17.501C18.9574 17.501 18.0719 17.1364 17.3428 16.4072C16.6136 15.6781 16.249 14.7926 16.249 13.751V6.25098C16.249 5.20931 16.6136 4.32389 17.3428 3.59473C18.0719 2.86556 18.9574 2.50098 19.999 2.50098C21.0407 2.50098 21.9261 2.86556 22.6553 3.59473C23.3844 4.32389 23.749 5.20931 23.749 6.25098V13.751C23.749 14.7926 23.3844 15.6781 22.6553 16.4072C21.9261 17.1364 21.0407 17.501 19.999 17.501ZM18.749 26.251V22.4072C16.5824 22.1156 14.7907 21.1468 13.374 19.501C11.9574 17.8551 11.249 15.9385 11.249 13.751H13.749C13.749 15.4801 14.3584 16.9541 15.5771 18.1728C16.7959 19.3916 18.2699 20.001 19.999 20.001C21.7282 20.001 23.2021 19.3916 24.4209 18.1728C25.6396 16.9541 26.249 15.4801 26.249 13.751H28.749C28.749 15.9385 28.0407 17.8551 26.624 19.501C25.2074 21.1468 23.4157 22.1156 21.249 22.4072V26.251H18.749ZM19.999 15.001C20.3532 15.001 20.6501 14.8812 20.8896 14.6416C21.1292 14.402 21.249 14.1051 21.249 13.751V6.25098C21.249 5.89681 21.1292 5.59993 20.8896 5.36035C20.6501 5.12077 20.3532 5.00098 19.999 5.00098C19.6449 5.00098 19.348 5.12077 19.1084 5.36035C18.8688 5.59993 18.749 5.89681 18.749 6.25098V13.751C18.749 14.1051 18.8688 14.402 19.1084 14.6416C19.348 14.8812 19.6449 15.001 19.999 15.001Z" fill="white"/>
</g>
</svg>
