<svg width="20" height="20" viewBox="0 0 20 20" fill="none" xmlns="http://www.w3.org/2000/svg">
<mask id="mask0_312_2291" style="mask-type:alpha" maskUnits="userSpaceOnUse" x="0" y="0" width="20" height="20">
<rect width="20" height="20" fill="#D9D9D9"/>
</mask>
<g mask="url(#mask0_312_2291)">
<path d="M4.99967 19.1663C4.54134 19.1663 4.14898 19.0031 3.82259 18.6768C3.4962 18.3504 3.33301 17.958 3.33301 17.4997V2.49967C3.33301 2.04134 3.4962 1.64898 3.82259 1.32259C4.14898 0.996202 4.54134 0.833008 4.99967 0.833008H13.333C13.7913 0.833008 14.1837 0.996202 14.5101 1.32259C14.8365 1.64898 14.9997 2.04134 14.9997 2.49967V5.83301H13.333V4.99967H4.99967V14.9997H13.333V14.1663H14.9997V17.4997C14.9997 17.958 14.8365 18.3504 14.5101 18.6768C14.1837 19.0031 13.7913 19.1663 13.333 19.1663H4.99967ZM4.99967 16.6663V17.4997H13.333V16.6663H4.99967ZM12.458 13.333L8.91634 9.79134L10.083 8.62468L12.458 10.9997L17.1663 6.29134L18.333 7.45801L12.458 13.333ZM4.99967 3.33301H13.333V2.49967H4.99967V3.33301Z" fill="white"/>
</g>
</svg>
