<svg width="28" height="28" viewBox="0 0 28 28" fill="none" xmlns="http://www.w3.org/2000/svg">
<mask id="mask0_292_2904" style="mask-type:alpha" maskUnits="userSpaceOnUse" x="0" y="0" width="28" height="28">
<rect width="28" height="28" fill="#D9D9D9"/>
</mask>
<g mask="url(#mask0_292_2904)">
<path d="M6.00833 21.9913C5.21111 21.0579 4.59375 20.0128 4.15625 18.8558C3.71875 17.6989 3.5 16.469 3.5 15.1663C3.5 12.2496 4.52083 9.77043 6.5625 7.72876C8.60417 5.68709 11.0833 4.66626 14 4.66626H14.2333L12.3667 2.79959L14 1.16626L18.6667 5.83293L14 10.4996L12.3375 8.83709L14.175 6.99959H14C11.7444 6.99959 9.81944 7.79682 8.225 9.39126C6.63056 10.9857 5.83333 12.9107 5.83333 15.1663C5.83333 16.1579 5.99375 17.0913 6.31458 17.9663C6.63542 18.8413 7.0875 19.6288 7.67083 20.3288L6.00833 21.9913ZM12.8333 21.5829C12.8333 21.1357 12.6826 20.6933 12.3813 20.2558C12.0799 19.8183 11.7444 19.3614 11.375 18.885C11.0056 18.4086 10.6701 17.9128 10.3688 17.3975C10.0674 16.8822 9.91667 16.3329 9.91667 15.7496C9.91667 14.6218 10.3153 13.6593 11.1125 12.8621C11.9097 12.0649 12.8722 11.6663 14 11.6663C15.1278 11.6663 16.0903 12.0649 16.8875 12.8621C17.6847 13.6593 18.0833 14.6218 18.0833 15.7496C18.0833 16.3329 17.9326 16.8822 17.6312 17.3975C17.3299 17.9128 16.9944 18.4086 16.625 18.885C16.2556 19.3614 15.9201 19.8183 15.6187 20.2558C15.3174 20.6933 15.1667 21.1357 15.1667 21.5829H12.8333ZM12.8333 24.4996V22.7496H15.1667V24.4996H12.8333ZM21.9917 21.9913L20.3292 20.3288C20.9125 19.6288 21.3646 18.8413 21.6854 17.9663C22.0063 17.0913 22.1667 16.1579 22.1667 15.1663C22.1667 13.8829 21.8993 12.692 21.3646 11.5933C20.8299 10.4947 20.0958 9.57598 19.1625 8.83709L20.825 7.17459C21.9528 8.14682 22.8472 9.31834 23.5083 10.6892C24.1694 12.06 24.5 13.5524 24.5 15.1663C24.5 16.469 24.2812 17.6989 23.8438 18.8558C23.4062 20.0128 22.7889 21.0579 21.9917 21.9913Z" fill="white"/>
</g>
</svg>
