<svg width="30" height="31" viewBox="0 0 30 31" fill="none" xmlns="http://www.w3.org/2000/svg">
<mask id="mask0_311_925" style="mask-type:alpha" maskUnits="userSpaceOnUse" x="0" y="0" width="30" height="31">
<rect y="0.212891" width="30" height="30" fill="#D9D9D9"/>
</mask>
<g mask="url(#mask0_311_925)">
<path d="M13.876 23.9639H16.0635V22.4014C17.1051 22.2139 18.001 21.8076 18.751 21.1826C19.501 20.5576 19.876 19.6305 19.876 18.4014C19.876 17.5264 19.626 16.7243 19.126 15.9951C18.626 15.266 17.626 14.6305 16.126 14.0889C14.876 13.6722 14.0114 13.3076 13.5322 12.9951C13.0531 12.6826 12.8135 12.2555 12.8135 11.7139C12.8135 11.1722 13.0062 10.7451 13.3916 10.4326C13.777 10.1201 14.3343 9.96387 15.0635 9.96387C15.7301 9.96387 16.251 10.1253 16.626 10.4482C17.001 10.7712 17.2718 11.1722 17.4385 11.6514L19.4385 10.8389C19.2093 10.1097 18.7874 9.47429 18.1729 8.93262C17.5583 8.39095 16.876 8.08887 16.126 8.02637V6.46387H13.9385V8.02637C12.8968 8.25553 12.0843 8.71387 11.501 9.40137C10.9176 10.0889 10.626 10.8597 10.626 11.7139C10.626 12.693 10.9124 13.4847 11.4854 14.0889C12.0583 14.693 12.9593 15.2139 14.1885 15.6514C15.501 16.1305 16.4124 16.5576 16.9229 16.9326C17.4333 17.3076 17.6885 17.7972 17.6885 18.4014C17.6885 19.0889 17.4437 19.5941 16.9541 19.917C16.4645 20.2399 15.876 20.4014 15.1885 20.4014C14.501 20.4014 13.8916 20.1878 13.3604 19.7607C12.8291 19.3337 12.4385 18.693 12.1885 17.8389L10.126 18.6514C10.4176 19.6514 10.8708 20.4587 11.4854 21.0732C12.0999 21.6878 12.8968 22.1097 13.876 22.3389V23.9639ZM15.001 27.7139C13.2718 27.7139 11.6468 27.3857 10.126 26.7295C8.60514 26.0732 7.28223 25.1826 6.15723 24.0576C5.03223 22.9326 4.1416 21.6097 3.48535 20.0889C2.8291 18.568 2.50098 16.943 2.50098 15.2139C2.50098 13.4847 2.8291 11.8597 3.48535 10.3389C4.1416 8.81803 5.03223 7.49512 6.15723 6.37012C7.28223 5.24512 8.60514 4.35449 10.126 3.69824C11.6468 3.04199 13.2718 2.71387 15.001 2.71387C16.7301 2.71387 18.3551 3.04199 19.876 3.69824C21.3968 4.35449 22.7197 5.24512 23.8447 6.37012C24.9697 7.49512 25.8604 8.81803 26.5166 10.3389C27.1729 11.8597 27.501 13.4847 27.501 15.2139C27.501 16.943 27.1729 18.568 26.5166 20.0889C25.8604 21.6097 24.9697 22.9326 23.8447 24.0576C22.7197 25.1826 21.3968 26.0732 19.876 26.7295C18.3551 27.3857 16.7301 27.7139 15.001 27.7139ZM15.001 25.2139C17.7926 25.2139 20.1572 24.2451 22.0947 22.3076C24.0322 20.3701 25.001 18.0055 25.001 15.2139C25.001 12.4222 24.0322 10.0576 22.0947 8.12012C20.1572 6.18262 17.7926 5.21387 15.001 5.21387C12.2093 5.21387 9.84473 6.18262 7.90723 8.12012C5.96973 10.0576 5.00098 12.4222 5.00098 15.2139C5.00098 18.0055 5.96973 20.3701 7.90723 22.3076C9.84473 24.2451 12.2093 25.2139 15.001 25.2139Z" fill="white" fill-opacity="0.5"/>
</g>
</svg>
