<svg width="30" height="31" viewBox="0 0 30 31" fill="none" xmlns="http://www.w3.org/2000/svg">
<mask id="mask0_292_2889" style="mask-type:alpha" maskUnits="userSpaceOnUse" x="0" y="0" width="30" height="31">
<rect y="0.212891" width="30" height="30" fill="#D9D9D9"/>
</mask>
<g mask="url(#mask0_292_2889)">
<path d="M13.876 23.9636H16.0635V22.4011C17.1051 22.2136 18.001 21.8074 18.751 21.1824C19.501 20.5574 19.876 19.6303 19.876 18.4011C19.876 17.5261 19.626 16.724 19.126 15.9949C18.626 15.2657 17.626 14.6303 16.126 14.0886C14.876 13.672 14.0114 13.3074 13.5322 12.9949C13.0531 12.6824 12.8135 12.2553 12.8135 11.7136C12.8135 11.172 13.0062 10.7449 13.3916 10.4324C13.777 10.1199 14.3343 9.96362 15.0635 9.96362C15.7301 9.96362 16.251 10.1251 16.626 10.448C17.001 10.7709 17.2718 11.172 17.4385 11.6511L19.4385 10.8386C19.2093 10.1095 18.7874 9.47404 18.1729 8.93237C17.5583 8.39071 16.876 8.08862 16.126 8.02612V6.46362H13.9385V8.02612C12.8968 8.25529 12.0843 8.71362 11.501 9.40112C10.9176 10.0886 10.626 10.8595 10.626 11.7136C10.626 12.6928 10.9124 13.4845 11.4854 14.0886C12.0583 14.6928 12.9593 15.2136 14.1885 15.6511C15.501 16.1303 16.4124 16.5574 16.9229 16.9324C17.4333 17.3074 17.6885 17.797 17.6885 18.4011C17.6885 19.0886 17.4437 19.5938 16.9541 19.9168C16.4645 20.2397 15.876 20.4011 15.1885 20.4011C14.501 20.4011 13.8916 20.1876 13.3604 19.7605C12.8291 19.3334 12.4385 18.6928 12.1885 17.8386L10.126 18.6511C10.4176 19.6511 10.8708 20.4584 11.4854 21.073C12.0999 21.6876 12.8968 22.1095 13.876 22.3386V23.9636ZM15.001 27.7136C13.2718 27.7136 11.6468 27.3855 10.126 26.7293C8.60514 26.073 7.28223 25.1824 6.15723 24.0574C5.03223 22.9324 4.1416 21.6095 3.48535 20.0886C2.8291 18.5678 2.50098 16.9428 2.50098 15.2136C2.50098 13.4845 2.8291 11.8595 3.48535 10.3386C4.1416 8.81779 5.03223 7.49487 6.15723 6.36987C7.28223 5.24487 8.60514 4.35425 10.126 3.698C11.6468 3.04175 13.2718 2.71362 15.001 2.71362C16.7301 2.71362 18.3551 3.04175 19.876 3.698C21.3968 4.35425 22.7197 5.24487 23.8447 6.36987C24.9697 7.49487 25.8604 8.81779 26.5166 10.3386C27.1729 11.8595 27.501 13.4845 27.501 15.2136C27.501 16.9428 27.1729 18.5678 26.5166 20.0886C25.8604 21.6095 24.9697 22.9324 23.8447 24.0574C22.7197 25.1824 21.3968 26.073 19.876 26.7293C18.3551 27.3855 16.7301 27.7136 15.001 27.7136ZM15.001 25.2136C17.7926 25.2136 20.1572 24.2449 22.0947 22.3074C24.0322 20.3699 25.001 18.0053 25.001 15.2136C25.001 12.422 24.0322 10.0574 22.0947 8.11987C20.1572 6.18237 17.7926 5.21362 15.001 5.21362C12.2093 5.21362 9.84473 6.18237 7.90723 8.11987C5.96973 10.0574 5.00098 12.422 5.00098 15.2136C5.00098 18.0053 5.96973 20.3699 7.90723 22.3074C9.84473 24.2449 12.2093 25.2136 15.001 25.2136Z" fill="white" fill-opacity="0.5"/>
</g>
</svg>
