<svg width="30" height="30" viewBox="0 0 30 30" fill="none" xmlns="http://www.w3.org/2000/svg">
<mask id="mask0_307_9" style="mask-type:alpha" maskUnits="userSpaceOnUse" x="0" y="0" width="30" height="30">
<rect width="30" height="30" fill="#D9D9D9"/>
</mask>
<g mask="url(#mask0_307_9)">
<path d="M15.001 27.4985C13.2718 27.4985 11.6468 27.1704 10.126 26.5142C8.60514 25.8579 7.28223 24.9673 6.15723 23.8423C5.03223 22.7173 4.1416 21.3944 3.48535 19.8735C2.8291 18.3527 2.50098 16.7277 2.50098 14.9985C2.50098 14.1027 2.59473 13.2225 2.78223 12.3579C2.96973 11.4933 3.24056 10.6548 3.59473 9.84229L5.53223 11.7798C5.36556 12.3215 5.23535 12.8579 5.1416 13.3892C5.04785 13.9204 5.00098 14.4569 5.00098 14.9985C5.00098 17.7902 5.96973 20.1548 7.90723 22.0923C9.84473 24.0298 12.2093 24.9985 15.001 24.9985C17.7926 24.9985 20.1572 24.0298 22.0947 22.0923C24.0322 20.1548 25.001 17.7902 25.001 14.9985C25.001 12.2069 24.0322 9.84229 22.0947 7.90479C20.1572 5.96729 17.7926 4.99854 15.001 4.99854C14.4385 4.99854 13.8916 5.04541 13.3604 5.13916C12.8291 5.23291 12.3031 5.36312 11.7822 5.52979L9.87598 3.62354C10.7093 3.24854 11.5426 2.96729 12.376 2.77979C13.2093 2.59229 14.0843 2.49854 15.001 2.49854C16.7301 2.49854 18.3551 2.82666 19.876 3.48291C21.3968 4.13916 22.7197 5.02979 23.8447 6.15479C24.9697 7.27979 25.8604 8.6027 26.5166 10.1235C27.1729 11.6444 27.501 13.2694 27.501 14.9985C27.501 16.7277 27.1729 18.3527 26.5166 19.8735C25.8604 21.3944 24.9697 22.7173 23.8447 23.8423C22.7197 24.9673 21.3968 25.8579 19.876 26.5142C18.3551 27.1704 16.7301 27.4985 15.001 27.4985ZM6.87598 8.74854C6.35514 8.74854 5.91244 8.56624 5.54785 8.20166C5.18327 7.83708 5.00098 7.39437 5.00098 6.87354C5.00098 6.3527 5.18327 5.90999 5.54785 5.54541C5.91244 5.18083 6.35514 4.99854 6.87598 4.99854C7.39681 4.99854 7.83952 5.18083 8.2041 5.54541C8.56869 5.90999 8.75098 6.3527 8.75098 6.87354C8.75098 7.39437 8.56869 7.83708 8.2041 8.20166C7.83952 8.56624 7.39681 8.74854 6.87598 8.74854Z" fill="white"/>
</g>
</svg>
