<svg width="28" height="28" viewBox="0 0 28 28" fill="none" xmlns="http://www.w3.org/2000/svg">
<mask id="mask0_292_2925" style="mask-type:alpha" maskUnits="userSpaceOnUse" x="0" y="0" width="28" height="28">
<rect width="28" height="28" fill="#D9D9D9"/>
</mask>
<g mask="url(#mask0_292_2925)">
<path d="M2.33398 11.6663C2.33398 9.72188 2.76662 7.93785 3.6319 6.31424C4.49718 4.69063 5.65898 3.3441 7.11732 2.27466L8.48815 4.14132C7.32149 4.99688 6.39301 6.07605 5.70273 7.37883C5.01246 8.6816 4.66732 10.1108 4.66732 11.6663H2.33398ZM23.334 11.6663C23.334 10.1108 22.9888 8.6816 22.2986 7.37883C21.6083 6.07605 20.6798 4.99688 19.5132 4.14132L20.884 2.27466C22.3423 3.3441 23.5041 4.69063 24.3694 6.31424C25.2347 7.93785 25.6673 9.72188 25.6673 11.6663H23.334ZM4.66732 22.1663V19.833H7.00065V11.6663C7.00065 10.0524 7.48676 8.61841 8.45898 7.36424C9.43121 6.11007 10.6951 5.28855 12.2507 4.89966V4.08299C12.2507 3.59688 12.4208 3.18369 12.7611 2.84341C13.1013 2.50313 13.5145 2.33299 14.0007 2.33299C14.4868 2.33299 14.9 2.50313 15.2402 2.84341C15.5805 3.18369 15.7507 3.59688 15.7507 4.08299V4.89966C17.3062 5.28855 18.5701 6.11007 19.5423 7.36424C20.5145 8.61841 21.0007 10.0524 21.0007 11.6663V19.833H23.334V22.1663H4.66732ZM14.0007 25.6663C13.359 25.6663 12.8097 25.4379 12.3527 24.9809C11.8958 24.524 11.6673 23.9747 11.6673 23.333H16.334C16.334 23.9747 16.1055 24.524 15.6486 24.9809C15.1916 25.4379 14.6423 25.6663 14.0007 25.6663ZM9.33398 19.833H18.6673V11.6663C18.6673 10.383 18.2104 9.28438 17.2965 8.37049C16.3826 7.4566 15.284 6.99966 14.0007 6.99966C12.7173 6.99966 11.6187 7.4566 10.7048 8.37049C9.79093 9.28438 9.33398 10.383 9.33398 11.6663V19.833Z" fill="white"/>
</g>
</svg>
