<svg width="30" height="30" viewBox="0 0 30 30" fill="none" xmlns="http://www.w3.org/2000/svg">
<mask id="mask0_292_2864" style="mask-type:alpha" maskUnits="userSpaceOnUse" x="0" y="0" width="30" height="30">
<rect width="30" height="30" fill="#D9D9D9"/>
</mask>
<g mask="url(#mask0_292_2864)">
<path d="M15.001 27.5007C13.2926 27.5007 11.6781 27.1726 10.1572 26.5164C8.63639 25.8601 7.30827 24.9643 6.17285 23.8289C5.03744 22.6934 4.1416 21.3653 3.48535 19.8445C2.8291 18.3237 2.50098 16.7091 2.50098 15.0007C2.50098 13.2716 2.83952 11.6466 3.5166 10.1257C4.19369 8.6049 5.11035 7.28198 6.2666 6.15698C7.42285 5.03198 8.77181 4.14136 10.3135 3.48511C11.8551 2.82886 13.501 2.50073 15.251 2.50073C16.9176 2.50073 18.4906 2.78719 19.9697 3.36011C21.4489 3.93302 22.7458 4.72469 23.8604 5.73511C24.9749 6.74552 25.8604 7.94344 26.5166 9.32886C27.1729 10.7143 27.501 12.2091 27.501 13.8132C27.501 16.2091 26.7718 18.0476 25.3135 19.3289C23.8551 20.6101 22.0843 21.2507 20.001 21.2507H17.6885C17.501 21.2507 17.3708 21.3028 17.2979 21.407C17.2249 21.5112 17.1885 21.6257 17.1885 21.7507C17.1885 22.0007 17.3447 22.3601 17.6572 22.8289C17.9697 23.2976 18.126 23.8341 18.126 24.4382C18.126 25.4799 17.8395 26.2507 17.2666 26.7507C16.6937 27.2507 15.9385 27.5007 15.001 27.5007ZM8.12598 16.2507C8.66764 16.2507 9.11556 16.0737 9.46973 15.7195C9.82389 15.3653 10.001 14.9174 10.001 14.3757C10.001 13.8341 9.82389 13.3862 9.46973 13.032C9.11556 12.6778 8.66764 12.5007 8.12598 12.5007C7.58431 12.5007 7.13639 12.6778 6.78223 13.032C6.42806 13.3862 6.25098 13.8341 6.25098 14.3757C6.25098 14.9174 6.42806 15.3653 6.78223 15.7195C7.13639 16.0737 7.58431 16.2507 8.12598 16.2507ZM11.876 11.2507C12.4176 11.2507 12.8656 11.0737 13.2197 10.7195C13.5739 10.3653 13.751 9.9174 13.751 9.37573C13.751 8.83407 13.5739 8.38615 13.2197 8.03198C12.8656 7.67782 12.4176 7.50073 11.876 7.50073C11.3343 7.50073 10.8864 7.67782 10.5322 8.03198C10.1781 8.38615 10.001 8.83407 10.001 9.37573C10.001 9.9174 10.1781 10.3653 10.5322 10.7195C10.8864 11.0737 11.3343 11.2507 11.876 11.2507ZM18.126 11.2507C18.6676 11.2507 19.1156 11.0737 19.4697 10.7195C19.8239 10.3653 20.001 9.9174 20.001 9.37573C20.001 8.83407 19.8239 8.38615 19.4697 8.03198C19.1156 7.67782 18.6676 7.50073 18.126 7.50073C17.5843 7.50073 17.1364 7.67782 16.7822 8.03198C16.4281 8.38615 16.251 8.83407 16.251 9.37573C16.251 9.9174 16.4281 10.3653 16.7822 10.7195C17.1364 11.0737 17.5843 11.2507 18.126 11.2507ZM21.876 16.2507C22.4176 16.2507 22.8656 16.0737 23.2197 15.7195C23.5739 15.3653 23.751 14.9174 23.751 14.3757C23.751 13.8341 23.5739 13.3862 23.2197 13.032C22.8656 12.6778 22.4176 12.5007 21.876 12.5007C21.3343 12.5007 20.8864 12.6778 20.5322 13.032C20.1781 13.3862 20.001 13.8341 20.001 14.3757C20.001 14.9174 20.1781 15.3653 20.5322 15.7195C20.8864 16.0737 21.3343 16.2507 21.876 16.2507ZM15.001 25.0007C15.1885 25.0007 15.3395 24.9487 15.4541 24.8445C15.5687 24.7403 15.626 24.6049 15.626 24.4382C15.626 24.1466 15.4697 23.8028 15.1572 23.407C14.8447 23.0112 14.6885 22.4174 14.6885 21.6257C14.6885 20.7507 14.9906 20.0528 15.5947 19.532C16.1989 19.0112 16.9385 18.7507 17.8135 18.7507H20.001C21.376 18.7507 22.5531 18.3497 23.5322 17.5476C24.5114 16.7455 25.001 15.5007 25.001 13.8132C25.001 11.2924 24.0374 9.19344 22.1104 7.51636C20.1833 5.83928 17.8968 5.00073 15.251 5.00073C12.4176 5.00073 10.001 5.96948 8.00098 7.90698C6.00098 9.84448 5.00098 12.2091 5.00098 15.0007C5.00098 17.7716 5.97494 20.1309 7.92285 22.0789C9.87077 24.0268 12.2301 25.0007 15.001 25.0007Z" fill="white" fill-opacity="0.5"/>
</g>
</svg>
