<svg width="30" height="30" viewBox="0 0 30 30" fill="none" xmlns="http://www.w3.org/2000/svg">
<mask id="mask0_307_147" style="mask-type:alpha" maskUnits="userSpaceOnUse" x="0" y="0" width="30" height="30">
<rect width="30" height="30" fill="#D9D9D9"/>
</mask>
<g mask="url(#mask0_307_147)">
<path d="M15.001 27.501C13.2926 27.501 11.6781 27.1729 10.1572 26.5166C8.63639 25.8604 7.30827 24.9645 6.17285 23.8291C5.03744 22.6937 4.1416 21.3656 3.48535 19.8447C2.8291 18.3239 2.50098 16.7093 2.50098 15.001C2.50098 13.2718 2.83952 11.6468 3.5166 10.126C4.19369 8.60514 5.11035 7.28223 6.2666 6.15723C7.42285 5.03223 8.77181 4.1416 10.3135 3.48535C11.8551 2.8291 13.501 2.50098 15.251 2.50098C16.9176 2.50098 18.4906 2.78743 19.9697 3.36035C21.4489 3.93327 22.7458 4.72494 23.8604 5.73535C24.9749 6.74577 25.8604 7.94369 26.5166 9.3291C27.1729 10.7145 27.501 12.2093 27.501 13.8135C27.501 16.2093 26.7718 18.0479 25.3135 19.3291C23.8551 20.6104 22.0843 21.251 20.001 21.251H17.6885C17.501 21.251 17.3708 21.3031 17.2979 21.4072C17.2249 21.5114 17.1885 21.626 17.1885 21.751C17.1885 22.001 17.3447 22.3604 17.6572 22.8291C17.9697 23.2979 18.126 23.8343 18.126 24.4385C18.126 25.4801 17.8395 26.251 17.2666 26.751C16.6937 27.251 15.9385 27.501 15.001 27.501ZM8.12598 16.251C8.66764 16.251 9.11556 16.0739 9.46973 15.7197C9.82389 15.3656 10.001 14.9176 10.001 14.376C10.001 13.8343 9.82389 13.3864 9.46973 13.0322C9.11556 12.6781 8.66764 12.501 8.12598 12.501C7.58431 12.501 7.13639 12.6781 6.78223 13.0322C6.42806 13.3864 6.25098 13.8343 6.25098 14.376C6.25098 14.9176 6.42806 15.3656 6.78223 15.7197C7.13639 16.0739 7.58431 16.251 8.12598 16.251ZM11.876 11.251C12.4176 11.251 12.8656 11.0739 13.2197 10.7197C13.5739 10.3656 13.751 9.91764 13.751 9.37598C13.751 8.83431 13.5739 8.38639 13.2197 8.03223C12.8656 7.67806 12.4176 7.50098 11.876 7.50098C11.3343 7.50098 10.8864 7.67806 10.5322 8.03223C10.1781 8.38639 10.001 8.83431 10.001 9.37598C10.001 9.91764 10.1781 10.3656 10.5322 10.7197C10.8864 11.0739 11.3343 11.251 11.876 11.251ZM18.126 11.251C18.6676 11.251 19.1156 11.0739 19.4697 10.7197C19.8239 10.3656 20.001 9.91764 20.001 9.37598C20.001 8.83431 19.8239 8.38639 19.4697 8.03223C19.1156 7.67806 18.6676 7.50098 18.126 7.50098C17.5843 7.50098 17.1364 7.67806 16.7822 8.03223C16.4281 8.38639 16.251 8.83431 16.251 9.37598C16.251 9.91764 16.4281 10.3656 16.7822 10.7197C17.1364 11.0739 17.5843 11.251 18.126 11.251ZM21.876 16.251C22.4176 16.251 22.8656 16.0739 23.2197 15.7197C23.5739 15.3656 23.751 14.9176 23.751 14.376C23.751 13.8343 23.5739 13.3864 23.2197 13.0322C22.8656 12.6781 22.4176 12.501 21.876 12.501C21.3343 12.501 20.8864 12.6781 20.5322 13.0322C20.1781 13.3864 20.001 13.8343 20.001 14.376C20.001 14.9176 20.1781 15.3656 20.5322 15.7197C20.8864 16.0739 21.3343 16.251 21.876 16.251ZM15.001 25.001C15.1885 25.001 15.3395 24.9489 15.4541 24.8447C15.5687 24.7406 15.626 24.6051 15.626 24.4385C15.626 24.1468 15.4697 23.8031 15.1572 23.4072C14.8447 23.0114 14.6885 22.4176 14.6885 21.626C14.6885 20.751 14.9906 20.0531 15.5947 19.5322C16.1989 19.0114 16.9385 18.751 17.8135 18.751H20.001C21.376 18.751 22.5531 18.3499 23.5322 17.5479C24.5114 16.7458 25.001 15.501 25.001 13.8135C25.001 11.2926 24.0374 9.19369 22.1104 7.5166C20.1833 5.83952 17.8968 5.00098 15.251 5.00098C12.4176 5.00098 10.001 5.96973 8.00098 7.90723C6.00098 9.84473 5.00098 12.2093 5.00098 15.001C5.00098 17.7718 5.97494 20.1312 7.92285 22.0791C9.87077 24.027 12.2301 25.001 15.001 25.001Z" fill="white"/>
</g>
</svg>
