<svg width="30" height="30" viewBox="0 0 30 30" fill="none" xmlns="http://www.w3.org/2000/svg">
<mask id="mask0_297_5730" style="mask-type:alpha" maskUnits="userSpaceOnUse" x="0" y="0" width="30" height="30">
<rect width="30" height="30" fill="#D9D9D9"/>
</mask>
<g mask="url(#mask0_297_5730)">
<path d="M15.001 21.875C16.5635 21.875 17.8916 21.3281 18.9854 20.2344C20.0791 19.1406 20.626 17.8125 20.626 16.25C20.626 16.1458 20.6208 16.0417 20.6104 15.9375C20.5999 15.8333 20.5843 15.7292 20.5635 15.625H18.0635C18.1051 15.7292 18.126 15.8333 18.126 15.9375V16.25C18.126 17.125 17.8239 17.8646 17.2197 18.4688C16.6156 19.0729 15.876 19.375 15.001 19.375H10.3135C10.8135 20.125 11.4749 20.7292 12.2979 21.1875C13.1208 21.6458 14.0218 21.875 15.001 21.875ZM9.43848 16.875H11.9385C11.8968 16.7708 11.876 16.6667 11.876 16.5625V16.25C11.876 15.375 12.1781 14.6354 12.7822 14.0312C13.3864 13.4271 14.126 13.125 15.001 13.125H19.6885C19.1885 12.375 18.527 11.7708 17.7041 11.3125C16.8812 10.8542 15.9801 10.625 15.001 10.625C13.4385 10.625 12.1104 11.1719 11.0166 12.2656C9.92285 13.3594 9.37598 14.6875 9.37598 16.25C9.37598 16.3542 9.38119 16.4583 9.3916 16.5625C9.40202 16.6667 9.41764 16.7708 9.43848 16.875ZM5.00098 26.25C4.31348 26.25 3.72494 26.0052 3.23535 25.5156C2.74577 25.026 2.50098 24.4375 2.50098 23.75V8.75C2.50098 8.0625 2.74577 7.47396 3.23535 6.98438C3.72494 6.49479 4.31348 6.25 5.00098 6.25H8.93848L11.251 3.75H18.751L21.0635 6.25H25.001C25.6885 6.25 26.277 6.49479 26.7666 6.98438C27.2562 7.47396 27.501 8.0625 27.501 8.75V23.75C27.501 24.4375 27.2562 25.026 26.7666 25.5156C26.277 26.0052 25.6885 26.25 25.001 26.25H5.00098ZM5.00098 23.75H25.001V8.75H19.9385L17.6572 6.25H12.3447L10.0635 8.75H5.00098V23.75Z" fill="white"/>
</g>
</svg>
