<svg width="28" height="28" viewBox="0 0 28 28" fill="none" xmlns="http://www.w3.org/2000/svg">
<mask id="mask0_292_2919" style="mask-type:alpha" maskUnits="userSpaceOnUse" x="0" y="0" width="28" height="28">
<rect width="28" height="28" fill="#D9D9D9"/>
</mask>
<g mask="url(#mask0_292_2919)">
<path d="M8.16732 15.7504C8.65343 15.7504 9.06662 15.5803 9.4069 15.24C9.74718 14.8997 9.91732 14.4865 9.91732 14.0004C9.91732 13.5143 9.74718 13.1011 9.4069 12.7608C9.06662 12.4205 8.65343 12.2504 8.16732 12.2504C7.68121 12.2504 7.26801 12.4205 6.92773 12.7608C6.58746 13.1011 6.41732 13.5143 6.41732 14.0004C6.41732 14.4865 6.58746 14.8997 6.92773 15.24C7.26801 15.5803 7.68121 15.7504 8.16732 15.7504ZM14.0007 15.7504C14.4868 15.7504 14.9 15.5803 15.2402 15.24C15.5805 14.8997 15.7507 14.4865 15.7507 14.0004C15.7507 13.5143 15.5805 13.1011 15.2402 12.7608C14.9 12.4205 14.4868 12.2504 14.0007 12.2504C13.5145 12.2504 13.1013 12.4205 12.7611 12.7608C12.4208 13.1011 12.2507 13.5143 12.2507 14.0004C12.2507 14.4865 12.4208 14.8997 12.7611 15.24C13.1013 15.5803 13.5145 15.7504 14.0007 15.7504ZM19.834 15.7504C20.3201 15.7504 20.7333 15.5803 21.0736 15.24C21.4138 14.8997 21.584 14.4865 21.584 14.0004C21.584 13.5143 21.4138 13.1011 21.0736 12.7608C20.7333 12.4205 20.3201 12.2504 19.834 12.2504C19.3479 12.2504 18.9347 12.4205 18.5944 12.7608C18.2541 13.1011 18.084 13.5143 18.084 14.0004C18.084 14.4865 18.2541 14.8997 18.5944 15.24C18.9347 15.5803 19.3479 15.7504 19.834 15.7504ZM14.0007 25.6671C12.3868 25.6671 10.8701 25.3608 9.45065 24.7483C8.03121 24.1358 6.79648 23.3046 5.74648 22.2546C4.69648 21.2046 3.86523 19.9699 3.25273 18.5504C2.64023 17.131 2.33398 15.6143 2.33398 14.0004C2.33398 12.3865 2.64023 10.8699 3.25273 9.45041C3.86523 8.03096 4.69648 6.79624 5.74648 5.74624C6.79648 4.69624 8.03121 3.86499 9.45065 3.25249C10.8701 2.63999 12.3868 2.33374 14.0007 2.33374C15.6145 2.33374 17.1312 2.63999 18.5507 3.25249C19.9701 3.86499 21.2048 4.69624 22.2548 5.74624C23.3048 6.79624 24.1361 8.03096 24.7486 9.45041C25.3611 10.8699 25.6673 12.3865 25.6673 14.0004C25.6673 15.6143 25.3611 17.131 24.7486 18.5504C24.1361 19.9699 23.3048 21.2046 22.2548 22.2546C21.2048 23.3046 19.9701 24.1358 18.5507 24.7483C17.1312 25.3608 15.6145 25.6671 14.0007 25.6671ZM14.0007 23.3337C16.6062 23.3337 18.8132 22.4296 20.6215 20.6212C22.4298 18.8129 23.334 16.606 23.334 14.0004C23.334 11.3949 22.4298 9.18791 20.6215 7.37957C18.8132 5.57124 16.6062 4.66707 14.0007 4.66707C11.3951 4.66707 9.18815 5.57124 7.37982 7.37957C5.57148 9.18791 4.66732 11.3949 4.66732 14.0004C4.66732 16.606 5.57148 18.8129 7.37982 20.6212C9.18815 22.4296 11.3951 23.3337 14.0007 23.3337Z" fill="white"/>
</g>
</svg>
