<svg width="30" height="30" viewBox="0 0 30 30" fill="none" xmlns="http://www.w3.org/2000/svg">
<mask id="mask0_297_5742" style="mask-type:alpha" maskUnits="userSpaceOnUse" x="0" y="0" width="30" height="30">
<rect width="30" height="30" fill="#D9D9D9"/>
</mask>
<g mask="url(#mask0_297_5742)">
<path d="M2.50098 8.75098V2.50098H8.75098V5.00098H5.00098V8.75098H2.50098ZM2.50098 27.501V21.251H5.00098V25.001H8.75098V27.501H2.50098ZM21.251 27.501V25.001H25.001V21.251H27.501V27.501H21.251ZM25.001 8.75098V5.00098H21.251V2.50098H27.501V8.75098H25.001ZM21.876 21.876H23.751V23.751H21.876V21.876ZM21.876 18.126H23.751V20.001H21.876V18.126ZM20.001 20.001H21.876V21.876H20.001V20.001ZM18.126 21.876H20.001V23.751H18.126V21.876ZM16.251 20.001H18.126V21.876H16.251V20.001ZM20.001 16.251H21.876V18.126H20.001V16.251ZM18.126 18.126H20.001V20.001H18.126V18.126ZM16.251 16.251H18.126V18.126H16.251V16.251ZM23.751 6.25098V13.751H16.251V6.25098H23.751ZM13.751 16.251V23.751H6.25098V16.251H13.751ZM13.751 6.25098V13.751H6.25098V6.25098H13.751ZM11.876 21.876V18.126H8.12598V21.876H11.876ZM11.876 11.876V8.12598H8.12598V11.876H11.876ZM21.876 11.876V8.12598H18.126V11.876H21.876Z" fill="white"/>
</g>
</svg>
