<svg width="28" height="28" viewBox="0 0 28 28" fill="none" xmlns="http://www.w3.org/2000/svg">
<mask id="mask0_292_3075" style="mask-type:alpha" maskUnits="userSpaceOnUse" x="0" y="0" width="28" height="28">
<rect width="28" height="28" fill="#D9D9D9"/>
</mask>
<g mask="url(#mask0_292_3075)">
<path d="M4.66732 25.6663C4.02565 25.6663 3.47635 25.4378 3.0194 24.9808C2.56246 24.5239 2.33398 23.9746 2.33398 23.3329V9.33293C2.33398 8.84682 2.46523 8.40932 2.72773 8.02043C2.99023 7.63154 3.3451 7.34959 3.79232 7.17459L18.5507 1.16626L19.309 3.09126L9.68399 6.99959H23.334C23.9757 6.99959 24.525 7.22807 24.9819 7.68501C25.4388 8.14195 25.6673 8.69126 25.6673 9.33293V23.3329C25.6673 23.9746 25.4388 24.5239 24.9819 24.9808C24.525 25.4378 23.9757 25.6663 23.334 25.6663H4.66732ZM4.66732 23.3329H23.334V15.1663H4.66732V23.3329ZM9.33398 22.1663C10.1507 22.1663 10.8409 21.8843 11.4048 21.3204C11.9687 20.7565 12.2507 20.0663 12.2507 19.2496C12.2507 18.4329 11.9687 17.7426 11.4048 17.1788C10.8409 16.6149 10.1507 16.3329 9.33398 16.3329C8.51732 16.3329 7.82704 16.6149 7.26315 17.1788C6.69926 17.7426 6.41732 18.4329 6.41732 19.2496C6.41732 20.0663 6.69926 20.7565 7.26315 21.3204C7.82704 21.8843 8.51732 22.1663 9.33398 22.1663ZM4.66732 12.8329H18.6673V10.4996H21.0007V12.8329H23.334V9.33293H4.66732V12.8329Z" fill="white"/>
</g>
</svg>
