<svg width="20" height="20" viewBox="0 0 20 20" fill="none" xmlns="http://www.w3.org/2000/svg">
<mask id="mask0_312_2303" style="mask-type:alpha" maskUnits="userSpaceOnUse" x="0" y="0" width="20" height="20">
<rect width="20" height="20" fill="#D9D9D9"/>
</mask>
<g mask="url(#mask0_312_2303)">
<path d="M4.99967 15.8747L6.64551 15.208C6.50662 14.8052 6.37815 14.3955 6.26009 13.9788C6.14204 13.5622 6.04829 13.1455 5.97884 12.7288L4.99967 13.3955V15.8747ZM8.33301 14.9997H11.6663C11.9163 14.4441 12.1177 13.767 12.2705 12.9684C12.4233 12.1698 12.4997 11.3538 12.4997 10.5205C12.4997 9.14551 12.2705 7.84342 11.8122 6.61426C11.3538 5.38509 10.7497 4.43717 9.99967 3.77051C9.24967 4.43717 8.64551 5.38509 8.18717 6.61426C7.72884 7.84342 7.49967 9.14551 7.49967 10.5205C7.49967 11.3538 7.57606 12.1698 7.72884 12.9684C7.88162 13.767 8.08301 14.4441 8.33301 14.9997ZM9.99967 10.833C9.54134 10.833 9.14898 10.6698 8.82259 10.3434C8.4962 10.017 8.33301 9.62468 8.33301 9.16634C8.33301 8.70801 8.4962 8.31565 8.82259 7.98926C9.14898 7.66287 9.54134 7.49967 9.99967 7.49967C10.458 7.49967 10.8504 7.66287 11.1768 7.98926C11.5031 8.31565 11.6663 8.70801 11.6663 9.16634C11.6663 9.62468 11.5031 10.017 11.1768 10.3434C10.8504 10.6698 10.458 10.833 9.99967 10.833ZM14.9997 15.8747V13.3955L14.0205 12.7288C13.9511 13.1455 13.8573 13.5622 13.7393 13.9788C13.6212 14.3955 13.4927 14.8052 13.3538 15.208L14.9997 15.8747ZM9.99967 1.64551C11.3747 2.64551 12.4129 3.91634 13.1143 5.45801C13.8156 6.99967 14.1663 8.79134 14.1663 10.833L15.9163 11.9997C16.1525 12.1525 16.3365 12.3538 16.4684 12.6038C16.6004 12.8538 16.6663 13.1177 16.6663 13.3955V18.333L12.5205 16.6663H7.47884L3.33301 18.333V13.3955C3.33301 13.1177 3.39898 12.8538 3.53092 12.6038C3.66287 12.3538 3.8469 12.1525 4.08301 11.9997L5.83301 10.833C5.83301 8.79134 6.1837 6.99967 6.88509 5.45801C7.58648 3.91634 8.62467 2.64551 9.99967 1.64551Z" fill="white"/>
</g>
</svg>
