<svg width="24" height="24" viewBox="0 0 24 24" fill="none" xmlns="http://www.w3.org/2000/svg">
<mask id="mask0_297_4715" style="mask-type:alpha" maskUnits="userSpaceOnUse" x="0" y="0" width="24" height="24">
<rect width="24" height="24" fill="#D9D9D9"/>
</mask>
<g mask="url(#mask0_297_4715)">
<path d="M15.6 19.1667H20.4V14.5H18.6V17.4167H15.6V19.1667ZM3.6 12.1667H5.4V9.25H8.4V7.5H3.6V12.1667ZM7.2 25V22.6667H2.4C1.74 22.6667 1.175 22.4382 0.705 21.9813C0.235 21.5243 0 20.975 0 20.3333V6.33333C0 5.69167 0.235 5.14236 0.705 4.68542C1.175 4.22847 1.74 4 2.4 4H21.6C22.26 4 22.825 4.22847 23.295 4.68542C23.765 5.14236 24 5.69167 24 6.33333V20.3333C24 20.975 23.765 21.5243 23.295 21.9813C22.825 22.4382 22.26 22.6667 21.6 22.6667H16.8V25H7.2ZM2.4 20.3333H21.6V6.33333H2.4V20.3333Z" fill="#868788"/>
</g>
</svg>
