<svg width="24" height="25" viewBox="0 0 24 25" fill="none" xmlns="http://www.w3.org/2000/svg">
<mask id="mask0_292_2892" style="mask-type:alpha" maskUnits="userSpaceOnUse" x="0" y="0" width="24" height="25">
<rect y="0.212891" width="24" height="24" fill="#D9D9D9"/>
</mask>
<g mask="url(#mask0_292_2892)">
<path d="M13 22.2129V18.2129L17 17.2129L13 16.2129V12.2129L23 17.2129L13 22.2129ZM5 21.2129C4.45 21.2129 3.97917 21.0171 3.5875 20.6254C3.19583 20.2337 3 19.7629 3 19.2129V15.4129C3.8 15.4129 4.5 15.1587 5.1 14.6504C5.7 14.1421 6 13.4962 6 12.7129C6 11.9296 5.7 11.2837 5.1 10.7754C4.5 10.2671 3.8 10.0129 3 10.0129V6.21289C3 5.66289 3.19583 5.19206 3.5875 4.80039C3.97917 4.40872 4.45 4.21289 5 4.21289H9C9 3.51289 9.24167 2.92122 9.725 2.43789C10.2083 1.95456 10.8 1.71289 11.5 1.71289C12.2 1.71289 12.7917 1.95456 13.275 2.43789C13.7583 2.92122 14 3.51289 14 4.21289H18C18.55 4.21289 19.0208 4.40872 19.4125 4.80039C19.8042 5.19206 20 5.66289 20 6.21289V13.4629L18 12.4629V6.21289H12V4.21289C12 4.07956 11.95 3.96289 11.85 3.86289C11.75 3.76289 11.6333 3.71289 11.5 3.71289C11.3667 3.71289 11.25 3.76289 11.15 3.86289C11.05 3.96289 11 4.07956 11 4.21289V6.21289H5V8.41289C5.9 8.74622 6.625 9.30456 7.175 10.0879C7.725 10.8712 8 11.7462 8 12.7129C8 13.6629 7.725 14.5296 7.175 15.3129C6.625 16.0962 5.9 16.6629 5 17.0129V19.2129H7.125C7.40833 18.4629 7.89167 17.8087 8.575 17.2504C9.25833 16.6921 10.0667 16.3629 11 16.2629V18.2629C10.3333 18.3962 9.8 18.7087 9.4 19.2004C9 19.6921 8.8 20.3629 8.8 21.2129H5Z" fill="white" fill-opacity="0.5"/>
</g>
</svg>
