<svg width="30" height="30" viewBox="0 0 30 30" fill="none" xmlns="http://www.w3.org/2000/svg">
<mask id="mask0_292_3128" style="mask-type:alpha" maskUnits="userSpaceOnUse" x="0" y="0" width="30" height="30">
<rect width="30" height="30" fill="#D9D9D9"/>
</mask>
<g mask="url(#mask0_292_3128)">
<path d="M8.75195 27.501C8.06445 27.501 7.47591 27.2562 6.98633 26.7666C6.49675 26.277 6.25195 25.6885 6.25195 25.001C6.25195 24.3135 6.49675 23.7249 6.98633 23.2354C7.47591 22.7458 8.06445 22.501 8.75195 22.501C9.43945 22.501 10.028 22.7458 10.5176 23.2354C11.0072 23.7249 11.252 24.3135 11.252 25.001C11.252 25.6885 11.0072 26.277 10.5176 26.7666C10.028 27.2562 9.43945 27.501 8.75195 27.501ZM21.252 27.501C20.5645 27.501 19.9759 27.2562 19.4863 26.7666C18.9967 26.277 18.752 25.6885 18.752 25.001C18.752 24.3135 18.9967 23.7249 19.4863 23.2354C19.9759 22.7458 20.5645 22.501 21.252 22.501C21.9395 22.501 22.528 22.7458 23.0176 23.2354C23.5072 23.7249 23.752 24.3135 23.752 25.001C23.752 25.6885 23.5072 26.277 23.0176 26.7666C22.528 27.2562 21.9395 27.501 21.252 27.501ZM7.68945 7.50098L10.6895 13.751H19.4395L22.877 7.50098H7.68945ZM6.50195 5.00098H24.9395C25.4186 5.00098 25.7832 5.21452 26.0332 5.6416C26.2832 6.06869 26.2936 6.50098 26.0645 6.93848L21.627 14.9385C21.3978 15.3551 21.0905 15.6781 20.7051 15.9072C20.3197 16.1364 19.8978 16.251 19.4395 16.251H10.127L8.75195 18.751H23.752V21.251H8.75195C7.81445 21.251 7.10612 20.8395 6.62695 20.0166C6.14779 19.1937 6.12695 18.376 6.56445 17.5635L8.25195 14.501L3.75195 5.00098H1.25195V2.50098H5.31445L6.50195 5.00098Z" fill="#868788"/>
</g>
</svg>
