<svg width="30" height="30" viewBox="0 0 30 30" fill="none" xmlns="http://www.w3.org/2000/svg">
<mask id="mask0_292_3081" style="mask-type:alpha" maskUnits="userSpaceOnUse" x="0" y="0" width="30" height="30">
<rect width="30" height="30" fill="#D9D9D9"/>
</mask>
<g mask="url(#mask0_292_3081)">
<path d="M6.25098 18.75C5.20931 18.75 4.32389 18.3854 3.59473 17.6562C2.86556 16.9271 2.50098 16.0417 2.50098 15C2.50098 13.9583 2.86556 13.0729 3.59473 12.3438C4.32389 11.6146 5.20931 11.25 6.25098 11.25H23.751C24.7926 11.25 25.6781 11.6146 26.4072 12.3438C27.1364 13.0729 27.501 13.9583 27.501 15C27.501 16.0417 27.1364 16.9271 26.4072 17.6562C25.6781 18.3854 24.7926 18.75 23.751 18.75H6.25098ZM17.501 16.25H23.751C24.1051 16.25 24.402 16.1302 24.6416 15.8906C24.8812 15.651 25.001 15.3542 25.001 15C25.001 14.6458 24.8812 14.349 24.6416 14.1094C24.402 13.8698 24.1051 13.75 23.751 13.75H17.501V16.25Z" fill="white"/>
</g>
</svg>
