<svg width="30" height="30" viewBox="0 0 30 30" fill="none" xmlns="http://www.w3.org/2000/svg">
<mask id="mask0_292_3200" style="mask-type:alpha" maskUnits="userSpaceOnUse" x="0" y="0" width="30" height="30">
<rect width="30" height="30" fill="#D9D9D9"/>
</mask>
<g mask="url(#mask0_292_3200)">
<path d="M14.7812 27.5C14.2812 27.5 13.8021 27.4062 13.3438 27.2188C12.8854 27.0312 12.4792 26.7604 12.125 26.4062L5.75 20L6.6875 19.0312C7.02083 18.6979 7.41146 18.474 7.85938 18.3594C8.30729 18.2448 8.75 18.25 9.1875 18.375L11.25 18.9688V8.75C11.25 8.39583 11.3698 8.09896 11.6094 7.85938C11.849 7.61979 12.1458 7.5 12.5 7.5C12.8542 7.5 13.151 7.61979 13.3906 7.85938C13.6302 8.09896 13.75 8.39583 13.75 8.75V22.2812L10.7188 21.4375L13.9062 24.625C14.0104 24.7292 14.1406 24.8177 14.2969 24.8906C14.4531 24.9635 14.6146 25 14.7812 25H20C20.6875 25 21.276 24.7552 21.7656 24.2656C22.2552 23.776 22.5 23.1875 22.5 22.5V17.5C22.5 17.1458 22.6198 16.849 22.8594 16.6094C23.099 16.3698 23.3958 16.25 23.75 16.25C24.1042 16.25 24.401 16.3698 24.6406 16.6094C24.8802 16.849 25 17.1458 25 17.5V22.5C25 23.875 24.5104 25.0521 23.5312 26.0312C22.5521 27.0104 21.375 27.5 20 27.5H14.7812ZM15 18.75V13.75C15 13.3958 15.1198 13.099 15.3594 12.8594C15.599 12.6198 15.8958 12.5 16.25 12.5C16.6042 12.5 16.901 12.6198 17.1406 12.8594C17.3802 13.099 17.5 13.3958 17.5 13.75V18.75H15ZM18.75 18.75V15C18.75 14.6458 18.8698 14.349 19.1094 14.1094C19.349 13.8698 19.6458 13.75 20 13.75C20.3542 13.75 20.651 13.8698 20.8906 14.1094C21.1302 14.349 21.25 14.6458 21.25 15V18.75H18.75ZM2.5 8.75V2.5H4.375V5.03125C5.875 3.80208 7.53125 2.86458 9.34375 2.21875C11.1562 1.57292 13.0417 1.25 15 1.25C18.0417 1.25 20.7292 1.94792 23.0625 3.34375C25.3958 4.73958 26.875 6.54167 27.5 8.75H25.5313C24.7396 7 23.401 5.625 21.5156 4.625C19.6302 3.625 17.4583 3.125 15 3.125C13.1667 3.125 11.4062 3.44792 9.71875 4.09375C8.03125 4.73958 6.5 5.66667 5.125 6.875H8.75V8.75H2.5Z" fill="white"/>
</g>
</svg>
