<svg width="30" height="30" viewBox="0 0 30 30" fill="none" xmlns="http://www.w3.org/2000/svg">
<mask id="mask0_297_4281" style="mask-type:alpha" maskUnits="userSpaceOnUse" x="0" y="0" width="30" height="30">
<rect width="30" height="30" fill="#D9D9D9"/>
</mask>
<g mask="url(#mask0_297_4281)">
<path d="M22.498 28.7493C20.7689 28.7493 19.2949 28.1399 18.0762 26.9211C16.8574 25.7024 16.248 24.2284 16.248 22.4993C16.248 20.7701 16.8574 19.2961 18.0762 18.0774C19.2949 16.8586 20.7689 16.2493 22.498 16.2493C24.2272 16.2493 25.7012 16.8586 26.9199 18.0774C28.1387 19.2961 28.748 20.7701 28.748 22.4993C28.748 24.2284 28.1387 25.7024 26.9199 26.9211C25.7012 28.1399 24.2272 28.7493 22.498 28.7493ZM24.5605 25.4368L25.4355 24.5618L23.123 22.2493V18.7493H21.873V22.7493L24.5605 25.4368ZM16.248 12.4993H24.998V14.1243C25.4564 14.2701 25.8939 14.442 26.3105 14.6399C26.7272 14.8378 27.123 15.0722 27.498 15.343V7.49927C27.498 6.81177 27.2533 6.22323 26.7637 5.73364C26.2741 5.24406 25.6855 4.99927 24.998 4.99927H4.99805C4.31055 4.99927 3.72201 5.24406 3.23242 5.73364C2.74284 6.22323 2.49805 6.81177 2.49805 7.49927V22.4993C2.49805 23.1868 2.74284 23.7753 3.23242 24.2649C3.72201 24.7545 4.31055 24.9993 4.99805 24.9993H14.123C13.998 24.6034 13.9043 24.1972 13.8418 23.7805C13.7793 23.3638 13.748 22.9368 13.748 22.4993H4.99805V7.49927H16.248V12.4993Z" fill="white"/>
</g>
</svg>
