<svg width="30" height="30" viewBox="0 0 30 30" fill="none" xmlns="http://www.w3.org/2000/svg">
<mask id="mask0_292_3194" style="mask-type:alpha" maskUnits="userSpaceOnUse" x="0" y="0" width="30" height="30">
<rect width="30" height="30" fill="#D9D9D9"/>
</mask>
<g mask="url(#mask0_292_3194)">
<path d="M11.25 26.25C10.5625 26.25 9.97396 26.0052 9.48438 25.5156C8.99479 25.026 8.75 24.4375 8.75 23.75V11.25C8.75 10.5625 8.99479 9.97396 9.48438 9.48438C9.97396 8.99479 10.5625 8.75 11.25 8.75H23.75C24.4375 8.75 25.026 8.99479 25.5156 9.48438C26.0052 9.97396 26.25 10.5625 26.25 11.25V23.75C26.25 24.4375 26.0052 25.026 25.5156 25.5156C25.026 26.0052 24.4375 26.25 23.75 26.25H11.25ZM11.25 13.75H23.75V11.25H11.25V13.75ZM16.25 18.75H18.75V16.25H16.25V18.75ZM16.25 23.75H18.75V21.25H16.25V23.75ZM11.25 18.75H13.75V16.25H11.25V18.75ZM21.25 18.75H23.75V16.25H21.25V18.75ZM11.25 23.75H13.75V21.25H11.25V23.75ZM21.25 23.75H23.75V21.25H21.25V23.75ZM6.25 21.25C5.5625 21.25 4.97396 21.0052 4.48438 20.5156C3.99479 20.026 3.75 19.4375 3.75 18.75V6.25C3.75 5.5625 3.99479 4.97396 4.48438 4.48438C4.97396 3.99479 5.5625 3.75 6.25 3.75H18.75C19.4375 3.75 20.026 3.99479 20.5156 4.48438C21.0052 4.97396 21.25 5.5625 21.25 6.25V7.5H18.75V6.25H6.25V18.75H7.5V21.25H6.25Z" fill="white"/>
</g>
</svg>
