<svg width="30" height="30" viewBox="0 0 30 30" fill="none" xmlns="http://www.w3.org/2000/svg">
<mask id="mask0_292_3096" style="mask-type:alpha" maskUnits="userSpaceOnUse" x="0" y="0" width="30" height="30">
<rect width="30" height="30" fill="#D9D9D9"/>
</mask>
<g mask="url(#mask0_292_3096)">
<path d="M8.74902 22.5C6.66569 22.5 4.89486 21.7708 3.43652 20.3125C1.97819 18.8542 1.24902 17.0833 1.24902 15C1.24902 12.9167 1.97819 11.1458 3.43652 9.6875C4.89486 8.22917 6.66569 7.5 8.74902 7.5H21.249C23.3324 7.5 25.1032 8.22917 26.5615 9.6875C28.0199 11.1458 28.749 12.9167 28.749 15C28.749 17.0833 28.0199 18.8542 26.5615 20.3125C25.1032 21.7708 23.3324 22.5 21.249 22.5H8.74902ZM8.74902 20H21.249C22.624 20 23.8011 19.5104 24.7803 18.5312C25.7594 17.5521 26.249 16.375 26.249 15C26.249 13.625 25.7594 12.4479 24.7803 11.4688C23.8011 10.4896 22.624 10 21.249 10H8.74902C7.37402 10 6.19694 10.4896 5.21777 11.4688C4.23861 12.4479 3.74902 13.625 3.74902 15C3.74902 16.375 4.23861 17.5521 5.21777 18.5312C6.19694 19.5104 7.37402 20 8.74902 20ZM21.249 18.75C22.2907 18.75 23.1761 18.3854 23.9053 17.6562C24.6344 16.9271 24.999 16.0417 24.999 15C24.999 13.9583 24.6344 13.0729 23.9053 12.3438C23.1761 11.6146 22.2907 11.25 21.249 11.25C20.2074 11.25 19.3219 11.6146 18.5928 12.3438C17.8636 13.0729 17.499 13.9583 17.499 15C17.499 16.0417 17.8636 16.9271 18.5928 17.6562C19.3219 18.3854 20.2074 18.75 21.249 18.75Z" fill="white"/>
</g>
</svg>
