<svg width="21" height="21" viewBox="0 0 21 21" fill="none" xmlns="http://www.w3.org/2000/svg">
<path d="M20.7108 19.4838L14.9843 14.4043C17.3443 10.8791 17.1014 5.83754 14.1514 2.65343C12.5896 0.947653 10.5072 0 8.28605 0C6.06487 0 3.98251 0.947653 2.42074 2.65343C-0.806914 6.1787 -0.806914 11.9404 2.42074 15.4657C3.98251 17.1715 6.06487 18.1191 8.28605 18.1191C10.4031 18.1191 12.3814 17.2473 13.9431 15.6931L19.739 20.8105C19.8778 20.9242 20.0514 21 20.2249 21C20.4678 21 20.6761 20.8863 20.8149 20.6968C21.0926 20.3177 21.0578 19.787 20.7108 19.4838ZM8.28605 16.4134C6.48134 16.4134 4.81545 15.6552 3.53133 14.2527C0.893679 11.3718 0.893679 6.70939 3.53133 3.86643C4.81545 2.4639 6.48134 1.70578 8.28605 1.70578C10.0908 1.70578 11.7566 2.4639 13.0408 3.86643C15.6784 6.74729 15.6784 11.4097 13.0408 14.2527C11.7914 15.6552 10.0908 16.4134 8.28605 16.4134Z" fill="white"/>
</svg>
