<svg width="23" height="24" viewBox="0 0 23 24" fill="none" xmlns="http://www.w3.org/2000/svg">
<path d="M22.4625 10.5377H11.7V13.7252H19.425C19.0125 18.1502 15.4125 20.0627 11.925 20.0627C7.50001 20.0627 3.56252 16.6127 3.56252 11.6252C3.56252 6.82519 7.31251 3.18769 11.925 3.18769C15.45 3.18769 17.5875 5.47518 17.5875 5.47518L19.7625 3.18769C19.7625 3.18769 16.8375 0.000187692 11.775 0.000187692C5.10001 -0.0373123 0 5.55018 0 11.5877C0 17.4377 4.80002 23.2127 11.8875 23.2127C18.15 23.2127 22.65 18.9752 22.65 12.6377C22.6875 11.3252 22.4625 10.5377 22.4625 10.5377Z" fill="white"/>
</svg>
