<svg width="20" height="20" viewBox="0 0 20 20" fill="none" xmlns="http://www.w3.org/2000/svg">
<path d="M19.8307 9.07925H10.3292V11.8256H17.1491C16.785 15.6382 13.6067 17.286 10.5278 17.286C6.62129 17.286 3.14512 14.3135 3.14512 10.0162C3.14512 5.88056 6.45576 2.74651 10.5278 2.74651C13.6398 2.74651 15.5269 4.71741 15.5269 4.71741L17.4471 2.74651C17.4471 2.74651 14.8648 0.000161715 10.3954 0.000161715C4.50248 -0.0321482 0 4.78203 0 9.98392C0 15.0243 4.23763 20 10.4947 20C16.0235 20 19.9963 16.349 19.9963 10.8886C20.0294 9.75775 19.8307 9.07925 19.8307 9.07925Z" fill="white"/>
</svg>
