<svg width="25" height="16" viewBox="0 0 25 16" fill="none" xmlns="http://www.w3.org/2000/svg">
<path d="M7.04735 5.43863C7.01922 6.3234 7.46141 6.7152 7.47234 6.96402C7.46714 7.01467 7.44988 7.06333 7.42202 7.10594C7.39416 7.14855 7.3565 7.18387 7.31219 7.20895L6.81219 7.55895C6.74748 7.60431 6.67121 7.63032 6.59227 7.63395C6.57547 7.63316 6.27235 7.70543 5.79227 6.63356C5.49937 6.99916 5.1267 7.29291 4.70279 7.49231C4.27888 7.6917 3.81497 7.79146 3.34656 7.78395C2.71063 7.81871 0.987188 7.42301 1.07586 5.58824C1.01375 4.09293 2.40633 3.16402 3.84656 3.24254C4.12391 3.24332 4.69031 3.25699 5.68211 3.48746V2.87731C5.78719 1.84371 5.10789 1.04176 3.93172 1.16207C3.83797 1.16246 3.17391 1.14254 2.14109 1.55699C1.85359 1.68902 1.81688 1.66715 1.72117 1.66715C1.43172 1.66715 1.55086 0.828087 1.60633 0.721837C1.80984 0.471837 3.00711 0.00503962 4.18211 0.0116802C4.96775 -0.0578013 5.74919 0.184668 6.3575 0.68668C6.60478 0.963275 6.79343 1.28712 6.91206 1.63865C7.0307 1.99019 7.07685 2.36212 7.04774 2.73199L7.04735 5.43863ZM3.67156 6.70387C4.93836 6.68551 5.47469 5.92379 5.59695 5.51363C5.69305 5.12105 5.67703 4.87262 5.67703 4.44332C5.2993 4.3527 4.75555 4.25387 4.13172 4.25309C3.53992 4.20856 2.45906 4.47301 2.50125 5.51324C2.45281 6.1691 2.93563 6.7398 3.67156 6.70387ZM10.3481 7.60426C10.0411 7.63238 9.89813 7.41441 9.85281 7.19918L7.9075 0.76754C7.86961 0.658946 7.84461 0.546836 7.8325 0.432383C7.82533 0.385197 7.83718 0.337092 7.86545 0.298638C7.89372 0.260184 7.9361 0.234528 7.98328 0.227305C7.99266 0.225743 7.90008 0.227305 8.85242 0.227305C9.19539 0.19293 9.30711 0.462852 9.34266 0.632383L10.738 6.13356L12.0333 0.632383C12.054 0.506602 12.1481 0.199962 12.5333 0.232383H13.2036C13.2884 0.225352 13.6376 0.212852 13.6989 0.637461L15.0044 6.20895L16.4446 0.637461C16.4634 0.552305 16.5509 0.193321 16.9399 0.232383H17.7102C17.7434 0.227305 17.9505 0.200743 17.9153 0.567539C17.8985 0.639805 18.0485 0.151134 15.8548 7.20426C15.8098 7.41949 15.6665 7.63746 15.3595 7.60934H14.6294C14.202 7.65426 14.1407 7.23199 14.1341 7.18941L12.8388 1.83277L11.5583 7.18395C11.552 7.22652 11.4907 7.64879 11.063 7.60387H10.3481V7.60426ZM21.0309 7.82418C20.8013 7.82457 19.7059 7.81246 18.7903 7.3441C18.6991 7.30548 18.6214 7.24065 18.5671 7.15783C18.5128 7.075 18.4843 6.97791 18.4852 6.87887V6.45895C18.4852 6.12887 18.7274 6.18941 18.8302 6.22887C19.2223 6.38746 19.4739 6.50777 19.9555 6.60387C21.3872 6.89801 22.0169 6.51402 22.1712 6.42887C22.6848 6.12379 22.7255 5.42574 22.3763 5.06363C21.9669 4.72027 21.7716 4.70738 20.3009 4.24332C20.1196 4.19293 18.5938 3.71168 18.5903 2.19801C18.5665 1.09488 19.5688 0.00347699 21.3059 0.0124614C21.8009 0.0120707 23.1196 0.17379 23.4766 0.622618C23.5294 0.704258 23.5555 0.800352 23.5516 0.897618V1.29254C23.5516 1.46598 23.4884 1.5527 23.3614 1.5527C23.0602 1.5191 22.5259 1.11637 21.4411 1.13277C21.172 1.11871 19.8829 1.16832 19.9407 2.10816C19.9239 2.84879 20.9802 3.12652 21.1009 3.15856C22.5251 3.58707 23.0012 3.65816 23.5665 4.31402C24.236 5.18316 23.8751 6.20074 23.7364 6.47965C22.9911 7.9441 21.0638 7.82496 21.0309 7.82418ZM22.6013 11.9203C19.8657 13.9406 15.8946 15.016 12.504 15.016C7.92901 15.0461 3.50821 13.3639 0.110626 10.3C-0.144452 10.0699 0.0805478 9.75465 0.390704 9.93004C4.15963 12.086 8.42685 13.2188 12.7688 13.216C16.0113 13.1986 19.2184 12.5408 22.2059 11.2804C22.6661 11.0851 23.0563 11.5851 22.6013 11.9203ZM23.7415 10.6199C23.3915 10.1699 21.4259 10.4097 20.5458 10.5148C20.2805 10.5449 20.2356 10.3148 20.4759 10.1449C22.0411 9.04449 24.6118 9.35973 24.9071 9.72965C25.202 10.0996 24.827 12.6754 23.3618 13.9058C23.1368 14.0961 22.9216 13.9957 23.0216 13.7457C23.3512 12.9156 24.0915 11.0703 23.7415 10.6199Z" fill="white"/>
</svg>
