<svg width="20" height="19" viewBox="0 0 20 19" fill="none" xmlns="http://www.w3.org/2000/svg">
<path d="M19.728 16.4267L15.8332 12.7273C15.6574 12.5603 15.4191 12.4675 15.1691 12.4675H14.5323C15.6105 11.1577 16.2512 9.5102 16.2512 7.718C16.2512 3.45455 12.6142 0 8.12559 0C3.63698 0 0 3.45455 0 7.718C0 11.9814 3.63698 15.436 8.12559 15.436C10.0125 15.436 11.747 14.8275 13.126 13.8033V14.4082C13.126 14.6456 13.2236 14.872 13.3994 15.039L17.2942 18.7384C17.6614 19.0872 18.2552 19.0872 18.6185 18.7384L19.7241 17.6883C20.0913 17.3395 20.0913 16.7755 19.728 16.4267ZM8.12559 12.4675C5.36367 12.4675 3.12523 10.3451 3.12523 7.718C3.12523 5.09462 5.35977 2.96846 8.12559 2.96846C10.8875 2.96846 13.126 5.09091 13.126 7.718C13.126 10.3414 10.8914 12.4675 8.12559 12.4675Z" fill="white"/>
</svg>
