<svg width="18" height="19" viewBox="0 0 18 19" fill="none" xmlns="http://www.w3.org/2000/svg">
<path d="M17.673 3.52318C16.7216 2.45364 15.7108 1.38411 14.6999 0.346027C14.4918 0.125828 14.254 0 13.9864 0C13.7188 0 13.4513 0.0943709 13.2729 0.31457L2.0646 12.0795C1.88622 12.2682 1.7673 12.4884 1.67811 12.7086L0.0429437 17.9934C-0.046247 18.245 0.0132135 18.4967 0.132134 18.6854C0.280785 18.8742 0.488897 19 0.756469 19H0.87539L5.95926 17.207C6.1971 17.1126 6.40521 16.9868 6.55386 16.798L17.7027 5.03311C17.8811 4.84437 18 4.56126 18 4.27815C18 3.99503 17.8811 3.74338 17.673 3.52318ZM5.6025 15.8228C5.57277 15.8543 5.54303 15.8543 5.5133 15.8858L1.67811 17.2384L2.95651 13.1805C2.95651 13.149 2.98624 13.1176 3.01597 13.0861L11.1918 4.46689L13.7783 7.20364L5.6025 15.8228ZM14.6999 6.19702L12.1134 3.46026L13.927 1.54139C14.7891 2.42219 15.6513 3.36589 16.4838 4.27815L14.6999 6.19702Z" fill="white"/>
</svg>
