<svg width="24" height="24" viewBox="0 0 24 24" fill="none" xmlns="http://www.w3.org/2000/svg">
<path d="M21.5591 0H2.47989C1.11995 0 0 1.12 0 2.48V21.52C0 22.88 1.11995 24 2.47989 24H21.5191C22.879 24 23.999 22.88 23.999 21.52V2.48C24.039 1.12 22.919 0 21.5591 0ZM2.47989 1.8H21.5191C21.9191 1.8 22.239 2.12 22.239 2.52V6.04H1.79992V2.48C1.79992 2.08 2.11991 1.8 2.47989 1.8ZM7.83966 7.8H22.239V14.16H7.83966V7.8ZM1.79992 21.56V7.8H6.03974V22.24H2.47989C2.11991 22.24 1.79992 21.92 1.79992 21.56ZM21.5591 22.24H7.83966V15.96H22.239V21.56C22.239 21.92 21.959 22.24 21.5591 22.24Z" fill="white" fill-opacity="0.5"/>
</svg>
