<svg width="25" height="11" viewBox="0 0 25 11" fill="none" xmlns="http://www.w3.org/2000/svg">
<path d="M4.35156 5.4375L4.57812 7.97656L4.35156 10.6445C4.33984 10.7422 4.26562 10.8164 4.17969 10.8164C4.09375 10.8164 4.01562 10.7422 4.01562 10.6445L3.79688 7.97656L4.01562 5.4375C4.01562 5.35156 4.08984 5.27344 4.17969 5.27344C4.26562 5.27344 4.33984 5.35156 4.35156 5.4375ZM5.1875 3.65625C5.07812 3.65625 5.00391 3.74219 4.99219 3.85156L4.79688 7.97656L4.99219 10.6445C5.00391 10.7539 5.07812 10.8398 5.1875 10.8398C5.28516 10.8398 5.37109 10.7539 5.37109 10.6445L5.59766 7.97656L5.37109 3.85156C5.37109 3.74219 5.28516 3.65625 5.1875 3.65625ZM6.18359 2.71484C6.0625 2.71484 5.97656 2.80078 5.96484 2.92187L5.79297 8L5.96484 10.6484C5.97656 10.7695 6.0625 10.8555 6.18359 10.8555C6.29297 10.8555 6.39062 10.7695 6.39062 10.6484L6.59766 8L6.39062 2.92187C6.39062 2.80078 6.29297 2.71484 6.18359 2.71484ZM0.28125 6.48828C0.226562 6.48828 0.195312 6.53125 0.183594 6.58594L0 7.97656L0.183594 9.34375C0.195312 9.39844 0.226562 9.44141 0.28125 9.44141C0.335938 9.44141 0.367188 9.39844 0.378906 9.34375L0.597656 7.97656L0.378906 6.58594C0.367188 6.53125 0.335938 6.48828 0.28125 6.48828ZM1.20312 5.63281C1.14844 5.63281 1.10547 5.67578 1.10547 5.73047L0.855469 7.97656L1.10547 10.168C1.10547 10.2344 1.14844 10.2773 1.20312 10.2773C1.25781 10.2773 1.30078 10.2344 1.3125 10.1797L1.59375 7.97656L1.3125 5.73047C1.30078 5.67578 1.25781 5.63281 1.20312 5.63281ZM2.19141 5.1875C2.125 5.1875 2.07031 5.24219 2.0625 5.31641L1.83594 7.97656L2.0625 10.5469C2.07422 10.6133 2.12891 10.668 2.19141 10.668C2.25781 10.668 2.3125 10.6133 2.3125 10.5469L2.58203 7.97656L2.3125 5.31641C2.3125 5.24219 2.25781 5.1875 2.19141 5.1875ZM3.17969 5.10156C3.10547 5.10156 3.03906 5.15625 3.03906 5.24219L2.8125 7.97656L3.03906 10.625C3.03906 10.7109 3.10547 10.7656 3.17969 10.7656C3.25391 10.7656 3.32031 10.7109 3.33203 10.625L3.58203 7.97656L3.33203 5.24219C3.32031 5.15625 3.25391 5.10156 3.17969 5.10156ZM12.6094 0.769531C12.5664 0.738281 12.5 0.714844 12.4453 0.714844C12.3594 0.714844 12.2812 0.746094 12.2266 0.789063C12.1523 0.855469 12.1055 0.953125 12.0977 1.05078V1.08203L11.9688 7.98438L12.0352 9.25391L12.1016 10.4922C12.1133 10.6758 12.2656 10.8281 12.4492 10.8281C12.6328 10.8281 12.7852 10.6758 12.7852 10.4922L12.9375 7.98438L12.7852 1.05078C12.7695 0.933594 12.707 0.824219 12.6094 0.769531ZM11.5664 1.36719C11.5117 1.33594 11.457 1.3125 11.3945 1.3125C11.332 1.3125 11.2734 1.33594 11.2227 1.36719C11.1367 1.42188 11.082 1.51953 11.082 1.62891L11.0703 1.69531L10.9609 7.97656C10.9609 7.97656 10.9609 7.98828 11.082 10.5391V10.5508C11.082 10.6172 11.1055 10.6797 11.1484 10.7344C11.2148 10.8086 11.3008 10.8555 11.3984 10.8555C11.4844 10.8555 11.5625 10.8125 11.6172 10.7578C11.6836 10.7031 11.7148 10.6289 11.7148 10.5391L11.7266 10.2773L11.8477 7.98828L11.7188 1.62891C11.707 1.51953 11.6523 1.42188 11.5664 1.36719ZM7.21484 2.24609C7.09375 2.24609 6.98828 2.35547 6.98828 2.48438L6.81641 7.97656L6.98828 10.6016C7 10.7305 7.09766 10.8281 7.21484 10.8281C7.34375 10.8281 7.44141 10.7305 7.45312 10.6016L7.64844 7.97656L7.45312 2.48438C7.44531 2.35547 7.34766 2.24609 7.21484 2.24609ZM21.9297 4.69922C21.5078 4.69922 21.1055 4.78516 20.7344 4.9375C20.4844 2.17188 18.1641 0 15.332 0C14.6367 0 13.9648 0.128906 13.3672 0.367188C13.1289 0.453125 13.0625 0.539062 13.0625 0.726562V10.4805C13.0625 10.6758 13.2148 10.8164 13.3984 10.8398H21.9258C23.6172 10.8398 24.9961 9.47266 24.9961 7.78125C25 6.07812 23.6211 4.69922 21.9297 4.69922ZM10.3398 2.34375C10.1758 2.34375 10.0469 2.47266 10.0352 2.64844L9.90625 7.98828L10.0352 10.5508C10.0469 10.7148 10.1758 10.8438 10.3398 10.8438C10.5039 10.8438 10.6328 10.7148 10.6328 10.5508L10.7852 7.98828L10.6328 2.64844C10.6211 2.47266 10.5039 2.34375 10.3398 2.34375ZM8.24609 2.03906C8.11719 2.03906 7.99609 2.16016 7.99609 2.30078L7.84375 7.97656L7.99609 10.5898C8.00781 10.7305 8.11719 10.8398 8.24609 10.8398C8.38672 10.8398 8.49609 10.7305 8.50781 10.5898L8.67969 7.97656L8.50781 2.30078C8.49609 2.16016 8.38672 2.03906 8.24609 2.03906ZM9.28906 2.17188C9.13672 2.17188 9.01953 2.29297 9.01953 2.44141L8.86719 7.97656L9.01953 10.5703C9.03125 10.7227 9.14062 10.8398 9.28906 10.8398C9.4375 10.8398 9.55859 10.7188 9.55859 10.5703L9.72266 7.97656L9.55859 2.44141C9.55859 2.28906 9.44141 2.17188 9.28906 2.17188Z" fill="white"/>
</svg>
