<svg width="23" height="17" viewBox="0 0 23 17" fill="none" xmlns="http://www.w3.org/2000/svg">
<path d="M11.4999 13.2812C8.77404 13.2812 6.56748 11.3319 6.36443 8.86158L2.5946 6.16983C2.09903 6.74424 1.64298 7.35152 1.27498 8.01557C1.19277 8.16582 1.14994 8.33181 1.14994 8.50017C1.14994 8.66852 1.19277 8.83452 1.27498 8.98476C3.22387 12.4979 7.0821 14.8749 11.4999 14.8749C12.467 14.8749 13.3999 14.7421 14.2991 14.5276L12.4343 13.1945C12.1263 13.2495 11.8135 13.2785 11.4999 13.2812ZM22.7778 15.2103L18.8049 12.3734C20.0117 11.4338 21.0043 10.2818 21.7248 8.98443C21.807 8.83418 21.8498 8.66819 21.8498 8.49983C21.8498 8.33148 21.807 8.16549 21.7248 8.01524C19.7759 4.50205 15.9177 2.12507 11.4999 2.12507C9.64965 2.12714 7.82946 2.55749 6.20559 3.37681L1.63364 0.111981C1.57402 0.0691183 1.50584 0.0375301 1.433 0.0190211C1.36016 0.000512081 1.28409 -0.00455493 1.20913 0.00410958C1.13418 0.0127741 1.0618 0.0350003 0.996143 0.0695181C0.930486 0.104036 0.872834 0.150169 0.826482 0.20528L0.121031 1.04431C0.0274498 1.15554 -0.0144835 1.29655 0.00445412 1.43634C0.0233917 1.57612 0.101649 1.70323 0.222015 1.78972L21.3661 16.888C21.4258 16.9309 21.4939 16.9625 21.5668 16.981C21.6396 16.9995 21.7157 17.0046 21.7906 16.9959C21.8656 16.9872 21.938 16.965 22.0036 16.9305C22.0693 16.896 22.1269 16.8498 22.1733 16.7947L22.8791 15.9557C22.9726 15.8444 23.0145 15.7034 22.9955 15.5636C22.9765 15.4238 22.8982 15.2967 22.7778 15.2103ZM16.1753 10.4955L14.763 9.48679C14.8819 9.16919 14.945 8.83604 14.9499 8.5C14.9569 8.00802 14.8389 7.52138 14.6054 7.07917C14.372 6.63695 14.0295 6.25149 13.6055 5.95375C13.1815 5.65601 12.6879 5.45428 12.1643 5.36477C11.6406 5.27527 11.1015 5.30047 10.5903 5.43837C10.807 5.70967 10.9242 6.03784 10.9249 6.37502C10.9195 6.48722 10.901 6.59856 10.8695 6.70705L8.22419 4.81814C9.14311 4.10867 10.3024 3.71962 11.4999 3.7188C12.1796 3.71845 12.8527 3.84188 13.4807 4.08204C14.1087 4.32219 14.6794 4.67436 15.16 5.1184C15.6406 5.56245 16.0218 6.08966 16.2817 6.6699C16.5417 7.25014 16.6752 7.87203 16.6749 8.5C16.6749 9.21818 16.4848 9.88754 16.1753 10.4958V10.4955Z" fill="white"/>
</svg>
