<svg width="6" height="17" viewBox="0 0 6 17" fill="none" xmlns="http://www.w3.org/2000/svg">
<path d="M3 6.03226C4.65833 6.03226 6 7.13589 6 8.5C6 9.86411 4.65833 10.9677 3 10.9677C1.34167 10.9677 0 9.86411 0 8.5C0 7.13589 1.34167 6.03226 3 6.03226ZM0 2.46774C0 3.83185 1.34167 4.93548 3 4.93548C4.65833 4.93548 6 3.83185 6 2.46774C6 1.10363 4.65833 0 3 0C1.34167 0 0 1.10363 0 2.46774ZM0 14.5323C0 15.8964 1.34167 17 3 17C4.65833 17 6 15.8964 6 14.5323C6 13.1681 4.65833 12.0645 3 12.0645C1.34167 12.0645 0 13.1681 0 14.5323Z" fill="#C1C1C1"/>
</svg>
