<svg width="24" height="23" viewBox="0 0 24 23" fill="none" xmlns="http://www.w3.org/2000/svg">
<path d="M11.625 0C5.25 0 0 5.175 0 11.625C0 16.725 3.3375 21.075 7.9875 22.65C8.5875 22.7625 8.775 22.3875 8.775 22.125C8.775 21.8625 8.775 21.1125 8.7375 20.1C5.5125 20.85 4.8375 18.525 4.8375 18.525C4.3125 17.2125 3.525 16.8375 3.525 16.8375C2.475 16.0875 3.5625 16.0875 3.5625 16.0875C4.725 16.125 5.3625 17.2875 5.3625 17.2875C6.375 19.0875 8.1 18.5625 8.7375 18.225C8.85 17.475 9.15 16.95 9.4875 16.65C6.9375 16.3875 4.2 15.375 4.2 10.95C4.2 9.675 4.6875 8.6625 5.4 7.875C5.2875 7.6125 4.875 6.4125 5.5125 4.8C5.5125 4.8 6.525 4.5 8.7375 6C9.675 5.7375 10.65 5.5875 11.6625 5.5875C12.675 5.5875 13.6875 5.7 14.5875 6C16.8 4.5375 17.775 4.8 17.775 4.8C18.4125 6.375 18.0375 7.6125 17.8875 7.875C18.6375 8.6625 19.0875 9.7125 19.0875 10.95C19.0875 15.375 16.35 16.3875 13.8 16.65C14.2125 17.025 14.5875 17.775 14.5875 18.825C14.5875 20.4 14.55 21.6375 14.55 22.0125C14.55 22.3125 14.775 22.65 15.3375 22.5375C19.9125 21 23.25 16.6875 23.25 11.55C23.2125 5.175 18 0 11.625 0Z" fill="white"/>
</svg>
