<svg width="24" height="15" viewBox="0 0 24 15" fill="none" xmlns="http://www.w3.org/2000/svg">
<path d="M0 10.168C0.0898438 10.0039 0.203125 9.97656 0.378906 10.0703C0.785156 10.2891 1.18359 10.5156 1.59766 10.7227C3.18232 11.5129 4.85197 12.1196 6.57422 12.5312C7.38856 12.7277 8.2126 12.8816 9.04297 12.9922C10.2727 13.1575 11.5135 13.2254 12.7539 13.1953C13.4336 13.1797 14.1133 13.125 14.7891 13.0469C16.9832 12.7911 19.1305 12.2283 21.168 11.375C21.2813 11.3281 21.3984 11.2969 21.5234 11.3281C21.7852 11.3984 21.875 11.6797 21.6836 11.8711C21.5672 11.9781 21.4417 12.0748 21.3086 12.1602C20.1094 12.9844 18.8008 13.582 17.418 14.0312C16.4604 14.3398 15.4793 14.5698 14.4844 14.7188C13.7962 14.8242 13.1022 14.8868 12.4062 14.9062C12.3735 14.9082 12.3409 14.9121 12.3086 14.918H11.4844C11.4521 14.9121 11.4195 14.9082 11.3867 14.9062C11.2461 14.8984 11.1055 14.8945 10.9688 14.8906C10.309 14.8607 9.65156 14.7916 9 14.6836C7.93012 14.5092 6.87873 14.2359 5.85938 13.8672C3.76249 13.111 1.83132 11.957 0.171875 10.4688C0.101562 10.4062 0.0546875 10.3203 0 10.2461V10.168ZM6.17188 0.00390619L6.00391 0.0273436C5.46678 0.0936414 4.95567 0.296741 4.51953 0.617188C4.42578 0.683594 4.33984 0.753906 4.24219 0.828125C4.2339 0.810919 4.22862 0.792424 4.22656 0.773438C4.21094 0.667969 4.19531 0.558594 4.17578 0.453125C4.14844 0.273437 4.05859 0.195312 3.87891 0.195312H3.42969C3.16016 0.195312 3.10938 0.246094 3.10938 0.515625V8.69141C3.10938 8.73047 3.10937 8.76953 3.11328 8.80859C3.12109 8.92578 3.19141 9 3.30469 9.00391C3.57812 9.00781 3.85547 9.00781 4.12891 9.00391C4.24219 9.00391 4.3125 8.92578 4.32422 8.80859C4.32812 8.76953 4.32812 8.73047 4.32812 8.69141V5.86328C4.37109 5.89844 4.39453 5.91797 4.41406 5.9375C5.11328 6.51953 5.91797 6.71094 6.79688 6.53906C7.59375 6.38281 8.14844 5.89453 8.50781 5.17578C8.78125 4.63281 8.89453 4.05469 8.91016 3.45312C8.92969 2.78516 8.86328 2.12891 8.59375 1.50781C8.26172 0.742187 7.71094 0.238281 6.87891 0.0664061C6.75391 0.0390624 6.625 0.0273436 6.49609 0.00781238C6.38672 0.00390613 6.28125 0.00390619 6.17188 0.00390619ZM4.32031 1.64062C4.31809 1.61506 4.32314 1.58939 4.33489 1.56658C4.34664 1.54377 4.36461 1.52475 4.38672 1.51172C4.92188 1.14062 5.51172 0.945312 6.16797 0.996094C6.75 1.03906 7.22656 1.32422 7.47656 2.00781C7.62891 2.42578 7.66797 2.85937 7.66797 3.29687C7.66797 3.70312 7.63672 4.10156 7.51172 4.49219C7.24609 5.32422 6.63672 5.64062 5.84766 5.60547C5.30078 5.58203 4.82422 5.37109 4.38672 5.0625C4.36489 5.04917 4.34716 5.03009 4.33544 5.00736C4.32373 4.98462 4.3185 4.9591 4.32031 4.93359C4.32422 4.38281 4.32031 3.83594 4.32031 3.28516C4.32031 2.73438 4.32422 2.19141 4.32031 1.64062ZM12.3555 0.00390619C12.3164 0.00781244 12.2773 0.015625 12.2422 0.0195312C11.8615 0.0355874 11.4834 0.0892336 11.1133 0.179687C10.875 0.242187 10.6445 0.328125 10.4141 0.40625C10.2734 0.453125 10.2031 0.554687 10.207 0.707031C10.2109 0.835937 10.2031 0.964844 10.207 1.09375C10.2109 1.28125 10.2891 1.33203 10.4727 1.28516C10.7773 1.20703 11.082 1.12109 11.3906 1.0625C11.8711 0.972656 12.3555 0.933594 12.8438 1.00781C13.0977 1.04688 13.3359 1.12109 13.5 1.33594C13.6445 1.52344 13.6992 1.74609 13.707 1.97656C13.7188 2.30078 13.7148 2.625 13.7188 2.94922C13.7178 2.96765 13.7152 2.98595 13.7109 3.00391C13.6914 3 13.6758 3.00391 13.6602 3C13.2501 2.8989 12.8317 2.83484 12.4102 2.80859C11.9688 2.78516 11.5312 2.8125 11.1094 2.96094C10.6055 3.13672 10.1992 3.44141 9.96094 3.93359C9.77734 4.31641 9.75 4.72266 9.80859 5.13281C9.88672 5.67969 10.1602 6.10156 10.6445 6.37109C11.1094 6.62891 11.6133 6.66016 12.125 6.58203C12.7148 6.49219 13.2383 6.24219 13.6992 5.86328C13.7181 5.84626 13.7391 5.83181 13.7617 5.82031C13.7852 5.96875 13.8047 6.10938 13.832 6.25C13.8555 6.37109 13.9297 6.44922 14.043 6.45312C14.2539 6.45703 14.4687 6.45703 14.6797 6.45312C14.7286 6.45274 14.7755 6.43339 14.8105 6.39916C14.8454 6.36492 14.8658 6.31845 14.8672 6.26953C14.8704 6.23317 14.8717 6.19666 14.8711 6.16016V2.01953C14.873 1.85089 14.8612 1.68237 14.8359 1.51563C14.7617 1.01172 14.5469 0.597656 14.0938 0.328125C13.832 0.171875 13.543 0.0937501 13.2422 0.0507814C13.1016 0.0312501 12.9609 0.0195312 12.8203 0C12.668 0.00390625 12.5117 0.00390619 12.3555 0.00390619ZM13.7227 4.99219C13.7241 5.01516 13.7195 5.03811 13.7092 5.0587C13.6989 5.07928 13.6833 5.09677 13.6641 5.10938C13.2266 5.42578 12.7461 5.63672 12.2031 5.69141C11.9805 5.71484 11.7578 5.70703 11.5469 5.62109C11.431 5.57871 11.3267 5.50957 11.2425 5.4193C11.1583 5.32902 11.0967 5.22016 11.0625 5.10156C10.9851 4.85509 10.9837 4.591 11.0586 4.34375C11.1562 4.01953 11.3867 3.83594 11.6992 3.73438C12.0129 3.6398 12.3426 3.61055 12.668 3.64844C12.9961 3.67578 13.3164 3.73828 13.6445 3.78125C13.707 3.78906 13.7266 3.82031 13.7266 3.88281C13.7227 4.07031 13.7266 4.25391 13.7266 4.44141C13.7266 4.62891 13.7187 4.80859 13.7227 4.99219ZM23.875 10.0469C23.8359 9.85156 23.6875 9.77734 23.5195 9.72266C23.2533 9.63891 22.9778 9.58776 22.6992 9.57031C22.1878 9.52665 21.6728 9.55161 21.168 9.64453C20.6094 9.75 20.0781 9.92969 19.6055 10.2539C19.5492 10.2901 19.5002 10.3364 19.4609 10.3906C19.4473 10.414 19.4385 10.4399 19.4351 10.4667C19.4318 10.4936 19.4339 10.5209 19.4414 10.5469C19.457 10.6055 19.5234 10.6211 19.582 10.6172C19.6107 10.6178 19.6394 10.6165 19.668 10.6133C19.9727 10.582 20.2734 10.5469 20.5781 10.5156C21.0234 10.4727 21.4727 10.4453 21.918 10.4805C22.1086 10.4963 22.2971 10.5317 22.4805 10.5859C22.6797 10.6406 22.7695 10.7891 22.7773 10.9922C22.793 11.3047 22.7227 11.6055 22.6406 11.9023C22.4805 12.5039 22.25 13.0859 22.0234 13.6641C22.0069 13.7019 21.9939 13.7411 21.9844 13.7812C21.9648 13.8945 22.0312 13.9688 22.1445 13.9414C22.2145 13.9257 22.2791 13.892 22.332 13.8438C22.5083 13.6799 22.674 13.5051 22.8281 13.3203C23.3281 12.6797 23.6211 11.9414 23.793 11.1484C23.8242 11.0078 23.8477 10.8633 23.875 10.7227V10.0469ZM18.7148 5.23438C18.2109 3.83984 17.707 2.44401 17.2031 1.04688C17.125 0.824219 17.0391 0.605469 16.957 0.386719C16.9141 0.273438 16.832 0.199219 16.707 0.199219C16.4102 0.195312 16.1133 0.191406 15.8125 0.195312C15.7148 0.195312 15.668 0.273438 15.6875 0.371094C15.7063 0.452248 15.7311 0.531893 15.7617 0.609375C16.5273 2.50391 17.2969 4.39844 18.0703 6.29297C18.1367 6.45312 18.1523 6.58984 18.0781 6.75391C17.9492 7.03906 17.8477 7.33984 17.7148 7.625C17.5977 7.87891 17.4023 8.07031 17.1211 8.14453C16.9249 8.19579 16.721 8.21036 16.5195 8.1875C16.4219 8.17969 16.3242 8.15625 16.2266 8.14844C16.0938 8.14062 16.0273 8.19922 16.0234 8.33594C16.0195 8.46615 16.0195 8.59505 16.0234 8.72266C16.0273 8.9375 16.1016 9.03516 16.3125 9.07031C16.5302 9.11365 16.7509 9.13977 16.9727 9.14844C17.6406 9.16406 18.1719 8.89453 18.5156 8.3125C18.654 8.08266 18.7741 7.84234 18.875 7.59375C19.8008 5.25781 20.7201 2.91927 21.6328 0.578125C21.6613 0.508967 21.6823 0.436935 21.6953 0.363281C21.7109 0.253906 21.6602 0.191406 21.5508 0.191406C21.293 0.1875 21.0312 0.191406 20.7734 0.191406C20.7078 0.186815 20.6426 0.204321 20.588 0.241134C20.5335 0.277947 20.4929 0.331949 20.4727 0.394531C20.4531 0.449219 20.4297 0.5 20.4102 0.554687L19.0508 4.46094C18.9531 4.74219 18.8516 5.02734 18.75 5.32812C18.7344 5.28516 18.7266 5.26172 18.7148 5.23438Z" fill="white"/>
</svg>
