<svg width="30" height="30" viewBox="0 0 30 30" fill="none" xmlns="http://www.w3.org/2000/svg">
<mask id="mask0_297_5784" style="mask-type:alpha" maskUnits="userSpaceOnUse" x="0" y="0" width="30" height="30">
<rect width="30" height="30" fill="#D9D9D9"/>
</mask>
<g mask="url(#mask0_297_5784)">
<path d="M14.376 18.126L23.126 12.501L14.376 6.87598V18.126ZM10.001 22.501C9.31348 22.501 8.72494 22.2562 8.23535 21.7666C7.74577 21.277 7.50098 20.6885 7.50098 20.001V5.00098C7.50098 4.31348 7.74577 3.72494 8.23535 3.23535C8.72494 2.74577 9.31348 2.50098 10.001 2.50098H25.001C25.6885 2.50098 26.277 2.74577 26.7666 3.23535C27.2562 3.72494 27.501 4.31348 27.501 5.00098V20.001C27.501 20.6885 27.2562 21.277 26.7666 21.7666C26.277 22.2562 25.6885 22.501 25.001 22.501H10.001ZM10.001 20.001H25.001V5.00098H10.001V20.001ZM5.00098 27.501C4.31348 27.501 3.72494 27.2562 3.23535 26.7666C2.74577 26.277 2.50098 25.6885 2.50098 25.001V7.50098H5.00098V25.001H22.501V27.501H5.00098Z" fill="white"/>
</g>
</svg>
