<svg width="30" height="30" viewBox="0 0 30 30" fill="none" xmlns="http://www.w3.org/2000/svg">
<mask id="mask0_297_4269" style="mask-type:alpha" maskUnits="userSpaceOnUse" x="0" y="0" width="30" height="30">
<rect width="30" height="30" fill="#D9D9D9"/>
</mask>
<g mask="url(#mask0_297_4269)">
<path d="M11.248 22.4993H24.9981V19.1555H11.248V22.4993ZM4.99805 10.843H8.74805V7.49927H4.99805V10.843ZM4.99805 16.6868H8.74805V13.343H4.99805V16.6868ZM4.99805 22.4993H8.74805V19.1555H4.99805V22.4993ZM11.248 16.6868H24.9981V13.343H11.248V16.6868ZM11.248 10.843H24.9981V7.49927H11.248V10.843ZM4.99805 24.9993C4.31055 24.9993 3.72201 24.7545 3.23242 24.2649C2.74284 23.7753 2.49805 23.1868 2.49805 22.4993V7.49927C2.49805 6.81177 2.74284 6.22323 3.23242 5.73364C3.72201 5.24406 4.31055 4.99927 4.99805 4.99927H24.9981C25.6856 4.99927 26.2741 5.24406 26.7637 5.73364C27.2533 6.22323 27.4981 6.81177 27.4981 7.49927V22.4993C27.4981 23.1868 27.2533 23.7753 26.7637 24.2649C26.2741 24.7545 25.6856 24.9993 24.9981 24.9993H4.99805Z" fill="white"/>
</g>
</svg>
