<svg width="30" height="30" viewBox="0 0 30 30" fill="none" xmlns="http://www.w3.org/2000/svg">
<mask id="mask0_292_3174" style="mask-type:alpha" maskUnits="userSpaceOnUse" x="0" y="0" width="30" height="30">
<rect width="30" height="30" fill="#D9D9D9"/>
</mask>
<g mask="url(#mask0_292_3174)">
<path d="M6.25 13.75C5.5625 13.75 4.97396 13.5052 4.48438 13.0156C3.99479 12.526 3.75 11.9375 3.75 11.25V6.25C3.75 5.5625 3.99479 4.97396 4.48438 4.48438C4.97396 3.99479 5.5625 3.75 6.25 3.75H23.75C24.4375 3.75 25.026 3.99479 25.5156 4.48438C26.0052 4.97396 26.25 5.5625 26.25 6.25V11.25C26.25 11.9375 26.0052 12.526 25.5156 13.0156C25.026 13.5052 24.4375 13.75 23.75 13.75H6.25ZM6.25 11.25H23.75V6.25H6.25V11.25ZM6.25 26.25C5.5625 26.25 4.97396 26.0052 4.48438 25.5156C3.99479 25.026 3.75 24.4375 3.75 23.75V18.75C3.75 18.0625 3.99479 17.474 4.48438 16.9844C4.97396 16.4948 5.5625 16.25 6.25 16.25H23.75C24.4375 16.25 25.026 16.4948 25.5156 16.9844C26.0052 17.474 26.25 18.0625 26.25 18.75V23.75C26.25 24.4375 26.0052 25.026 25.5156 25.5156C25.026 26.0052 24.4375 26.25 23.75 26.25H6.25ZM6.25 23.75H23.75V18.75H6.25V23.75Z" fill="white"/>
</g>
</svg>
